<svg xmlns="http://www.w3.org/2000/svg" xmlns:xlink="http://www.w3.org/1999/xlink" width="500" height="500" version="1.0" viewBox="0 0 375 375"><defs><path id="reuse-0" fill-opacity=".7" d="M-37.5-37.5h450v450h-450z"/><path id="reuse-1" d="m89 .8 225.4 75.4-88.6 264.6L.4 265.4Zm0 0"/><path id="reuse-2" d="m24.4 1 37.1 16.3L38 71 1 54.6Zm0 0"/></defs><defs><clipPath id="d"><path d="M37 37h265v280H37Zm0 0"/></clipPath><clipPath id="e"><use xlink:href="#reuse-1"/></clipPath><clipPath id="f"><use xlink:href="#reuse-1"/></clipPath><clipPath id="g"><path d="m88.9.9 226 75.6-88.5 264.6-226-75.7Zm0 0"/></clipPath><clipPath id="h"><path d="m88.9.9 225.7 75.5L226.1 341 .4 265.4Zm0 0"/></clipPath><clipPath id="i"><path d="M112 122h92v101h-92Zm0 0"/></clipPath><clipPath id="j"><use xlink:href="#reuse-1"/></clipPath><clipPath id="k"><use xlink:href="#reuse-1"/></clipPath><clipPath id="c"><path d="M0 0h316v341H0z"/></clipPath><clipPath id="n"><path d="M8 14h27v44H8Zm0 0"/></clipPath><clipPath id="o"><use xlink:href="#reuse-2"/></clipPath><clipPath id="p"><use xlink:href="#reuse-2"/></clipPath><clipPath id="q"><path d="M26 14h25v47H26Zm0 0"/></clipPath><clipPath id="r"><use xlink:href="#reuse-2"/></clipPath><clipPath id="s"><use xlink:href="#reuse-2"/></clipPath><clipPath id="t"><path d="M9 8h34v52H9Zm0 0"/></clipPath><clipPath id="u"><use xlink:href="#reuse-2"/></clipPath><clipPath id="v"><use xlink:href="#reuse-2"/></clipPath><clipPath id="w"><path d="M18 9h36v55H18Zm0 0"/></clipPath><clipPath id="x"><use xlink:href="#reuse-2"/></clipPath><clipPath id="y"><use xlink:href="#reuse-2"/></clipPath><clipPath id="z"><path d="m41.7 8.7 19.8 8.7-23.4 53.4L18.3 62Zm0 0"/></clipPath><clipPath id="A"><path d="m41.7 8.7 19.8 8.6-23.4 53.4L18.3 62Zm0 0"/></clipPath><clipPath id="m"><path d="M0 0h62v71H0z"/></clipPath><clipPath id="D"><path d="M13 19h100v80H13Zm0 0"/></clipPath><clipPath id="E"><path d="M.6 45.9 96.8 0 125 59.7 29 105.4Zm0 0"/></clipPath><clipPath id="F"><path d="M.6 45.8 96.8.1 125 59.7 29 105.4Zm0 0"/></clipPath><clipPath id="C"><path d="M0 0h126v106H0z"/></clipPath><mask id="b"><g filter="url(#a)"><use xlink:href="#reuse-0" fill-opacity=".7"/></g></mask><mask id="l"><g filter="url(#a)"><use xlink:href="#reuse-0" fill-opacity=".7"/></g></mask><mask id="B"><g filter="url(#a)"><use xlink:href="#reuse-0" fill-opacity=".7"/></g></mask><filter id="a" width="100%" height="100%" x="0%" y="0%"><feColorMatrix color-interpolation-filters="sRGB" values="0 0 0 0 1 0 0 0 0 1 0 0 0 0 1 0 0 0 1 0"/></filter></defs><g mask="url(#b)"><g clip-path="url(#c)" transform="translate(30 34)"><g clip-path="url(#d)"><g clip-path="url(#e)"><g clip-path="url(#f)"><g clip-path="url(#g)"><g clip-path="url(#h)"><path fill="#fff" d="M139.5 249A79.4 79.4 0 0 1 99 218.6a87.7 87.7 0 0 0 99.2 44.2l14.8 29.6c-24.1 7.6-50 7.5-74.5-.7A119.8 119.8 0 0 1 69 231a119.8 119.8 0 0 1-6.5-92 119.8 119.8 0 0 1 60.6-69.6 119.8 119.8 0 0 1 92-6.5 119.7 119.7 0 0 1 60 44.3l-29.7 14.8a87.8 87.8 0 0 0-105.8-24.4A79.4 79.4 0 0 1 239.7 146l62-30.8a139.5 139.5 0 1 0-62.6 187l-30.9-62a79.6 79.6 0 0 1-68.7 8.8"/></g></g></g></g></g><g clip-path="url(#i)"><g clip-path="url(#j)"><g clip-path="url(#k)"><path fill="#ffbd59" d="M156.6 218.7a45.6 45.6 0 1 1 46.8-75.5 50.2 50.2 0 1 0-25.9 77.4c-6.8 1-14 .4-20.9-1.9"/></g></g></g></g></g><g mask="url(#l)"><g clip-path="url(#m)" transform="translate(162 169)"><g clip-path="url(#n)"><g clip-path="url(#o)"><g clip-path="url(#p)"><path fill="#ffbd59" d="M11.7 58a18.7 18.7 0 0 1-3.4-11.2 33.5 33.5 0 0 1 4-16 33 33 0 0 1 12-13.1c3.5-2 7-3 10-2.8-2.5 3-5.6 8-7.7 16L25.3 36a60 60 0 0 1-4.6 14.4 14 14 0 0 1-9 7.5"/></g></g></g><g clip-path="url(#q)"><g clip-path="url(#r)"><g clip-path="url(#s)"><path fill="#ffbd59" d="M26.9 60.5c4.4-3.3 9-9.5 10.4-21.3a92 92 0 0 1 3-14.3c1.5-4.9 3.1-8.5 4.7-10.7 3.1 2.7 5 7 5.3 12.2.4 5.7-1.1 12-4.1 17.8C43 50.2 38.6 55 33.7 58a21 21 0 0 1-6.8 2.6"/></g></g></g><g clip-path="url(#t)"><g clip-path="url(#u)"><g clip-path="url(#v)"><path fill="#fff" d="M26.2 48.5a15 15 0 0 1-9.6 9c-2.7-2.9-4.4-7.1-4.9-12a35 35 0 0 1 3-17 34.5 34.5 0 0 1 11.7-14.6c4-2.8 8.2-4 12-3.6A38.4 38.4 0 0 0 30.9 28l-1 5.5c-.8 5.2-1.7 10.7-3.7 15.1ZM32 33.7l.9-5.4c2-10.3 6-15.6 8.3-18l1.3-1.2-1.8-.5c-10-2.7-22.1 5.5-28 19C7.4 39.8 8.6 53 15.6 59.4l.4.5.6-.2c5.3-1.5 9-4.8 11.5-10.3 2.2-4.7 3-10.3 4-15.7"/></g></g></g><g clip-path="url(#w)"><g clip-path="url(#x)"><g clip-path="url(#y)"><g clip-path="url(#z)"><g clip-path="url(#A)"><path fill="#fff" d="M26.3 61.2c4.8-2.9 10.4-9.2 11-23 .2-3 .8-8.7 2-14.2 1.3-5.5 2.8-9.5 4.5-11.8 7.7 5 9.5 18.3 4 30.8a34.5 34.5 0 0 1-11.5 14.6 19.3 19.3 0 0 1-10 3.6Zm26.5-37.5c-1-6.4-4.1-11.3-8.7-13.8l-.8-.4-.5.6c-5 5.2-7.3 21.2-7.7 28C34.4 54.4 26.5 59.4 22 61L18.4 62l3.6.9c10 2.5 22-5.7 27.9-19.1 2.9-6.7 4-13.9 3-20.2"/></g></g></g></g></g></g></g><g mask="url(#B)"><g clip-path="url(#C)" transform="translate(68)"><g clip-path="url(#D)"><g clip-path="url(#E)"><g clip-path="url(#F)"><path fill="#ffbd59" fill-rule="evenodd" d="M25.4 78c-.6-.4-.7-.3 0 0a37.4 37.4 0 0 0 15 5.3 47 47 0 0 0-10-25.3c-.2-.4-.5-.6-.9-.6h-3.9c-.8.1-1-.5-1.2-1.1-.7-2.2-1.3-4-1.6-5.5-.2-1 .6-1.2 1.4-1.3 1.9-.3 3.8-.4 5.7-.5 1 0 1.3.8 1.4 1.7a144.6 144.6 0 0 1 .7 4.9l1.5 1.1a103 103 0 0 0 24.4 13v.4h-.2a96.7 96.7 0 0 1-20.5-8.5l-.1.1a52.5 52.5 0 0 0 21.2 10A82.3 82.3 0 0 0 54 37c-.3-.8-.6-1-1.4-1.4l-6-2.3c-1-.4-1-1.4-.7-2.4l2.4-7c.2-.9.8-1.1 1.6-.8 4 1.4 6.5 2.4 7.6 3 1.3.6.8 1.6.4 2.9L56 34.2c-.2.5-.2.9 0 1.2a79.5 79.5 0 0 0 25 25.6c2.9-6.4 4.6-13.1 5.3-20.1v-2.7c-.9 5-2.1 10-3.7 14.8-.7 2-1.6 4.6-2.7 6.4-.2.3-.3.3-.5.1v-.2c3-9.2 5-19.1 5.2-28.8v-.2c-1.9-1.8-3.1-3.1-3.7-3.8-.8-1-.2-1.6.5-2.4 1.2-1.4 2.5-2.7 3.9-3.9.4-.3 1-.4 1.3 0a91.3 91.3 0 0 1 4 6l-.2.2-2.7 3.2c-.3.4-.3.8-.2 1.4A46 46 0 0 0 101 54.4h.1a39 39 0 0 0 5.4-15.3h-.1a52 52 0 0 1-5 13c0 .3-.4.5-.7.7l-.2-.1V52a87 87 0 0 0 5.3-18.3l-2-3.5c-.3-.7-.2-1.2.3-1.6a699 699 0 0 0 3.7-2.6c1-.7 1.4-.2 1.8.7l2.1 4.5c.2.4 0 .8-.3 1l-2.9 1.4c-.6.3-.5.7-.5 1.3a120.4 120.4 0 0 0 2.5 25c-12.9 2.3-25.3 6-37.3 11-.2 0-.5 0-.6-.2a161.2 161.2 0 0 0-5.8-10.3h-.1l.1 1a182 182 0 0 0 4.1 9.9c.3.6 0 .7-.5 1A174 174 0 0 0 38.5 94 121 121 0 0 0 20 75.7l-3.6 1.7c-.3.1-.7 0-.8-.3L13 72v-.2a.9.9 0 0 1 .6-1.2l4.8-1.3c.4-.1.9 0 1 .5h.1l1.5 3.7c.1.4.2.6.7.8a90 90 0 0 0 17.4 7.3.3.3 0 0 1-.3.5A69.7 69.7 0 0 1 25.4 78M112 65.6a338 338 0 0 0-40.2 16.9C62.5 87 53.4 92 44.5 97.5l-2.2 1.4H42l-3.2-4.3A193 193 0 0 1 82.5 69a199.9 199.9 0 0 1 28.4-8.7l1.2 5.3v.1Zm0 0"/></g></g></g></g></g>
    <style>
        path { fill: #000; }
        @media (prefers-color-scheme: dark) {
            path { fill: #FFF; }
        }
    </style>
</svg>