<svg xmlns="http://www.w3.org/2000/svg" xmlns:xlink="http://www.w3.org/1999/xlink" width="500" zoomAndPan="magnify" viewBox="0 0 375 374.999991" height="500" preserveAspectRatio="xMidYMid meet" version="1.0"><defs><g/><clipPath id="98c959e7ad"><path d="M 36 39 L 227 39 L 227 233 L 36 233 Z M 36 39 " clip-rule="nonzero"/></clipPath><clipPath id="39c1b4ccf8"><path d="M 102.574219 3.054688 L 241.648438 90.4375 L 139.101562 253.644531 L 0.0273438 166.257812 Z M 102.574219 3.054688 " clip-rule="nonzero"/></clipPath><clipPath id="754ea9c7f4"><path d="M 102.574219 3.054688 L 241.648438 90.4375 L 139.101562 253.644531 L 0.0273438 166.257812 Z M 102.574219 3.054688 " clip-rule="nonzero"/></clipPath><clipPath id="1ecc4f2864"><path d="M 102.542969 3.105469 L 241.992188 90.730469 L 139.453125 253.921875 L 0 166.300781 Z M 102.542969 3.105469 " clip-rule="nonzero"/></clipPath><clipPath id="15017708bf"><path d="M 102.542969 3.105469 L 241.785156 90.597656 L 139.28125 253.734375 L 0.0390625 166.242188 Z M 102.542969 3.105469 " clip-rule="nonzero"/></clipPath><clipPath id="3d804db6e6"><path d="M 89 95 L 157 95 L 157 166 L 89 166 Z M 89 95 " clip-rule="nonzero"/></clipPath><clipPath id="6c18152144"><path d="M 102.574219 3.054688 L 241.648438 90.4375 L 139.101562 253.644531 L 0.0273438 166.257812 Z M 102.574219 3.054688 " clip-rule="nonzero"/></clipPath><clipPath id="2d38ab09cc"><path d="M 102.574219 3.054688 L 241.648438 90.4375 L 139.101562 253.644531 L 0.0273438 166.257812 Z M 102.574219 3.054688 " clip-rule="nonzero"/></clipPath><clipPath id="7f5466b945"><path d="M 163 140 L 186 140 L 186 177 L 163 177 Z M 163 140 " clip-rule="nonzero"/></clipPath><clipPath id="54edce7895"><path d="M 177.21875 128.421875 L 208.816406 142.273438 L 188.945312 187.609375 L 157.34375 173.757812 Z M 177.21875 128.421875 " clip-rule="nonzero"/></clipPath><clipPath id="0aaa7b3831"><path d="M 177.21875 128.421875 L 208.816406 142.273438 L 188.945312 187.609375 L 157.34375 173.757812 Z M 177.21875 128.421875 " clip-rule="nonzero"/></clipPath><clipPath id="68b3452590"><path d="M 179 139 L 200 139 L 200 179 L 179 179 Z M 179 139 " clip-rule="nonzero"/></clipPath><clipPath id="6f3e6cfab1"><path d="M 177.21875 128.421875 L 208.816406 142.273438 L 188.945312 187.609375 L 157.34375 173.757812 Z M 177.21875 128.421875 " clip-rule="nonzero"/></clipPath><clipPath id="a7ff1c0eae"><path d="M 177.21875 128.421875 L 208.816406 142.273438 L 188.945312 187.609375 L 157.34375 173.757812 Z M 177.21875 128.421875 " clip-rule="nonzero"/></clipPath><clipPath id="c4079d496e"><path d="M 164 134 L 193 134 L 193 179 L 164 179 Z M 164 134 " clip-rule="nonzero"/></clipPath><clipPath id="761b719bb6"><path d="M 177.21875 128.421875 L 208.816406 142.273438 L 188.945312 187.609375 L 157.34375 173.757812 Z M 177.21875 128.421875 " clip-rule="nonzero"/></clipPath><clipPath id="5a57e436e5"><path d="M 177.21875 128.421875 L 208.816406 142.273438 L 188.945312 187.609375 L 157.34375 173.757812 Z M 177.21875 128.421875 " clip-rule="nonzero"/></clipPath><clipPath id="0245f9b8a9"><path d="M 172 135 L 202 135 L 202 182 L 172 182 Z M 172 135 " clip-rule="nonzero"/></clipPath><clipPath id="dda50f363e"><path d="M 177.21875 128.421875 L 208.816406 142.273438 L 188.945312 187.609375 L 157.34375 173.757812 Z M 177.21875 128.421875 " clip-rule="nonzero"/></clipPath><clipPath id="c6cddf2e9d"><path d="M 177.21875 128.421875 L 208.816406 142.273438 L 188.945312 187.609375 L 157.34375 173.757812 Z M 177.21875 128.421875 " clip-rule="nonzero"/></clipPath><clipPath id="75e8930e42"><path d="M 191.824219 134.835938 L 208.597656 142.1875 L 188.816406 187.316406 L 172.042969 179.964844 Z M 191.824219 134.835938 " clip-rule="nonzero"/></clipPath><clipPath id="8fd80ad1d7"><path d="M 191.824219 134.835938 L 208.558594 142.171875 L 188.785156 187.277344 L 172.054688 179.941406 Z M 191.824219 134.835938 " clip-rule="nonzero"/></clipPath></defs><g clip-path="url(#98c959e7ad)"><g clip-path="url(#39c1b4ccf8)"><g clip-path="url(#754ea9c7f4)"><g clip-path="url(#1ecc4f2864)"><g clip-path="url(#15017708bf)"><path fill="#ffffff" d="M 96.085938 177.898438 C 85.574219 171.292969 78.058594 161.722656 73.945312 150.953125 C 77.667969 165.550781 86.765625 178.800781 100.496094 187.429688 C 110.492188 193.707031 121.828125 196.886719 133.359375 196.769531 L 138.441406 219.035156 C 120.984375 220.246094 103.648438 215.929688 88.550781 206.441406 C 69.714844 194.605469 56.613281 176.144531 51.664062 154.457031 C 46.714844 132.769531 50.507812 110.453125 62.339844 91.617188 C 74.175781 72.78125 92.636719 59.683594 114.324219 54.734375 C 136.011719 49.78125 158.328125 53.574219 177.164062 65.410156 C 192.265625 74.898438 203.675781 88.640625 210.160156 104.894531 L 187.894531 109.976562 C 182.996094 99.539062 175.214844 90.703125 165.21875 84.421875 C 151.488281 75.792969 135.601562 73.347656 120.835938 76.328125 C 132.324219 75.363281 144.207031 77.976562 154.71875 84.582031 C 169.503906 93.871094 178.355469 109.027344 180.15625 125.128906 L 226.773438 114.488281 C 221.289062 90.453125 206.632812 68.511719 184.109375 54.359375 C 139.058594 26.050781 79.59375 39.625 51.289062 84.671875 C 22.984375 129.722656 36.558594 189.1875 81.605469 217.492188 C 104.128906 231.644531 130.257812 235.328125 154.292969 229.839844 L 143.652344 183.226562 C 128.363281 188.585938 110.867188 187.1875 96.085938 177.898438 " fill-opacity="1" fill-rule="nonzero"/></g></g></g></g></g><g clip-path="url(#3d804db6e6)"><g clip-path="url(#6c18152144)"><g clip-path="url(#2d38ab09cc)"><path fill="#ffffff" d="M 112.519531 160.367188 C 97.78125 151.105469 93.339844 131.652344 102.601562 116.914062 C 111.863281 102.175781 131.316406 97.734375 146.054688 106.996094 C 150.351562 109.695312 153.773438 113.265625 156.234375 117.328125 C 153.59375 110.820312 148.953125 105.050781 142.554688 101.027344 C 126.324219 90.828125 104.898438 95.71875 94.699219 111.949219 C 84.5 128.179688 89.390625 149.605469 105.621094 159.804688 C 112.023438 163.824219 119.234375 165.5 126.246094 165.054688 C 121.515625 164.601562 116.816406 163.066406 112.519531 160.367188 " fill-opacity="1" fill-rule="nonzero"/></g></g></g><g fill="#ffffff" fill-opacity="1"><g transform="translate(133.067929, 170.249989)"><g><path d="M 19.898438 -20.417969 L 20.53125 -25.886719 C 18.929688 -26.59375 17.144531 -26.925781 15.285156 -26.925781 C -2.714844 -26.925781 -2.753906 0.0742188 15.285156 0.0742188 C 17.144531 0.0742188 19.488281 -0.371094 21.125 -1.042969 L 20.417969 -6.546875 C 19.414062 -6.023438 17.59375 -5.355469 15.285156 -5.355469 C 4.761719 -5.355469 4.761719 -21.570312 15.285156 -21.570312 C 17.59375 -21.570312 18.894531 -20.9375 19.898438 -20.417969 Z M 19.898438 -20.417969 "/></g></g></g><g fill="#ffffff" fill-opacity="1"><g transform="translate(165.38824, 170.249989)"><g/></g></g><g fill="#ffffff" fill-opacity="1"><g transform="translate(185.879987, 170.249989)"><g/></g></g><g fill="#ffffff" fill-opacity="1"><g transform="translate(206.380424, 170.249989)"><g><path d="M 16.253906 -21.273438 L 16.253906 -26.59375 L 2.976562 -26.59375 L 2.976562 0 L 8.292969 0 L 8.292969 -10.636719 L 15.0625 -10.636719 L 15.0625 -15.957031 L 8.292969 -15.957031 L 8.292969 -21.273438 Z M 16.253906 -21.273438 "/></g></g></g><g fill="#ffffff" fill-opacity="1"><g transform="translate(233.974251, 170.249989)"><g><path d="M 16.253906 -21.273438 L 16.253906 -26.59375 L 2.976562 -26.59375 L 2.976562 0 L 8.292969 0 L 8.292969 -10.636719 L 15.0625 -10.636719 L 15.0625 -15.957031 L 8.292969 -15.957031 L 8.292969 -21.273438 Z M 16.253906 -21.273438 "/></g></g></g><g fill="#ffffff" fill-opacity="1"><g transform="translate(261.568077, 170.249989)"><g><path d="M 16.738281 0 L 16.738281 -5.320312 L 8.292969 -5.320312 L 8.292969 -10.636719 L 15.285156 -10.636719 L 15.285156 -15.957031 L 8.292969 -15.957031 L 8.292969 -21.273438 L 16.289062 -21.273438 L 16.289062 -26.59375 L 2.976562 -26.59375 L 2.976562 0 Z M 16.738281 0 "/></g></g></g><g fill="#ffffff" fill-opacity="1"><g transform="translate(290.240235, 170.249989)"><g><path d="M 16.738281 0 L 16.738281 -5.320312 L 8.292969 -5.320312 L 8.292969 -10.636719 L 15.285156 -10.636719 L 15.285156 -15.957031 L 8.292969 -15.957031 L 8.292969 -21.273438 L 16.289062 -21.273438 L 16.289062 -26.59375 L 2.976562 -26.59375 L 2.976562 0 Z M 16.738281 0 "/></g></g></g><g fill="#ffffff" fill-opacity="1"><g transform="translate(184.220273, 221.999985)"><g><path d="M 2.976562 -26.59375 L 2.976562 0 L 16.738281 0 L 16.738281 -5.320312 L 8.292969 -5.320312 L 8.292969 -26.59375 Z M 2.976562 -26.59375 "/></g></g></g><g fill="#ffffff" fill-opacity="1"><g transform="translate(212.483407, 221.999985)"><g><path d="M 0.59375 0 L 6.621094 0 L 7.660156 -2.863281 L 16.476562 -2.863281 L 17.554688 0 L 23.542969 0 L 12.347656 -27.558594 L 11.789062 -27.558594 Z M 9.59375 -7.847656 L 12.085938 -14.765625 L 14.503906 -7.847656 Z M 9.59375 -7.847656 "/></g></g></g><g fill="#ffffff" fill-opacity="1"><g transform="translate(246.695924, 221.999985)"><g><path d="M 8.292969 -14.46875 L 21.757812 0.558594 L 23.171875 0.558594 L 23.171875 -26.554688 L 17.816406 -26.554688 L 17.816406 -11.53125 L 4.390625 -27.152344 L 2.976562 -27.152344 L 2.976562 0 L 8.292969 0 Z M 8.292969 -14.46875 "/></g></g></g><g fill="#ffffff" fill-opacity="1"><g transform="translate(282.804801, 221.999985)"><g><path d="M 10.898438 -26.59375 L 2.976562 -26.59375 L 2.976562 0 L 10.898438 0 C 28.601562 0 28.601562 -26.59375 10.898438 -26.59375 Z M 10.898438 -21.273438 C 21.238281 -21.273438 21.238281 -5.320312 10.898438 -5.320312 L 8.292969 -5.320312 L 8.292969 -21.273438 Z M 10.898438 -21.273438 "/></g></g></g><g clip-path="url(#7f5466b945)"><g clip-path="url(#54edce7895)"><g clip-path="url(#0aaa7b3831)"><path fill="#ffbd59" d="M 166.492188 176.523438 C 164.671875 174.1875 163.636719 170.859375 163.570312 167.101562 C 163.488281 162.683594 164.671875 158.007812 166.992188 153.585938 C 169.511719 148.78125 173.136719 144.828125 177.191406 142.449219 C 180.085938 140.753906 182.980469 139.96875 185.644531 140.140625 C 183.492188 142.679688 180.863281 146.902344 179.085938 153.570312 C 178.699219 155.027344 178.339844 156.550781 177.992188 158.027344 C 176.984375 162.296875 175.941406 166.714844 174.070312 170.167969 C 172.210938 173.601562 169.792969 175.632812 166.492188 176.523438 " fill-opacity="1" fill-rule="nonzero"/></g></g></g><g clip-path="url(#68b3452590)"><g clip-path="url(#6f3e6cfab1)"><g clip-path="url(#a7ff1c0eae)"><path fill="#ffbd59" d="M 179.320312 178.683594 C 183.066406 175.878906 186.949219 170.585938 188.117188 160.621094 C 188.429688 157.96875 189.285156 153.230469 190.664062 148.605469 C 191.898438 144.464844 193.269531 141.351562 194.648438 139.535156 C 197.25 141.769531 198.828125 145.394531 199.109375 149.828125 C 199.414062 154.644531 198.164062 160.003906 195.585938 164.914062 C 192.976562 169.886719 189.230469 173.988281 185.035156 176.460938 C 183.132812 177.582031 181.195312 178.332031 179.320312 178.683594 " fill-opacity="1" fill-rule="nonzero"/></g></g></g><g clip-path="url(#c4079d496e)"><g clip-path="url(#761b719bb6)"><g clip-path="url(#5a57e436e5)"><path fill="#fff9ed" d="M 178.691406 168.53125 C 176.894531 172.484375 174.324219 174.882812 170.621094 176.042969 C 168.324219 173.675781 166.867188 170.113281 166.496094 165.945312 C 166.089844 161.339844 166.976562 156.382812 169.070312 151.613281 C 171.34375 146.429688 174.828125 142.042969 178.890625 139.265625 C 182.28125 136.945312 185.824219 135.90625 189.035156 136.265625 C 186.738281 139.03125 184.097656 143.660156 182.65625 151.132812 C 182.371094 152.628906 182.113281 154.203125 181.863281 155.726562 C 181.136719 160.1875 180.386719 164.804688 178.691406 168.53125 Z M 183.6875 156.023438 C 183.933594 154.511719 184.1875 152.953125 184.472656 151.480469 C 186.152344 142.761719 189.585938 138.234375 191.484375 136.308594 L 192.601562 135.175781 L 191.0625 134.769531 C 182.570312 132.519531 172.386719 139.441406 167.378906 150.871094 C 162.867188 161.164062 163.832031 172.21875 169.730469 177.753906 L 170.105469 178.109375 L 170.605469 177.96875 C 175.085938 176.734375 178.28125 173.898438 180.371094 169.296875 C 182.167969 165.34375 182.941406 160.605469 183.6875 156.023438 " fill-opacity="1" fill-rule="nonzero"/></g></g></g><g clip-path="url(#0245f9b8a9)"><g clip-path="url(#dda50f363e)"><g clip-path="url(#c6cddf2e9d)"><g clip-path="url(#75e8930e42)"><g clip-path="url(#8fd80ad1d7)"><path fill="#fff9ed" d="M 178.796875 179.277344 C 182.894531 176.804688 187.585938 171.457031 188.128906 159.878906 C 188.253906 157.230469 188.769531 152.484375 189.8125 147.820312 C 190.855469 143.148438 192.152344 139.738281 193.582031 137.878906 C 200.117188 142.101562 201.660156 153.304688 197.03125 163.867188 C 194.769531 169.027344 191.296875 173.402344 187.257812 176.183594 C 184.453125 178.113281 181.539062 179.167969 178.796875 179.277344 Z M 201.214844 147.566406 C 200.320312 142.15625 197.699219 138.003906 193.832031 135.878906 L 193.210938 135.539062 L 192.722656 136.046875 C 188.492188 140.453125 186.558594 153.945312 186.285156 159.789062 C 185.644531 173.429688 178.992188 177.660156 175.082031 178.96875 L 172.109375 179.964844 L 175.148438 180.742188 C 183.609375 182.902344 193.742188 175.964844 198.722656 164.609375 C 201.207031 158.941406 202.09375 152.886719 201.214844 147.566406 " fill-opacity="1" fill-rule="nonzero"/></g></g></g></g></g><g fill="#ffffff" fill-opacity="1"><g transform="translate(21.369371, 264.535315)"><g><path d="M 5.335938 -13.027344 L 1.457031 -13.027344 L 1.457031 0 L 5.335938 0 C 14.007812 0 14.007812 -13.027344 5.335938 -13.027344 Z M 5.335938 -10.421875 C 10.402344 -10.421875 10.402344 -2.605469 5.335938 -2.605469 L 4.0625 -2.605469 L 4.0625 -10.421875 Z M 5.335938 -10.421875 "/></g></g></g><g fill="#ffffff" fill-opacity="1"><g transform="translate(34.189858, 264.535315)"><g><path d="M 8.199219 0 L 8.199219 -2.605469 L 4.0625 -2.605469 L 4.0625 -5.210938 L 7.488281 -5.210938 L 7.488281 -7.816406 L 4.0625 -7.816406 L 4.0625 -10.421875 L 7.980469 -10.421875 L 7.980469 -13.027344 L 1.457031 -13.027344 L 1.457031 0 Z M 8.199219 0 "/></g></g></g><g fill="#ffffff" fill-opacity="1"><g transform="translate(43.368164, 264.535315)"><g><path d="M 0.855469 -0.839844 C 2.625 0.0742188 4.246094 0.164062 4.972656 0.109375 C 7.414062 -0.0195312 8.910156 -1.675781 8.910156 -3.84375 C 8.910156 -5.921875 7.160156 -7.085938 5.136719 -7.832031 C 4.390625 -8.089844 3.753906 -8.417969 3.679688 -9.144531 C 3.625 -9.875 4.042969 -10.546875 4.972656 -10.601562 C 5.375 -10.621094 6.195312 -10.640625 7.632812 -10.054688 L 7.960938 -12.570312 C 6.285156 -13.152344 5.390625 -13.152344 4.71875 -13.117188 C 2.550781 -13.007812 1.039062 -11.332031 1.039062 -9.144531 C 1.039062 -6.960938 2.859375 -5.921875 4.902344 -5.171875 C 5.628906 -4.917969 6.195312 -4.589844 6.25 -3.84375 C 6.320312 -3.132812 5.664062 -2.585938 4.902344 -2.53125 C 4.300781 -2.476562 2.679688 -2.515625 1.183594 -3.570312 Z M 0.855469 -0.839844 "/></g></g></g><g fill="#ffffff" fill-opacity="1"><g transform="translate(53.001739, 264.535315)"><g><path d="M 4.0625 0 L 4.0625 -4.972656 L 6.578125 -4.972656 C 11.621094 -4.972656 11.640625 -13.007812 6.578125 -13.007812 L 1.457031 -13.007812 L 1.457031 0 Z M 4.0625 -7.503906 L 4.0625 -10.421875 L 6.359375 -10.421875 C 8.105469 -10.421875 8.105469 -7.503906 6.359375 -7.503906 Z M 4.0625 -7.503906 "/></g></g></g><g fill="#ffffff" fill-opacity="1"><g transform="translate(63.98292, 264.535315)"><g><path d="M 4.0625 0 L 4.0625 -13.027344 L 1.457031 -13.027344 L 1.457031 0 Z M 4.0625 0 "/></g></g></g><g fill="#ffffff" fill-opacity="1"><g transform="translate(69.519045, 264.535315)"><g><path d="M 8.199219 0 L 8.199219 -2.605469 L 4.0625 -2.605469 L 4.0625 -5.210938 L 7.488281 -5.210938 L 7.488281 -7.816406 L 4.0625 -7.816406 L 4.0625 -10.421875 L 7.980469 -10.421875 L 7.980469 -13.027344 L 1.457031 -13.027344 L 1.457031 0 Z M 8.199219 0 "/></g></g></g><g fill="#ffffff" fill-opacity="1"><g transform="translate(78.697351, 264.535315)"><g><path d="M 7.941406 0 L 10.894531 0 L 7.871094 -5.375 C 11.695312 -6.484375 11.238281 -13.027344 6.59375 -13.027344 L 1.457031 -13.027344 L 1.457031 0 L 4.0625 0 L 4.0625 -4.972656 L 5.320312 -4.972656 Z M 4.0625 -7.503906 L 4.0625 -10.421875 L 6.359375 -10.421875 C 8.125 -10.421875 8.125 -7.503906 6.359375 -7.503906 Z M 4.0625 -7.503906 "/></g></g></g><g fill="#ffffff" fill-opacity="1"><g transform="translate(89.860647, 264.535315)"><g><path d="M 6.210938 0 L 6.210938 -10.421875 L 9.453125 -10.421875 L 9.453125 -13.007812 L 0.363281 -13.007812 L 0.363281 -10.421875 L 3.605469 -10.421875 L 3.605469 0 Z M 6.210938 0 "/></g></g></g><g fill="#ffffff" fill-opacity="1"><g transform="translate(99.822024, 264.535315)"><g><path d="M 0.292969 0 L 3.242188 0 L 3.753906 -1.402344 L 8.070312 -1.402344 L 8.597656 0 L 11.53125 0 L 6.046875 -13.5 L 5.773438 -13.5 Z M 4.699219 -3.84375 L 5.921875 -7.230469 L 7.105469 -3.84375 Z M 4.699219 -3.84375 "/></g></g></g><g fill="#ffffff" fill-opacity="1"><g transform="translate(111.713755, 264.535315)"><g/></g></g><g fill="#ffffff" fill-opacity="1"><g transform="translate(116.885658, 264.535315)"><g><path d="M 6.210938 0 L 6.210938 -10.421875 L 9.453125 -10.421875 L 9.453125 -13.007812 L 0.363281 -13.007812 L 0.363281 -10.421875 L 3.605469 -10.421875 L 3.605469 0 Z M 6.210938 0 "/></g></g></g><g fill="#ffffff" fill-opacity="1"><g transform="translate(126.847035, 264.535315)"><g><path d="M 10.804688 -4.535156 L 10.804688 -13.027344 L 8.214844 -13.027344 L 8.214844 -4.554688 C 8.214844 -1.820312 3.988281 -1.820312 3.988281 -4.554688 L 3.988281 -13.027344 L 1.382812 -13.027344 L 1.382812 -4.535156 C 1.382812 1.65625 10.804688 1.65625 10.804688 -4.535156 Z M 10.804688 -4.535156 "/></g></g></g><g fill="#ffffff" fill-opacity="1"><g transform="translate(139.066557, 264.535315)"><g><path d="M 0.855469 -0.839844 C 2.625 0.0742188 4.246094 0.164062 4.972656 0.109375 C 7.414062 -0.0195312 8.910156 -1.675781 8.910156 -3.84375 C 8.910156 -5.921875 7.160156 -7.085938 5.136719 -7.832031 C 4.390625 -8.089844 3.753906 -8.417969 3.679688 -9.144531 C 3.625 -9.875 4.042969 -10.546875 4.972656 -10.601562 C 5.375 -10.621094 6.195312 -10.640625 7.632812 -10.054688 L 7.960938 -12.570312 C 6.285156 -13.152344 5.390625 -13.152344 4.71875 -13.117188 C 2.550781 -13.007812 1.039062 -11.332031 1.039062 -9.144531 C 1.039062 -6.960938 2.859375 -5.921875 4.902344 -5.171875 C 5.628906 -4.917969 6.195312 -4.589844 6.25 -3.84375 C 6.320312 -3.132812 5.664062 -2.585938 4.902344 -2.53125 C 4.300781 -2.476562 2.679688 -2.515625 1.183594 -3.570312 Z M 0.855469 -0.839844 "/></g></g></g><g fill="#ffffff" fill-opacity="1"><g transform="translate(148.700133, 264.535315)"><g/></g></g><g fill="#ffffff" fill-opacity="1"><g transform="translate(153.872035, 264.535315)"><g><path d="M 0.855469 -0.839844 C 2.625 0.0742188 4.246094 0.164062 4.972656 0.109375 C 7.414062 -0.0195312 8.910156 -1.675781 8.910156 -3.84375 C 8.910156 -5.921875 7.160156 -7.085938 5.136719 -7.832031 C 4.390625 -8.089844 3.753906 -8.417969 3.679688 -9.144531 C 3.625 -9.875 4.042969 -10.546875 4.972656 -10.601562 C 5.375 -10.621094 6.195312 -10.640625 7.632812 -10.054688 L 7.960938 -12.570312 C 6.285156 -13.152344 5.390625 -13.152344 4.71875 -13.117188 C 2.550781 -13.007812 1.039062 -11.332031 1.039062 -9.144531 C 1.039062 -6.960938 2.859375 -5.921875 4.902344 -5.171875 C 5.628906 -4.917969 6.195312 -4.589844 6.25 -3.84375 C 6.320312 -3.132812 5.664062 -2.585938 4.902344 -2.53125 C 4.300781 -2.476562 2.679688 -2.515625 1.183594 -3.570312 Z M 0.855469 -0.839844 "/></g></g></g><g fill="#ffffff" fill-opacity="1"><g transform="translate(163.505611, 264.535315)"><g><path d="M 8.199219 0 L 8.199219 -2.605469 L 4.0625 -2.605469 L 4.0625 -5.210938 L 7.488281 -5.210938 L 7.488281 -7.816406 L 4.0625 -7.816406 L 4.0625 -10.421875 L 7.980469 -10.421875 L 7.980469 -13.027344 L 1.457031 -13.027344 L 1.457031 0 Z M 8.199219 0 "/></g></g></g><g fill="#ffffff" fill-opacity="1"><g transform="translate(172.683917, 264.535315)"><g><path d="M 4.0625 -7.085938 L 10.65625 0.273438 L 11.347656 0.273438 L 11.347656 -13.007812 L 8.726562 -13.007812 L 8.726562 -5.648438 L 2.148438 -13.296875 L 1.457031 -13.296875 L 1.457031 0 L 4.0625 0 Z M 4.0625 -7.085938 "/></g></g></g><g fill="#ffffff" fill-opacity="1"><g transform="translate(185.504404, 264.535315)"><g><path d="M 6.210938 0 L 6.210938 -10.421875 L 9.453125 -10.421875 L 9.453125 -13.007812 L 0.363281 -13.007812 L 0.363281 -10.421875 L 3.605469 -10.421875 L 3.605469 0 Z M 6.210938 0 "/></g></g></g><g fill="#ffffff" fill-opacity="1"><g transform="translate(195.465781, 264.535315)"><g><path d="M 4.0625 0 L 4.0625 -13.027344 L 1.457031 -13.027344 L 1.457031 0 Z M 4.0625 0 "/></g></g></g><g fill="#ffffff" fill-opacity="1"><g transform="translate(201.001916, 264.535315)"><g><path d="M 5.335938 -13.027344 L 1.457031 -13.027344 L 1.457031 0 L 5.335938 0 C 14.007812 0 14.007812 -13.027344 5.335938 -13.027344 Z M 5.335938 -10.421875 C 10.402344 -10.421875 10.402344 -2.605469 5.335938 -2.605469 L 4.0625 -2.605469 L 4.0625 -10.421875 Z M 5.335938 -10.421875 "/></g></g></g><g fill="#ffffff" fill-opacity="1"><g transform="translate(213.822403, 264.535315)"><g><path d="M 7.722656 0.183594 C 16.6875 0.183594 16.6875 -13.242188 7.722656 -13.242188 C -1.238281 -13.242188 -1.238281 0.183594 7.722656 0.183594 Z M 7.722656 -2.515625 C 2.515625 -2.515625 2.515625 -10.566406 7.722656 -10.566406 C 12.933594 -10.566406 12.933594 -2.515625 7.722656 -2.515625 Z M 7.722656 -2.515625 "/></g></g></g><g fill="#ffffff" fill-opacity="1"><g transform="translate(229.247062, 264.535315)"><g><path d="M 0.855469 -0.839844 C 2.625 0.0742188 4.246094 0.164062 4.972656 0.109375 C 7.414062 -0.0195312 8.910156 -1.675781 8.910156 -3.84375 C 8.910156 -5.921875 7.160156 -7.085938 5.136719 -7.832031 C 4.390625 -8.089844 3.753906 -8.417969 3.679688 -9.144531 C 3.625 -9.875 4.042969 -10.546875 4.972656 -10.601562 C 5.375 -10.621094 6.195312 -10.640625 7.632812 -10.054688 L 7.960938 -12.570312 C 6.285156 -13.152344 5.390625 -13.152344 4.71875 -13.117188 C 2.550781 -13.007812 1.039062 -11.332031 1.039062 -9.144531 C 1.039062 -6.960938 2.859375 -5.921875 4.902344 -5.171875 C 5.628906 -4.917969 6.195312 -4.589844 6.25 -3.84375 C 6.320312 -3.132812 5.664062 -2.585938 4.902344 -2.53125 C 4.300781 -2.476562 2.679688 -2.515625 1.183594 -3.570312 Z M 0.855469 -0.839844 "/></g></g></g><g fill="#ffffff" fill-opacity="1"><g transform="translate(238.880638, 264.535315)"><g><path d="M 3.734375 -2.003906 L 1.039062 -2.003906 L 0.273438 2.113281 L 2.3125 2.113281 Z M 3.734375 -2.003906 "/></g></g></g><g fill="#ffffff" fill-opacity="1"><g transform="translate(243.251264, 264.535315)"><g/></g></g><g fill="#ffffff" fill-opacity="1"><g transform="translate(248.423156, 264.535315)"><g><path d="M 5.335938 -13.027344 L 1.457031 -13.027344 L 1.457031 0 L 5.335938 0 C 14.007812 0 14.007812 -13.027344 5.335938 -13.027344 Z M 5.335938 -10.421875 C 10.402344 -10.421875 10.402344 -2.605469 5.335938 -2.605469 L 4.0625 -2.605469 L 4.0625 -10.421875 Z M 5.335938 -10.421875 "/></g></g></g><g fill="#ffffff" fill-opacity="1"><g transform="translate(261.243643, 264.535315)"><g><path d="M 4.0625 0 L 4.0625 -13.027344 L 1.457031 -13.027344 L 1.457031 0 Z M 4.0625 0 "/></g></g></g><g fill="#ffffff" fill-opacity="1"><g transform="translate(266.779768, 264.535315)"><g><path d="M 0.855469 -0.839844 C 2.625 0.0742188 4.246094 0.164062 4.972656 0.109375 C 7.414062 -0.0195312 8.910156 -1.675781 8.910156 -3.84375 C 8.910156 -5.921875 7.160156 -7.085938 5.136719 -7.832031 C 4.390625 -8.089844 3.753906 -8.417969 3.679688 -9.144531 C 3.625 -9.875 4.042969 -10.546875 4.972656 -10.601562 C 5.375 -10.621094 6.195312 -10.640625 7.632812 -10.054688 L 7.960938 -12.570312 C 6.285156 -13.152344 5.390625 -13.152344 4.71875 -13.117188 C 2.550781 -13.007812 1.039062 -11.332031 1.039062 -9.144531 C 1.039062 -6.960938 2.859375 -5.921875 4.902344 -5.171875 C 5.628906 -4.917969 6.195312 -4.589844 6.25 -3.84375 C 6.320312 -3.132812 5.664062 -2.585938 4.902344 -2.53125 C 4.300781 -2.476562 2.679688 -2.515625 1.183594 -3.570312 Z M 0.855469 -0.839844 "/></g></g></g><g fill="#ffffff" fill-opacity="1"><g transform="translate(276.413344, 264.535315)"><g><path d="M 7.960938 -10.421875 L 7.960938 -13.027344 L 1.457031 -13.027344 L 1.457031 0 L 4.0625 0 L 4.0625 -5.210938 L 7.378906 -5.210938 L 7.378906 -7.816406 L 4.0625 -7.816406 L 4.0625 -10.421875 Z M 7.960938 -10.421875 "/></g></g></g><g fill="#ffffff" fill-opacity="1"><g transform="translate(285.063516, 264.535315)"><g><path d="M 7.941406 0 L 10.894531 0 L 7.871094 -5.375 C 11.695312 -6.484375 11.238281 -13.027344 6.59375 -13.027344 L 1.457031 -13.027344 L 1.457031 0 L 4.0625 0 L 4.0625 -4.972656 L 5.320312 -4.972656 Z M 4.0625 -7.503906 L 4.0625 -10.421875 L 6.359375 -10.421875 C 8.125 -10.421875 8.125 -7.503906 6.359375 -7.503906 Z M 4.0625 -7.503906 "/></g></g></g><g fill="#ffffff" fill-opacity="1"><g transform="translate(296.226823, 264.535315)"><g><path d="M 10.804688 -4.535156 L 10.804688 -13.027344 L 8.214844 -13.027344 L 8.214844 -4.554688 C 8.214844 -1.820312 3.988281 -1.820312 3.988281 -4.554688 L 3.988281 -13.027344 L 1.382812 -13.027344 L 1.382812 -4.535156 C 1.382812 1.65625 10.804688 1.65625 10.804688 -4.535156 Z M 10.804688 -4.535156 "/></g></g></g><g fill="#ffffff" fill-opacity="1"><g transform="translate(308.446356, 264.535315)"><g><path d="M 6.210938 0 L 6.210938 -10.421875 L 9.453125 -10.421875 L 9.453125 -13.007812 L 0.363281 -13.007812 L 0.363281 -10.421875 L 3.605469 -10.421875 L 3.605469 0 Z M 6.210938 0 "/></g></g></g><g fill="#ffffff" fill-opacity="1"><g transform="translate(318.407733, 264.535315)"><g><path d="M 0.292969 0 L 3.242188 0 L 3.753906 -1.402344 L 8.070312 -1.402344 L 8.597656 0 L 11.53125 0 L 6.046875 -13.5 L 5.773438 -13.5 Z M 4.699219 -3.84375 L 5.921875 -7.230469 L 7.105469 -3.84375 Z M 4.699219 -3.84375 "/></g></g></g><g fill="#ffffff" fill-opacity="1"><g transform="translate(330.299464, 264.535315)"><g/></g></g><g fill="#ffffff" fill-opacity="1"><g transform="translate(335.471356, 264.535315)"><g><path d="M 8.199219 0 L 8.199219 -2.605469 L 4.0625 -2.605469 L 4.0625 -5.210938 L 7.488281 -5.210938 L 7.488281 -7.816406 L 4.0625 -7.816406 L 4.0625 -10.421875 L 7.980469 -10.421875 L 7.980469 -13.027344 L 1.457031 -13.027344 L 1.457031 0 Z M 8.199219 0 "/></g></g></g><g fill="#ffffff" fill-opacity="1"><g transform="translate(344.649661, 264.535315)"><g><path d="M 1.457031 -13.027344 L 1.457031 0 L 8.199219 0 L 8.199219 -2.605469 L 4.0625 -2.605469 L 4.0625 -13.027344 Z M 1.457031 -13.027344 "/></g></g></g><g fill="#ffffff" fill-opacity="1"><g transform="translate(61.112196, 289.377277)"><g><path d="M 0.292969 0 L 3.242188 0 L 3.753906 -1.402344 L 8.070312 -1.402344 L 8.597656 0 L 11.53125 0 L 6.046875 -13.5 L 5.773438 -13.5 Z M 4.699219 -3.84375 L 5.921875 -7.230469 L 7.105469 -3.84375 Z M 4.699219 -3.84375 "/></g></g></g><g fill="#ffffff" fill-opacity="1"><g transform="translate(73.003927, 289.377277)"><g><path d="M 7.941406 0 L 10.894531 0 L 7.871094 -5.375 C 11.695312 -6.484375 11.238281 -13.027344 6.59375 -13.027344 L 1.457031 -13.027344 L 1.457031 0 L 4.0625 0 L 4.0625 -4.972656 L 5.320312 -4.972656 Z M 4.0625 -7.503906 L 4.0625 -10.421875 L 6.359375 -10.421875 C 8.125 -10.421875 8.125 -7.503906 6.359375 -7.503906 Z M 4.0625 -7.503906 "/></g></g></g><g fill="#ffffff" fill-opacity="1"><g transform="translate(84.167224, 289.377277)"><g><path d="M 7.722656 0.183594 C 16.6875 0.183594 16.6875 -13.242188 7.722656 -13.242188 C -1.238281 -13.242188 -1.238281 0.183594 7.722656 0.183594 Z M 7.722656 -2.515625 C 2.515625 -2.515625 2.515625 -10.566406 7.722656 -10.566406 C 12.933594 -10.566406 12.933594 -2.515625 7.722656 -2.515625 Z M 7.722656 -2.515625 "/></g></g></g><g fill="#ffffff" fill-opacity="1"><g transform="translate(99.591872, 289.377277)"><g><path d="M 7.433594 -7.503906 L 2.296875 -13.226562 L 1.457031 -13.226562 L 1.457031 0 L 4.097656 0 L 4.097656 -7.269531 L 7.433594 -3.769531 L 10.765625 -7.269531 L 10.75 0 L 13.390625 0 L 13.390625 -13.226562 L 12.570312 -13.226562 Z M 7.433594 -7.503906 "/></g></g></g><g fill="#ffffff" fill-opacity="1"><g transform="translate(114.451987, 289.377277)"><g><path d="M 0.292969 0 L 3.242188 0 L 3.753906 -1.402344 L 8.070312 -1.402344 L 8.597656 0 L 11.53125 0 L 6.046875 -13.5 L 5.773438 -13.5 Z M 4.699219 -3.84375 L 5.921875 -7.230469 L 7.105469 -3.84375 Z M 4.699219 -3.84375 "/></g></g></g><g fill="#ffffff" fill-opacity="1"><g transform="translate(126.343718, 289.377277)"><g><path d="M 3.734375 -2.003906 L 1.039062 -2.003906 L 0.273438 2.113281 L 2.3125 2.113281 Z M 3.734375 -2.003906 "/></g></g></g><g fill="#ffffff" fill-opacity="1"><g transform="translate(130.714344, 289.377277)"><g/></g></g><g fill="#ffffff" fill-opacity="1"><g transform="translate(135.886246, 289.377277)"><g><path d="M 0.855469 -0.839844 C 2.625 0.0742188 4.246094 0.164062 4.972656 0.109375 C 7.414062 -0.0195312 8.910156 -1.675781 8.910156 -3.84375 C 8.910156 -5.921875 7.160156 -7.085938 5.136719 -7.832031 C 4.390625 -8.089844 3.753906 -8.417969 3.679688 -9.144531 C 3.625 -9.875 4.042969 -10.546875 4.972656 -10.601562 C 5.375 -10.621094 6.195312 -10.640625 7.632812 -10.054688 L 7.960938 -12.570312 C 6.285156 -13.152344 5.390625 -13.152344 4.71875 -13.117188 C 2.550781 -13.007812 1.039062 -11.332031 1.039062 -9.144531 C 1.039062 -6.960938 2.859375 -5.921875 4.902344 -5.171875 C 5.628906 -4.917969 6.195312 -4.589844 6.25 -3.84375 C 6.320312 -3.132812 5.664062 -2.585938 4.902344 -2.53125 C 4.300781 -2.476562 2.679688 -2.515625 1.183594 -3.570312 Z M 0.855469 -0.839844 "/></g></g></g><g fill="#ffffff" fill-opacity="1"><g transform="translate(145.519822, 289.377277)"><g><path d="M 0.292969 0 L 3.242188 0 L 3.753906 -1.402344 L 8.070312 -1.402344 L 8.597656 0 L 11.53125 0 L 6.046875 -13.5 L 5.773438 -13.5 Z M 4.699219 -3.84375 L 5.921875 -7.230469 L 7.105469 -3.84375 Z M 4.699219 -3.84375 "/></g></g></g><g fill="#ffffff" fill-opacity="1"><g transform="translate(157.411553, 289.377277)"><g><path d="M 1.457031 0 L 6.613281 0 C 8.726562 0 10.457031 -1.730469 10.457031 -3.917969 C 10.457031 -4.9375 9.964844 -5.9375 9.109375 -6.523438 C 9.929688 -7.085938 10.273438 -8.105469 10.3125 -9.089844 C 10.367188 -11.386719 8.925781 -13.042969 6.613281 -13.042969 L 1.457031 -13.042969 Z M 4.082031 -10.4375 L 6.394531 -10.4375 C 7.140625 -10.4375 7.597656 -9.855469 7.597656 -9.125 C 7.597656 -8.417969 7.140625 -7.816406 6.394531 -7.816406 L 4.082031 -7.816406 Z M 4.082031 -5.210938 L 6.394531 -5.210938 C 7.140625 -5.210938 7.707031 -4.644531 7.707031 -3.917969 C 7.707031 -3.1875 7.140625 -2.605469 6.394531 -2.605469 L 4.082031 -2.605469 Z M 4.082031 -5.210938 "/></g></g></g><g fill="#ffffff" fill-opacity="1"><g transform="translate(168.720535, 289.377277)"><g><path d="M 7.722656 0.183594 C 16.6875 0.183594 16.6875 -13.242188 7.722656 -13.242188 C -1.238281 -13.242188 -1.238281 0.183594 7.722656 0.183594 Z M 7.722656 -2.515625 C 2.515625 -2.515625 2.515625 -10.566406 7.722656 -10.566406 C 12.933594 -10.566406 12.933594 -2.515625 7.722656 -2.515625 Z M 7.722656 -2.515625 "/></g></g></g><g fill="#ffffff" fill-opacity="1"><g transform="translate(184.145183, 289.377277)"><g><path d="M 7.941406 0 L 10.894531 0 L 7.871094 -5.375 C 11.695312 -6.484375 11.238281 -13.027344 6.59375 -13.027344 L 1.457031 -13.027344 L 1.457031 0 L 4.0625 0 L 4.0625 -4.972656 L 5.320312 -4.972656 Z M 4.0625 -7.503906 L 4.0625 -10.421875 L 6.359375 -10.421875 C 8.125 -10.421875 8.125 -7.503906 6.359375 -7.503906 Z M 4.0625 -7.503906 "/></g></g></g><g fill="#ffffff" fill-opacity="1"><g transform="translate(195.30848, 289.377277)"><g><path d="M 8.199219 0 L 8.199219 -2.605469 L 4.0625 -2.605469 L 4.0625 -5.210938 L 7.488281 -5.210938 L 7.488281 -7.816406 L 4.0625 -7.816406 L 4.0625 -10.421875 L 7.980469 -10.421875 L 7.980469 -13.027344 L 1.457031 -13.027344 L 1.457031 0 Z M 8.199219 0 "/></g></g></g><g fill="#ffffff" fill-opacity="1"><g transform="translate(204.486786, 289.377277)"><g><path d="M 0.292969 0 L 3.242188 0 L 3.753906 -1.402344 L 8.070312 -1.402344 L 8.597656 0 L 11.53125 0 L 6.046875 -13.5 L 5.773438 -13.5 Z M 4.699219 -3.84375 L 5.921875 -7.230469 L 7.105469 -3.84375 Z M 4.699219 -3.84375 "/></g></g></g><g fill="#ffffff" fill-opacity="1"><g transform="translate(216.378517, 289.377277)"><g/></g></g><g fill="#ffffff" fill-opacity="1"><g transform="translate(221.55042, 289.377277)"><g><path d="M 1.457031 -13.027344 L 1.457031 0 L 8.199219 0 L 8.199219 -2.605469 L 4.0625 -2.605469 L 4.0625 -13.027344 Z M 1.457031 -13.027344 "/></g></g></g><g fill="#ffffff" fill-opacity="1"><g transform="translate(230.528404, 289.377277)"><g><path d="M 0.292969 0 L 3.242188 0 L 3.753906 -1.402344 L 8.070312 -1.402344 L 8.597656 0 L 11.53125 0 L 6.046875 -13.5 L 5.773438 -13.5 Z M 4.699219 -3.84375 L 5.921875 -7.230469 L 7.105469 -3.84375 Z M 4.699219 -3.84375 "/></g></g></g><g fill="#ffffff" fill-opacity="1"><g transform="translate(242.420135, 289.377277)"><g/></g></g><g fill="#ffffff" fill-opacity="1"><g transform="translate(247.592048, 289.377277)"><g><path d="M 4.0625 0 L 4.0625 -4.972656 L 6.578125 -4.972656 C 11.621094 -4.972656 11.640625 -13.007812 6.578125 -13.007812 L 1.457031 -13.007812 L 1.457031 0 Z M 4.0625 -7.503906 L 4.0625 -10.421875 L 6.359375 -10.421875 C 8.105469 -10.421875 8.105469 -7.503906 6.359375 -7.503906 Z M 4.0625 -7.503906 "/></g></g></g><g fill="#ffffff" fill-opacity="1"><g transform="translate(258.573239, 289.377277)"><g><path d="M 0.292969 0 L 3.242188 0 L 3.753906 -1.402344 L 8.070312 -1.402344 L 8.597656 0 L 11.53125 0 L 6.046875 -13.5 L 5.773438 -13.5 Z M 4.699219 -3.84375 L 5.921875 -7.230469 L 7.105469 -3.84375 Z M 4.699219 -3.84375 "/></g></g></g><g fill="#ffffff" fill-opacity="1"><g transform="translate(270.46497, 289.377277)"><g><path d="M 0.855469 -0.839844 C 2.625 0.0742188 4.246094 0.164062 4.972656 0.109375 C 7.414062 -0.0195312 8.910156 -1.675781 8.910156 -3.84375 C 8.910156 -5.921875 7.160156 -7.085938 5.136719 -7.832031 C 4.390625 -8.089844 3.753906 -8.417969 3.679688 -9.144531 C 3.625 -9.875 4.042969 -10.546875 4.972656 -10.601562 C 5.375 -10.621094 6.195312 -10.640625 7.632812 -10.054688 L 7.960938 -12.570312 C 6.285156 -13.152344 5.390625 -13.152344 4.71875 -13.117188 C 2.550781 -13.007812 1.039062 -11.332031 1.039062 -9.144531 C 1.039062 -6.960938 2.859375 -5.921875 4.902344 -5.171875 C 5.628906 -4.917969 6.195312 -4.589844 6.25 -3.84375 C 6.320312 -3.132812 5.664062 -2.585938 4.902344 -2.53125 C 4.300781 -2.476562 2.679688 -2.515625 1.183594 -3.570312 Z M 0.855469 -0.839844 "/></g></g></g><g fill="#ffffff" fill-opacity="1"><g transform="translate(280.098545, 289.377277)"><g><path d="M 4.0625 0 L 4.0625 -13.027344 L 1.457031 -13.027344 L 1.457031 0 Z M 4.0625 0 "/></g></g></g><g fill="#ffffff" fill-opacity="1"><g transform="translate(285.63467, 289.377277)"><g><path d="M 10.875 -16.90625 L 7.542969 -16.90625 L 6.578125 -14.335938 L 9.035156 -14.335938 Z M 7.722656 0.183594 C 16.6875 0.183594 16.6875 -13.242188 7.722656 -13.242188 C -1.238281 -13.242188 -1.238281 0.183594 7.722656 0.183594 Z M 7.722656 -2.515625 C 2.515625 -2.515625 2.515625 -10.566406 7.722656 -10.566406 C 12.933594 -10.566406 12.933594 -2.515625 7.722656 -2.515625 Z M 7.722656 -2.515625 "/></g></g></g><g fill="#ffffff" fill-opacity="1"><g transform="translate(301.059308, 289.377277)"><g><path d="M 4.0625 -7.085938 L 10.65625 0.273438 L 11.347656 0.273438 L 11.347656 -13.007812 L 8.726562 -13.007812 L 8.726562 -5.648438 L 2.148438 -13.296875 L 1.457031 -13.296875 L 1.457031 0 L 4.0625 0 Z M 4.0625 -7.085938 "/></g></g></g></svg>