<svg xmlns="http://www.w3.org/2000/svg" xmlns:xlink="http://www.w3.org/1999/xlink" width="500" zoomAndPan="magnify" viewBox="0 0 375 374.999991" height="500" preserveAspectRatio="xMidYMid meet" version="1.0"><defs><filter x="0%" y="0%" width="100%" height="100%" id="6931c90001"><feColorMatrix values="0 0 0 0 1 0 0 0 0 1 0 0 0 0 1 0 0 0 1 0" color-interpolation-filters="sRGB"/></filter><mask id="16596e3631"><g filter="url(#6931c90001)"><rect x="-37.5" width="450" fill="#000000" y="-37.499999" height="449.999989" fill-opacity="0.7"/></g></mask><clipPath id="16816fe8f3"><path d="M 37 37 L 302 37 L 302 317 L 37 317 Z M 37 37 " clip-rule="nonzero"/></clipPath><clipPath id="656f894b36"><path d="M 88.917969 0.777344 L 314.375 76.234375 L 225.828125 340.8125 L 0.371094 265.355469 Z M 88.917969 0.777344 " clip-rule="nonzero"/></clipPath><clipPath id="a92f290b27"><path d="M 88.917969 0.777344 L 314.375 76.234375 L 225.828125 340.8125 L 0.371094 265.355469 Z M 88.917969 0.777344 " clip-rule="nonzero"/></clipPath><clipPath id="2a6c19a304"><path d="M 88.890625 0.863281 L 314.980469 76.53125 L 226.429688 341.113281 L 0.339844 265.445312 Z M 88.890625 0.863281 " clip-rule="nonzero"/></clipPath><clipPath id="169b4b80b8"><path d="M 88.890625 0.863281 L 314.644531 76.417969 L 226.125 340.90625 L 0.371094 265.351562 Z M 88.890625 0.863281 " clip-rule="nonzero"/></clipPath><clipPath id="114b4aee89"><path d="M 112 122 L 204 122 L 204 223 L 112 223 Z M 112 122 " clip-rule="nonzero"/></clipPath><clipPath id="46ebcd5741"><path d="M 88.917969 0.777344 L 314.375 76.234375 L 225.828125 340.8125 L 0.371094 265.355469 Z M 88.917969 0.777344 " clip-rule="nonzero"/></clipPath><clipPath id="c6b2b1cf03"><path d="M 88.917969 0.777344 L 314.375 76.234375 L 225.828125 340.8125 L 0.371094 265.355469 Z M 88.917969 0.777344 " clip-rule="nonzero"/></clipPath><clipPath id="a7edc58412"><rect x="0" width="316" y="0" height="341"/></clipPath><mask id="1a97ffb4d0"><g filter="url(#6931c90001)"><rect x="-37.5" width="450" fill="#000000" y="-37.499999" height="449.999989" fill-opacity="0.7"/></g></mask><clipPath id="43abecc1b6"><path d="M 8 14 L 35 14 L 35 58 L 8 58 Z M 8 14 " clip-rule="nonzero"/></clipPath><clipPath id="0a072497aa"><path d="M 24.417969 1.058594 L 61.511719 17.316406 L 38.027344 70.898438 L 0.933594 54.636719 Z M 24.417969 1.058594 " clip-rule="nonzero"/></clipPath><clipPath id="c2c8759212"><path d="M 24.417969 1.058594 L 61.511719 17.316406 L 38.027344 70.898438 L 0.933594 54.636719 Z M 24.417969 1.058594 " clip-rule="nonzero"/></clipPath><clipPath id="0b35c765f0"><path d="M 26 14 L 51 14 L 51 61 L 26 61 Z M 26 14 " clip-rule="nonzero"/></clipPath><clipPath id="969fd5f9bd"><path d="M 24.417969 1.058594 L 61.511719 17.316406 L 38.027344 70.898438 L 0.933594 54.636719 Z M 24.417969 1.058594 " clip-rule="nonzero"/></clipPath><clipPath id="d9cc953aa7"><path d="M 24.417969 1.058594 L 61.511719 17.316406 L 38.027344 70.898438 L 0.933594 54.636719 Z M 24.417969 1.058594 " clip-rule="nonzero"/></clipPath><clipPath id="d000c5c0dc"><path d="M 9 8 L 43 8 L 43 60 L 9 60 Z M 9 8 " clip-rule="nonzero"/></clipPath><clipPath id="3ba9d57402"><path d="M 24.417969 1.058594 L 61.511719 17.316406 L 38.027344 70.898438 L 0.933594 54.636719 Z M 24.417969 1.058594 " clip-rule="nonzero"/></clipPath><clipPath id="2aa0bb39cd"><path d="M 24.417969 1.058594 L 61.511719 17.316406 L 38.027344 70.898438 L 0.933594 54.636719 Z M 24.417969 1.058594 " clip-rule="nonzero"/></clipPath><clipPath id="eccc7261ad"><path d="M 18 9 L 54 9 L 54 64 L 18 64 Z M 18 9 " clip-rule="nonzero"/></clipPath><clipPath id="fea74b66a2"><path d="M 24.417969 1.058594 L 61.511719 17.316406 L 38.027344 70.898438 L 0.933594 54.636719 Z M 24.417969 1.058594 " clip-rule="nonzero"/></clipPath><clipPath id="0fa5f77182"><path d="M 24.417969 1.058594 L 61.511719 17.316406 L 38.027344 70.898438 L 0.933594 54.636719 Z M 24.417969 1.058594 " clip-rule="nonzero"/></clipPath><clipPath id="4373b9e08b"><path d="M 41.699219 8.652344 L 61.546875 17.351562 L 38.140625 70.75 L 18.292969 62.050781 Z M 41.699219 8.652344 " clip-rule="nonzero"/></clipPath><clipPath id="491cbcafa6"><path d="M 41.699219 8.652344 L 61.5 17.328125 L 38.105469 70.699219 L 18.308594 62.019531 Z M 41.699219 8.652344 " clip-rule="nonzero"/></clipPath><clipPath id="36596527df"><rect x="0" width="62" y="0" height="71"/></clipPath><mask id="4343207ade"><g filter="url(#6931c90001)"><rect x="-37.5" width="450" fill="#000000" y="-37.499999" height="449.999989" fill-opacity="0.71"/></g></mask><clipPath id="5f3ac67eef"><path d="M 13 19 L 113 19 L 113 99 L 13 99 Z M 13 19 " clip-rule="nonzero"/></clipPath><clipPath id="7ab21fa7d2"><path d="M 0.621094 45.851562 L 96.789062 0.0976562 L 125.144531 59.695312 L 28.976562 105.449219 Z M 0.621094 45.851562 " clip-rule="nonzero"/></clipPath><clipPath id="95aaee78e0"><path d="M 0.609375 45.832031 L 96.78125 0.078125 L 125.136719 59.675781 L 28.964844 105.429688 Z M 0.609375 45.832031 " clip-rule="nonzero"/></clipPath><clipPath id="b816a0f5bb"><rect x="0" width="126" y="0" height="106"/></clipPath></defs><g mask="url(#16596e3631)"><g transform="matrix(1, 0, 0, 1, 30, 34)"><g clip-path="url(#a7edc58412)"><g clip-path="url(#16816fe8f3)"><g clip-path="url(#656f894b36)"><g clip-path="url(#a92f290b27)"><g clip-path="url(#2a6c19a304)"><g clip-path="url(#169b4b80b8)"><path fill="#ffffff" d="M 139.46875 248.96875 C 122.425781 243.261719 108.589844 232.363281 99.128906 218.617188 C 109.34375 237.882812 126.667969 253.417969 148.925781 260.867188 C 165.132812 266.292969 182.167969 266.894531 198.347656 262.792969 L 213.09375 292.382812 C 188.953125 300.042969 163.089844 299.886719 138.609375 291.691406 C 108.074219 281.472656 83.34375 259.96875 68.976562 231.148438 C 54.613281 202.328125 52.328125 169.640625 62.546875 139.101562 C 72.769531 108.566406 94.269531 83.835938 123.089844 69.472656 C 151.90625 55.105469 184.597656 52.820312 215.136719 63.039062 C 239.617188 71.234375 260.363281 86.675781 275.03125 107.324219 L 245.441406 122.074219 C 234.992188 109.0625 221.023438 99.289062 204.820312 93.863281 C 182.558594 86.414062 159.375 88.394531 139.621094 97.625 C 155.449219 92.347656 173.0625 91.96875 190.105469 97.671875 C 214.070312 105.695312 231.699219 124 239.730469 146.03125 L 301.679688 115.152344 C 285.757812 83.210938 257.648438 57.34375 221.132812 45.125 C 148.097656 20.679688 69.074219 60.070312 44.628906 133.105469 C 20.1875 206.144531 59.578125 285.164062 132.613281 309.609375 C 169.132812 321.832031 207.144531 318.09375 239.085938 302.171875 L 208.207031 240.222656 C 188.527344 252.984375 163.4375 256.988281 139.46875 248.96875 " fill-opacity="1" fill-rule="nonzero"/></g></g></g></g></g><g clip-path="url(#114b4aee89)"><g clip-path="url(#46ebcd5741)"><g clip-path="url(#c6b2b1cf03)"><path fill="#ffbd59" d="M 156.605469 218.695312 C 132.710938 210.695312 119.824219 184.84375 127.820312 160.949219 C 135.816406 137.054688 161.671875 124.167969 185.566406 132.164062 C 192.535156 134.496094 198.5625 138.347656 203.414062 143.226562 C 197.472656 134.96875 188.980469 128.4375 178.601562 124.960938 C 152.289062 116.15625 123.816406 130.347656 115.007812 156.660156 C 106.203125 182.976562 120.394531 211.445312 146.710938 220.253906 C 157.089844 223.726562 167.804688 223.621094 177.515625 220.605469 C 170.707031 221.578125 163.574219 221.027344 156.605469 218.695312 " fill-opacity="1" fill-rule="nonzero"/></g></g></g></g></g></g><g mask="url(#1a97ffb4d0)"><g transform="matrix(1, 0, 0, 1, 162, 169)"><g clip-path="url(#36596527df)"><g clip-path="url(#43abecc1b6)"><g clip-path="url(#0a072497aa)"><g clip-path="url(#c2c8759212)"><path fill="#ffbd59" d="M 11.726562 57.976562 C 9.574219 55.210938 8.347656 51.273438 8.269531 46.828125 C 8.171875 41.601562 9.574219 36.070312 12.316406 30.835938 C 15.300781 25.152344 19.585938 20.472656 24.386719 17.660156 C 27.808594 15.652344 31.234375 14.722656 34.386719 14.929688 C 31.839844 17.929688 28.730469 22.925781 26.625 30.816406 C 26.167969 32.539062 25.742188 34.34375 25.332031 36.089844 C 24.140625 41.144531 22.90625 46.371094 20.691406 50.457031 C 18.492188 54.519531 15.632812 56.921875 11.726562 57.976562 " fill-opacity="1" fill-rule="nonzero"/></g></g></g><g clip-path="url(#0b35c765f0)"><g clip-path="url(#969fd5f9bd)"><g clip-path="url(#d9cc953aa7)"><path fill="#ffbd59" d="M 26.902344 60.53125 C 31.339844 57.210938 35.929688 50.953125 37.316406 39.160156 C 37.683594 36.023438 38.695312 30.414062 40.328125 24.941406 C 41.789062 20.042969 43.40625 16.363281 45.039062 14.210938 C 48.121094 16.851562 49.984375 21.140625 50.320312 26.390625 C 50.679688 32.089844 49.199219 38.429688 46.152344 44.238281 C 43.0625 50.121094 38.628906 54.972656 33.667969 57.902344 C 31.414062 59.230469 29.121094 60.117188 26.902344 60.53125 " fill-opacity="1" fill-rule="nonzero"/></g></g></g><g clip-path="url(#d000c5c0dc)"><g clip-path="url(#3ba9d57402)"><g clip-path="url(#2aa0bb39cd)"><path fill="#ffffff" d="M 26.160156 48.519531 C 24.035156 53.195312 20.992188 56.03125 16.613281 57.40625 C 13.894531 54.605469 12.171875 50.390625 11.730469 45.457031 C 11.25 40.007812 12.300781 34.144531 14.777344 28.5 C 17.464844 22.367188 21.589844 17.179688 26.398438 13.890625 C 30.40625 11.144531 34.601562 9.917969 38.402344 10.339844 C 35.683594 13.613281 32.554688 19.09375 30.851562 27.929688 C 30.511719 29.703125 30.207031 31.566406 29.914062 33.367188 C 29.054688 38.648438 28.167969 44.109375 26.160156 48.519531 Z M 32.074219 33.71875 C 32.363281 31.933594 32.664062 30.085938 33 28.34375 C 34.988281 18.027344 39.050781 12.671875 41.296875 10.394531 L 42.621094 9.054688 L 40.796875 8.570312 C 30.75 5.90625 18.703125 14.097656 12.773438 27.625 C 7.4375 39.800781 8.578125 52.882812 15.554688 59.429688 L 16.003906 59.851562 L 16.59375 59.6875 C 21.894531 58.226562 25.675781 54.867188 28.148438 49.425781 C 30.277344 44.746094 31.1875 39.140625 32.074219 33.71875 " fill-opacity="1" fill-rule="nonzero"/></g></g></g><g clip-path="url(#eccc7261ad)"><g clip-path="url(#fea74b66a2)"><g clip-path="url(#0fa5f77182)"><g clip-path="url(#4373b9e08b)"><g clip-path="url(#491cbcafa6)"><path fill="#ffffff" d="M 26.285156 61.234375 C 31.136719 58.3125 36.6875 51.980469 37.328125 38.28125 C 37.476562 35.148438 38.082031 29.535156 39.316406 24.011719 C 40.554688 18.484375 42.085938 14.453125 43.78125 12.25 C 51.511719 17.246094 53.335938 30.503906 47.859375 43.003906 C 45.183594 49.109375 41.078125 54.285156 36.296875 57.574219 C 32.980469 59.855469 29.53125 61.101562 26.285156 61.234375 Z M 52.808594 23.710938 C 51.753906 17.3125 48.652344 12.398438 44.074219 9.882812 L 43.339844 9.480469 L 42.761719 10.085938 C 37.757812 15.296875 35.46875 31.261719 35.144531 38.175781 C 34.390625 54.316406 26.515625 59.320312 21.890625 60.871094 L 18.375 62.050781 L 21.96875 62.964844 C 31.980469 65.519531 43.972656 57.316406 49.859375 43.878906 C 52.800781 37.171875 53.847656 30.007812 52.808594 23.710938 " fill-opacity="1" fill-rule="nonzero"/></g></g></g></g></g></g></g></g><g mask="url(#4343207ade)"><g transform="matrix(1, 0, 0, 1, 68, 0)"><g clip-path="url(#b816a0f5bb)"><g clip-path="url(#5f3ac67eef)"><g clip-path="url(#7ab21fa7d2)"><g clip-path="url(#95aaee78e0)"><path fill="#ffbd59" d="M 25.4375 77.9375 C 24.757812 77.625 24.730469 77.683594 25.34375 78.089844 C 29.628906 81 35.5 82.679688 40.363281 83.371094 C 40.445312 83.386719 40.484375 83.347656 40.476562 83.261719 C 39.664062 73.988281 36.324219 65.457031 30.480469 58.003906 C 30.171875 57.621094 29.859375 57.429688 29.539062 57.417969 C 28.238281 57.382812 26.941406 57.394531 25.632812 57.46875 C 24.753906 57.507812 24.652344 56.949219 24.402344 56.269531 C 23.667969 54.148438 23.117188 52.335938 22.800781 50.816406 C 22.605469 49.871094 23.375 49.632812 24.164062 49.515625 C 26.066406 49.226562 27.957031 49.070312 29.882812 49.027344 C 30.941406 49.007812 31.183594 49.753906 31.3125 50.714844 C 31.554688 52.269531 31.746094 53.832031 31.9375 55.394531 C 31.945312 55.484375 31.988281 55.535156 32.046875 55.582031 C 32.527344 55.976562 33.019531 56.347656 33.519531 56.707031 C 41.027344 62.105469 49.125 66.417969 57.804688 69.652344 C 57.851562 69.667969 57.882812 69.699219 57.902344 69.742188 C 57.972656 69.847656 57.949219 69.988281 57.847656 70.054688 C 57.808594 70.082031 57.757812 70.089844 57.703125 70.09375 C 57.058594 70.050781 56.355469 69.925781 55.644531 69.707031 C 49.492188 67.773438 43.519531 65.21875 37.730469 62.011719 C 37.484375 61.878906 37.292969 61.75 37.175781 61.613281 L 37.171875 61.605469 C 37.148438 61.597656 37.113281 61.597656 37.105469 61.621094 L 37.109375 61.628906 C 37.097656 61.644531 37.089844 61.664062 37.085938 61.695312 C 37.074219 61.707031 37.078125 61.722656 37.085938 61.738281 C 41.792969 65.808594 47.996094 68.609375 53.929688 70.695312 C 55.46875 71.230469 56.890625 71.628906 58.175781 71.898438 C 58.257812 71.921875 58.316406 71.886719 58.324219 71.789062 C 59.769531 60.121094 57.566406 48.460938 53.953125 36.972656 C 53.699219 36.167969 53.421875 35.929688 52.617188 35.625 C 50.601562 34.828125 48.582031 34.054688 46.574219 33.273438 C 45.628906 32.90625 45.632812 31.867188 45.945312 30.875 C 46.703125 28.53125 47.480469 26.1875 48.261719 23.847656 C 48.546875 23.023438 49.089844 22.765625 49.910156 23.066406 C 53.90625 24.515625 56.433594 25.5 57.464844 26.007812 C 58.839844 26.667969 58.34375 27.664062 57.894531 28.964844 C 57.300781 30.722656 56.671875 32.492188 56.054688 34.246094 C 55.902344 34.65625 55.945312 35.050781 56.171875 35.414062 C 62.4375 45.378906 70.765625 54.859375 80.878906 61.058594 C 80.976562 61.105469 81.039062 61.082031 81.070312 60.996094 C 83.976562 54.597656 85.746094 47.890625 86.382812 40.855469 C 86.453125 40.039062 86.398438 39.109375 86.414062 38.257812 C 86.414062 38.222656 86.40625 38.199219 86.382812 38.191406 C 86.382812 38.191406 86.378906 38.183594 86.363281 38.191406 C 86.34375 38.191406 86.332031 38.203125 86.339844 38.21875 C 85.515625 43.242188 84.296875 48.164062 82.660156 52.992188 C 81.972656 55.054688 81.140625 57.554688 80.003906 59.410156 C 79.847656 59.660156 79.699219 59.691406 79.535156 59.539062 C 79.472656 59.488281 79.445312 59.394531 79.480469 59.316406 C 82.5625 50.117188 84.5625 40.195312 84.707031 30.457031 C 84.691406 30.390625 84.679688 30.324219 84.621094 30.28125 C 82.800781 28.460938 81.589844 27.191406 80.992188 26.476562 C 80.226562 25.519531 80.8125 24.898438 81.527344 24.082031 C 82.734375 22.726562 84.019531 21.445312 85.394531 20.25 C 85.8125 19.894531 86.371094 19.753906 86.738281 20.214844 C 87.445312 21.117188 88.597656 22.730469 90.171875 25.074219 C 90.457031 25.480469 90.597656 25.855469 90.617188 26.203125 C 90.628906 26.269531 90.59375 26.351562 90.546875 26.402344 C 89.597656 27.421875 88.703125 28.472656 87.839844 29.554688 C 87.46875 30.015625 87.472656 30.410156 87.585938 30.953125 C 89.457031 39.832031 94.316406 48.109375 100.964844 54.441406 L 100.96875 54.449219 C 101.023438 54.488281 101.109375 54.472656 101.140625 54.421875 L 101.15625 54.414062 C 103.734375 49.644531 106.082031 44.578125 106.492188 39.148438 L 106.488281 39.140625 C 106.5 39.128906 106.476562 39.117188 106.460938 39.125 C 106.441406 39.125 106.425781 39.125 106.390625 39.132812 C 106.371094 39.132812 106.375 39.140625 106.367188 39.160156 C 105.257812 43.816406 103.632812 48.121094 101.472656 52.078125 C 101.316406 52.363281 101.046875 52.601562 100.652344 52.78125 C 100.574219 52.808594 100.496094 52.761719 100.464844 52.695312 L 100.476562 52.679688 C 100.425781 52.492188 100.457031 52.289062 100.558594 52.035156 C 102.980469 46.246094 104.757812 40.25 105.890625 34.0625 C 105.910156 33.949219 105.890625 33.832031 105.839844 33.726562 C 105.179688 32.570312 104.523438 31.378906 103.851562 30.164062 C 103.496094 29.492188 103.578125 28.972656 104.117188 28.597656 C 105.34375 27.746094 106.570312 26.890625 107.796875 26.027344 C 108.792969 25.335938 109.21875 25.773438 109.636719 26.734375 C 110.328125 28.296875 111.015625 29.789062 111.722656 31.195312 C 111.71875 31.1875 111.722656 31.195312 111.722656 31.195312 C 111.898438 31.5625 111.757812 31.996094 111.402344 32.175781 L 111.386719 32.183594 C 110.414062 32.644531 109.457031 33.109375 108.53125 33.558594 C 107.921875 33.859375 107.964844 34.261719 107.980469 34.941406 C 108 43.289062 108.878906 51.539062 110.609375 59.699219 C 110.628906 59.78125 110.585938 59.839844 110.5 59.851562 C 97.644531 62.210938 85.21875 65.855469 73.175781 70.839844 C 72.976562 70.925781 72.75 70.84375 72.644531 70.65625 C 70.972656 67.371094 69.207031 64.164062 67.324219 61.015625 C 67.179688 60.792969 67.011719 60.589844 66.816406 60.414062 C 66.726562 60.339844 66.683594 60.359375 66.679688 60.480469 C 66.695312 60.8125 66.734375 61.097656 66.8125 61.335938 C 68.101562 64.699219 69.464844 68.027344 70.949219 71.304688 C 71.199219 71.863281 70.820312 71.992188 70.351562 72.242188 C 59.332031 78.109375 48.039062 85.875 38.621094 94.105469 C 38.578125 94.136719 38.542969 94.132812 38.519531 94.089844 C 33.066406 87.335938 26.953125 81.246094 20.199219 75.808594 C 20.113281 75.746094 20.066406 75.726562 20.023438 75.746094 L 16.449219 77.382812 C 16.109375 77.523438 15.734375 77.390625 15.578125 77.0625 L 13.101562 72.011719 C 13.09375 71.996094 13.097656 71.960938 13.085938 71.9375 C 12.90625 71.484375 13.128906 70.953125 13.597656 70.777344 C 13.613281 70.769531 13.644531 70.753906 13.675781 70.75 L 18.53125 69.40625 C 18.949219 69.285156 19.398438 69.492188 19.589844 69.890625 L 19.621094 69.960938 C 20.09375 71.222656 20.578125 72.433594 21.050781 73.585938 C 21.25 74.042969 21.328125 74.164062 21.769531 74.398438 C 27.179688 77.308594 32.8125 79.652344 38.695312 81.410156 C 38.933594 81.488281 39.117188 81.601562 39.207031 81.75 L 39.21875 81.773438 C 39.285156 81.910156 39.21875 82.078125 39.082031 82.144531 C 39.039062 82.164062 39.003906 82.171875 38.949219 82.171875 C 37.960938 82.105469 37.003906 81.984375 36.015625 81.71875 C 32.28125 80.703125 28.742188 79.4375 25.4375 77.933594 M 112.03125 65.699219 C 98.269531 70.28125 84.878906 76.257812 71.847656 82.566406 C 62.476562 87.109375 53.355469 92.070312 44.46875 97.476562 C 43.953125 97.785156 43.019531 98.449219 42.261719 98.859375 C 42.183594 98.894531 42.140625 98.875 42.09375 98.816406 L 38.867188 94.621094 C 38.804688 94.523438 38.804688 94.449219 38.902344 94.386719 C 52.417969 84.226562 67.023438 75.242188 82.433594 69.066406 C 91.085938 65.601562 100.523438 62.660156 110.710938 60.25 C 110.792969 60.226562 110.839844 60.25 110.859375 60.332031 L 112.117188 65.558594 C 112.125 65.617188 112.082031 65.683594 112.035156 65.699219 Z M 112.03125 65.699219 " fill-opacity="1" fill-rule="evenodd"/></g></g></g></g></g></g></svg>