<svg xmlns="http://www.w3.org/2000/svg" xmlns:xlink="http://www.w3.org/1999/xlink" width="500" height="500" version="1.0" viewBox="0 0 375 375"><defs><path id="reuse-0" d="m66.7 53.3 155.7 52-61.2 182.9L5.5 236Zm0 0"/><path id="reuse-1" fill-opacity=".7" d="M-37.5-37.5h450v450h-450z"/><path id="reuse-2" d="m20.2.7 31.6 13.9L32 59.9.3 46.1Zm0 0"/><path id="reuse-3" d="M1 31.9 67.2.3l19.6 41.3-66.3 31.6Zm0 0"/></defs><defs><clipPath id="b"><path d="M31 78h183v194H31Zm0 0"/></clipPath><clipPath id="c"><use xlink:href="#reuse-0"/></clipPath><clipPath id="d"><use xlink:href="#reuse-0"/></clipPath><clipPath id="e"><path d="m66.6 53.3 156.2 52.3-61.1 182.8L5.5 236Zm0 0"/></clipPath><clipPath id="f"><path d="m66.6 53.3 156 52.2-61.2 182.7L5.5 236Zm0 0"/></clipPath><clipPath id="g"><path d="M82 137h64v70H82Zm0 0"/></clipPath><clipPath id="h"><use xlink:href="#reuse-0"/></clipPath><clipPath id="i"><use xlink:href="#reuse-0"/></clipPath><clipPath id="l"><path d="M6 12h23v37H6Zm0 0"/></clipPath><clipPath id="m"><use xlink:href="#reuse-2"/></clipPath><clipPath id="n"><use xlink:href="#reuse-2"/></clipPath><clipPath id="o"><path d="M22 11h21v40H22Zm0 0"/></clipPath><clipPath id="p"><use xlink:href="#reuse-2"/></clipPath><clipPath id="q"><use xlink:href="#reuse-2"/></clipPath><clipPath id="r"><path d="M7 6h29v45H7Zm0 0"/></clipPath><clipPath id="s"><use xlink:href="#reuse-2"/></clipPath><clipPath id="t"><use xlink:href="#reuse-2"/></clipPath><clipPath id="u"><path d="M15 7h30v47H15Zm0 0"/></clipPath><clipPath id="v"><use xlink:href="#reuse-2"/></clipPath><clipPath id="w"><use xlink:href="#reuse-2"/></clipPath><clipPath id="x"><path d="m34.8 7.1 16.8 7.4-19.8 45.1L15 52.3Zm0 0"/></clipPath><clipPath id="y"><path d="m34.8 7.1 16.8 7.4-19.8 45L15 52.3Zm0 0"/></clipPath><clipPath id="k"><path d="M0 0h52v60H0z"/></clipPath><clipPath id="B"><path d="M9 13h69v56H9Zm0 0"/></clipPath><clipPath id="C"><use xlink:href="#reuse-3"/></clipPath><clipPath id="D"><use xlink:href="#reuse-3"/></clipPath><clipPath id="A"><path d="M0 0h88v73H0z"/></clipPath><mask id="j"><g filter="url(#a)"><use xlink:href="#reuse-1" fill-opacity=".7"/></g></mask><mask id="z"><g filter="url(#a)"><use xlink:href="#reuse-1" fill-opacity=".7"/></g></mask><filter id="a" width="100%" height="100%" x="0%" y="0%"><feColorMatrix color-interpolation-filters="sRGB" values="0 0 0 0 1 0 0 0 0 1 0 0 0 0 1 0 0 0 1 0"/></filter></defs><g clip-path="url(#b)"><g clip-path="url(#c)"><g clip-path="url(#d)"><g clip-path="url(#e)"><g clip-path="url(#f)"><path fill="#fff" d="M101.6 224.7a54.9 54.9 0 0 1-27.9-21 60.6 60.6 0 0 0 68.6 30.6l10.1 20.4a82.6 82.6 0 0 1-51.4-.5c-21.1-7-38.2-21.9-48.1-41.8a82.7 82.7 0 0 1-4.5-63.6c7.1-21 22-38.2 41.9-48.1a82.8 82.8 0 0 1 105 26.2L174.7 137a60.4 60.4 0 0 0-73.1-16.8 54.9 54.9 0 0 1 69.1 33.4l42.8-21.3a96.3 96.3 0 1 0-43.2 129.2l-21.3-42.8a55 55 0 0 1-47.5 6"/></g></g></g></g></g><g clip-path="url(#g)"><g clip-path="url(#h)"><g clip-path="url(#i)"><path fill="#fff" d="M113.4 203.8a31.5 31.5 0 1 1 32.4-52.1 34.6 34.6 0 0 0-61.1 9.2 34.7 34.7 0 0 0 43.2 44.2c-4.7.7-9.7.3-14.5-1.3"/></g></g></g><path fill="#fff" d="m153 181.1.6-5.4a13 13 0 0 0-5.2-1c-18 0-18 27 0 27a17 17 0 0 0 5.8-1.2l-.7-5.5c-1 .5-2.8 1.2-5.1 1.2-10.6 0-10.6-16.2 0-16.2a9 9 0 0 1 4.6 1.1ZM222.6 180.3V175h-13.2v26.5h5.3V191h6.7v-5.3h-6.7v-5.3ZM250.2 180.3V175H237v26.5h5.3V191h6.7v-5.3h-6.7v-5.3ZM278.3 201.5v-5.3H270V191h7v-5.3h-7v-5.3h8V175h-13.4v26.5ZM307 201.5v-5.3h-8.5V191h7v-5.3h-7v-5.3h8V175h-13.3v26.5ZM187.2 226.7v26.6H201V248h-8.5v-21.3ZM213 253.3h6.1l1-2.9h8.9l1 2.9h6l-11.2-27.6h-.5Zm9-7.9 2.6-6.9 2.4 7ZM255 238.8l13.5 15h1.4v-27h-5.4v15L251.1 226h-1.4v27.2h5.3ZM293.7 226.7h-8v26.6h8c17.7 0 17.7-26.6 0-26.6Zm0 5.3c10.3 0 10.3 16 0 16h-2.6v-16Zm0 0"/><g mask="url(#j)"><g clip-path="url(#k)" transform="translate(157 159)"><g clip-path="url(#l)"><g clip-path="url(#m)"><g clip-path="url(#n)"><path fill="#ffbd59" d="M9.5 48.8a15.8 15.8 0 0 1-3-9.4c0-4.4 1.2-9.1 3.5-13.5a28 28 0 0 1 10.2-11.2 15 15 0 0 1 8.4-2.3A34 34 0 0 0 22.1 26L21 30.3c-1 4.3-2 8.7-4 12.2a11.9 11.9 0 0 1-7.5 6.3"/></g></g></g><g clip-path="url(#o)"><g clip-path="url(#p)"><g clip-path="url(#q)"><path fill="#ffbd59" d="M22.3 51c3.8-2.8 7.6-8.1 8.8-18 .3-2.7 1.2-7.5 2.6-12.1 1.2-4.1 2.6-7.3 4-9C40.1 14 41.7 17.6 42 22c.3 4.8-1 10.2-3.5 15.1A29 29 0 0 1 28 48.8a17.8 17.8 0 0 1-5.7 2.2"/></g></g></g><g clip-path="url(#r)"><g clip-path="url(#s)"><g clip-path="url(#t)"><path fill="#fff" d="M21.7 40.8c-1.8 4-4.4 6.4-8 7.5-2.4-2.3-3.8-5.9-4.2-10-.4-4.7.5-9.6 2.6-14.4 2.2-5.2 5.7-9.6 9.8-12.3 3.4-2.4 7-3.4 10.1-3-2.3 2.7-4.9 7.4-6.3 14.8l-.8 4.6c-.8 4.5-1.5 9.1-3.2 12.8Zm5-12.5.8-4.5a28.9 28.9 0 0 1 7-15.2l1.1-1.1-1.5-.4c-8.5-2.3-18.7 4.6-23.7 16-4.5 10.4-3.6 21.4 2.3 27l.4.3.5-.1c4.5-1.3 7.7-4.1 9.8-8.7 1.8-4 2.5-8.7 3.3-13.3"/></g></g></g><g clip-path="url(#u)"><g clip-path="url(#v)"><g clip-path="url(#w)"><g clip-path="url(#x)"><g clip-path="url(#y)"><path fill="#fff" d="M21.8 51.6c4-2.5 8.8-7.9 9.3-19.4.2-2.7.7-7.4 1.7-12 1-4.8 2.4-8.2 3.8-10 6.5 4.2 8 15.4 3.4 26a29.2 29.2 0 0 1-9.7 12.3c-2.8 2-5.8 3-8.5 3Zm22.4-31.7c-.9-5.4-3.5-9.6-7.4-11.7l-.6-.4-.5.5c-4.2 4.4-6.1 18-6.4 23.8C28.6 45.7 22 50 18 51.3l-3 1 3 .7c8.5 2.2 18.6-4.7 23.6-16a30.8 30.8 0 0 0 2.5-17.1"/></g></g></g></g></g></g></g><path fill="#fff" d="M48.6 303.5c2 1 3.6 1 4.4 1 2.6-.2 4.1-2 4.1-4.2s-1.8-3.4-4-4.2c-.7-.3-1.4-.6-1.5-1.4 0-.8.4-1.5 1.4-1.5.4 0 1.3 0 2.8.6l.3-2.7a8.1 8.1 0 0 0-3.4-.6 4 4 0 0 0-3.9 4.2c0 2.3 2 3.4 4.1 4.2.8.3 1.4.6 1.4 1.4.1.8-.6 1.3-1.4 1.4-.6 0-2.3 0-4-1.1ZM62.2 304.4v-13.8h-2.8v13.8ZM72.4 304.4v-2.8H68V299h3.6V296H68v-2.7h4.2v-2.8h-7v13.8ZM77.7 296.9l7 7.7h.7v-14h-2.8v7.8l-7-8H75v14h2.7ZM93.5 304.4v-11h3.4v-2.8h-9.6v2.8h3.4v11ZM106.1 304.4v-2.8h-4.4V299h3.6V296h-3.6v-2.7h4.2v-2.8h-7v13.8ZM117.5 304.4h2.7v-6.2l4.8-7.6h-3.3l-2.8 4.7-2.9-4.7h-3.3l4.8 7.6ZM131.4 303.5c1.9 1 3.6 1 4.4 1 2.5-.2 4.1-2 4.1-4.2s-1.8-3.4-4-4.2c-.8-.3-1.4-.6-1.5-1.4 0-.8.4-1.5 1.4-1.5.4 0 1.2 0 2.8.6l.3-2.7a8.1 8.1 0 0 0-3.4-.6 4 4 0 0 0-3.9 4.2c0 2.3 2 3.4 4 4.2.8.3 1.4.6 1.5 1.4 0 .8-.6 1.3-1.4 1.4-.7 0-2.4 0-4-1.1ZM141 304.4h3l.6-1.5h4.6l.5 1.5h3.1L147 290h-.2Zm4.6-4.1 1.3-3.6 1.3 3.6ZM154.7 304.4h5.5a4 4 0 0 0 4-4.2c0-1-.5-2.1-1.4-2.7.9-.6 1.2-1.7 1.3-2.7 0-2.5-1.5-4.2-4-4.2h-5.4Zm2.8-11h2.5c.7 0 1.2.6 1.2 1.3 0 .8-.5 1.4-1.2 1.4h-2.5Zm0 5.5h2.5c.7 0 1.3.6 1.3 1.3 0 .8-.6 1.4-1.3 1.4h-2.5Zm0 0"/><path fill="#fff" d="M173.3 304.5c9.4 0 9.4-14.1 0-14.1-9.5 0-9.5 14.1 0 14.1Zm0-2.8c-5.5 0-5.5-8.5 0-8.5s5.5 8.5 0 8.5ZM189.8 304.4h3.1l-3.2-5.7c4-1.2 3.6-8-1.3-8h-5.5v13.7h2.8V299h1.3Zm-4.1-8v-3h2.4c1.9 0 1.9 3 0 3ZM201.8 304.4v-2.8h-4.3V299h3.6V296h-3.6v-2.7h4.1v-2.8h-6.9v13.8ZM203.2 304.4h3l.6-1.5h4.6l.5 1.5h3.1l-5.8-14.3h-.3Zm4.6-4.1 1.3-3.6 1.3 3.6ZM222.4 290.6v13.8h7.1v-2.8h-4.4v-11ZM230.6 304.4h3.1l.6-1.5h4.5l.6 1.5h3l-5.7-14.3h-.3Zm4.7-4.1 1.3-3.6 1.2 3.6ZM252.6 304.4V299h2.7c5.3 0 5.3-8.5 0-8.5h-5.4v13.8Zm0-8v-3h2.4c1.9 0 1.9 3 0 3ZM260.2 304.4h3.1l.6-1.5h4.5l.6 1.5h3l-5.7-14.3h-.3Zm4.7-4.1 1.3-3.6 1.2 3.6ZM273.3 303.5c2 1 3.6 1 4.4 1 2.6-.2 4.1-2 4.1-4.2s-1.8-3.4-4-4.2c-.7-.3-1.4-.6-1.5-1.4 0-.8.4-1.5 1.4-1.5.4 0 1.3 0 2.8.6l.3-2.7a8.1 8.1 0 0 0-3.4-.6 4 4 0 0 0-3.9 4.2c0 2.3 2 3.4 4.1 4.2.8.3 1.4.6 1.4 1.4.1.8-.6 1.3-1.4 1.4-.6 0-2.3 0-3.9-1.1ZM286.9 304.4v-13.8H284v13.8ZM300 286.5h-3.6l-1 2.7h2.6Zm-3.4 18c9.4 0 9.4-14.1 0-14.1-9.5 0-9.5 14.1 0 14.1Zm0-2.8c-5.5 0-5.5-8.5 0-8.5s5.5 8.5 0 8.5ZM309 296.9l7 7.7h.7v-14h-2.8v7.8l-7-8h-.6v14h2.7Zm0 0"/><g mask="url(#z)"><g clip-path="url(#A)" transform="translate(31 29)"><g clip-path="url(#B)"><g clip-path="url(#C)"><g clip-path="url(#D)"><path fill="#ffbd59" fill-rule="evenodd" d="M18 54c-.4-.2-.4-.1 0 .2a25.8 25.8 0 0 0 10.4 3.5 32.5 32.5 0 0 0-6.9-17.4c-.2-.3-.4-.4-.6-.4h-2.7c-.6 0-.7-.3-.9-.8-.5-1.5-.8-2.7-1-3.8-.2-.6.3-.8.9-.9a31 31 0 0 1 4-.3c.7 0 .8.5 1 1.2a100.1 100.1 0 0 1 .4 3.3l1 .8a71.3 71.3 0 0 0 16.8 9.2c-.5 0-1 0-1.5-.2a66.5 66.5 0 0 1-12.7-5.6c-.1 0 0 0 0 0a36.3 36.3 0 0 0 14.6 7c1-8-.5-16.1-3-24-.2-.6-.4-.8-1-1l-4.1-1.6c-.7-.2-.7-1-.5-1.6l1.6-4.9c.2-.6.6-.7 1.2-.5 2.7 1 4.5 1.6 5.2 2 1 .4.6 1.1.3 2L39.2 24v.8a55 55 0 0 0 17.3 17.7c2-4.5 3.2-9 3.7-14v-1.7s0-.1 0 0a64 64 0 0 1-2.6 10.1c-.5 1.5-1 3.2-1.8 4.5-.2.1-.3.2-.4 0v-.1a66.6 66.6 0 0 0 3.5-20l-2.5-2.7c-.5-.6 0-1 .4-1.6a30 30 0 0 1 2.7-2.7c.3-.2.7-.3 1 0a62.6 62.6 0 0 1 2.6 4.1v.2a38 38 0 0 0-2 2.1c-.2.4-.2.6-.1 1a31.8 31.8 0 0 0 9.2 16.2h.2C72 34.5 73.8 31 74 27.3H74a36 36 0 0 1-3.4 8.9c-.1.2-.3.4-.6.5H70v-.5a60.2 60.2 0 0 0 3.7-12.7l-1.4-2.4c-.2-.5-.2-.9.2-1.1l2.6-1.8c.6-.5 1-.2 1.2.5l1.5 3c0 .3 0 .6-.3.8l-2 1c-.4.1-.3.4-.3.9a83.3 83.3 0 0 0 1.7 17.2C68 43.2 59.4 45.7 51 49.2c-.1 0-.3 0-.3-.2a110 110 0 0 0-4.1-7v.6l2.9 6.9c.2.4 0 .5-.4.6a120.1 120.1 0 0 0-22 15.1 83.6 83.6 0 0 0-12.8-12.7L12 53.7c-.3 0-.5 0-.7-.2L9.6 50a.6.6 0 0 1 .4-.9l3.4-1c.3 0 .6.1.7.4a80.2 80.2 0 0 0 1.5 3.1 62.1 62.1 0 0 0 12 5.1v.3h-.1a48.3 48.3 0 0 1-9.3-3m59.8-8.4a232.9 232.9 0 0 0-46.7 22l-1.5 1-.1-.1-2.3-3c9.4-7 19.5-13.3 30.1-17.6a138 138 0 0 1 19.7-6l.8 3.6v.1Zm0 0"/></g></g></g></g></g></svg>