<svg xmlns="http://www.w3.org/2000/svg" xmlns:xlink="http://www.w3.org/1999/xlink" width="500" zoomAndPan="magnify" viewBox="0 0 375 374.999991" height="500" preserveAspectRatio="xMidYMid meet" version="1.0"><defs><g/><clipPath id="f445b46dc0"><path d="M 31 78 L 214 78 L 214 272 L 31 272 Z M 31 78 " clip-rule="nonzero"/></clipPath><clipPath id="d9144fcce3"><path d="M 66.664062 53.25 L 222.421875 105.382812 L 161.246094 288.164062 L 5.488281 236.035156 Z M 66.664062 53.25 " clip-rule="nonzero"/></clipPath><clipPath id="8dbe79f91f"><path d="M 66.664062 53.25 L 222.421875 105.382812 L 161.246094 288.164062 L 5.488281 236.035156 Z M 66.664062 53.25 " clip-rule="nonzero"/></clipPath><clipPath id="0c75d33ffc"><path d="M 66.644531 53.3125 L 222.824219 105.582031 L 161.65625 288.351562 L 5.472656 236.082031 Z M 66.644531 53.3125 " clip-rule="nonzero"/></clipPath><clipPath id="a27b42a548"><path d="M 66.644531 53.3125 L 222.59375 105.503906 L 161.445312 288.207031 L 5.496094 236.015625 Z M 66.644531 53.3125 " clip-rule="nonzero"/></clipPath><clipPath id="75c28ca607"><path d="M 82 137 L 146 137 L 146 207 L 82 207 Z M 82 137 " clip-rule="nonzero"/></clipPath><clipPath id="3b96c2bc8b"><path d="M 66.664062 53.25 L 222.421875 105.382812 L 161.246094 288.164062 L 5.488281 236.035156 Z M 66.664062 53.25 " clip-rule="nonzero"/></clipPath><clipPath id="dbb4b41de2"><path d="M 66.664062 53.25 L 222.421875 105.382812 L 161.246094 288.164062 L 5.488281 236.035156 Z M 66.664062 53.25 " clip-rule="nonzero"/></clipPath><clipPath id="23f3b261fa"><path d="M 163 171 L 186 171 L 186 208 L 163 208 Z M 163 171 " clip-rule="nonzero"/></clipPath><clipPath id="5eb9dc85b1"><path d="M 177.21875 159.71875 L 208.816406 173.570312 L 188.945312 218.90625 L 157.34375 205.054688 Z M 177.21875 159.71875 " clip-rule="nonzero"/></clipPath><clipPath id="cf690f114a"><path d="M 177.21875 159.71875 L 208.816406 173.570312 L 188.945312 218.90625 L 157.34375 205.054688 Z M 177.21875 159.71875 " clip-rule="nonzero"/></clipPath><clipPath id="ba40058056"><path d="M 179 170 L 200 170 L 200 210 L 179 210 Z M 179 170 " clip-rule="nonzero"/></clipPath><clipPath id="717ced21c8"><path d="M 177.21875 159.71875 L 208.816406 173.570312 L 188.945312 218.90625 L 157.34375 205.054688 Z M 177.21875 159.71875 " clip-rule="nonzero"/></clipPath><clipPath id="97366aad84"><path d="M 177.21875 159.71875 L 208.816406 173.570312 L 188.945312 218.90625 L 157.34375 205.054688 Z M 177.21875 159.71875 " clip-rule="nonzero"/></clipPath><clipPath id="71ed2a046d"><path d="M 164 165 L 193 165 L 193 210 L 164 210 Z M 164 165 " clip-rule="nonzero"/></clipPath><clipPath id="0f3f44c889"><path d="M 177.21875 159.71875 L 208.816406 173.570312 L 188.945312 218.90625 L 157.34375 205.054688 Z M 177.21875 159.71875 " clip-rule="nonzero"/></clipPath><clipPath id="9be8b0d43e"><path d="M 177.21875 159.71875 L 208.816406 173.570312 L 188.945312 218.90625 L 157.34375 205.054688 Z M 177.21875 159.71875 " clip-rule="nonzero"/></clipPath><clipPath id="8782a61ac1"><path d="M 172 166 L 202 166 L 202 213 L 172 213 Z M 172 166 " clip-rule="nonzero"/></clipPath><clipPath id="ba22543811"><path d="M 177.21875 159.71875 L 208.816406 173.570312 L 188.945312 218.90625 L 157.34375 205.054688 Z M 177.21875 159.71875 " clip-rule="nonzero"/></clipPath><clipPath id="eb098e7647"><path d="M 177.21875 159.71875 L 208.816406 173.570312 L 188.945312 218.90625 L 157.34375 205.054688 Z M 177.21875 159.71875 " clip-rule="nonzero"/></clipPath><clipPath id="05f9d56e43"><path d="M 191.824219 166.132812 L 208.597656 173.484375 L 188.816406 218.613281 L 172.042969 211.261719 Z M 191.824219 166.132812 " clip-rule="nonzero"/></clipPath><clipPath id="e9cf008863"><path d="M 191.824219 166.132812 L 208.558594 173.464844 L 188.785156 218.570312 L 172.054688 211.238281 Z M 191.824219 166.132812 " clip-rule="nonzero"/></clipPath><clipPath id="542b8ae5b5"><path d="M 40 42 L 109 42 L 109 98 L 40 98 Z M 40 42 " clip-rule="nonzero"/></clipPath><clipPath id="7074ffc600"><path d="M 31.917969 60.898438 L 98.289062 29.324219 L 117.945312 70.636719 L 51.574219 102.210938 Z M 31.917969 60.898438 " clip-rule="nonzero"/></clipPath><clipPath id="4513c8e5a9"><path d="M 31.910156 60.886719 L 98.28125 29.308594 L 117.9375 70.621094 L 51.566406 102.199219 Z M 31.910156 60.886719 " clip-rule="nonzero"/></clipPath></defs><g clip-path="url(#f445b46dc0)"><g clip-path="url(#d9144fcce3)"><g clip-path="url(#8dbe79f91f)"><g clip-path="url(#0c75d33ffc)"><g clip-path="url(#a27b42a548)"><path fill="#ffffff" d="M 101.582031 224.699219 C 89.8125 220.757812 80.253906 213.226562 73.714844 203.730469 C 80.773438 217.039062 92.738281 227.773438 108.117188 232.917969 C 119.3125 236.664062 131.078125 237.082031 142.253906 234.25 L 152.445312 254.6875 C 135.765625 259.980469 117.902344 259.871094 100.992188 254.210938 C 79.894531 247.152344 62.8125 232.296875 52.890625 212.390625 C 42.964844 192.480469 41.386719 169.898438 48.449219 148.804688 C 55.507812 127.710938 70.359375 110.628906 90.269531 100.703125 C 110.175781 90.78125 132.757812 89.203125 153.855469 96.261719 C 170.765625 101.921875 185.097656 112.585938 195.226562 126.851562 L 174.789062 137.042969 C 167.570312 128.054688 157.921875 121.300781 146.726562 117.554688 C 131.351562 112.410156 115.335938 113.777344 101.6875 120.152344 C 112.625 116.507812 124.789062 116.246094 136.5625 120.1875 C 153.117188 125.726562 165.296875 138.371094 170.84375 153.589844 L 213.636719 132.261719 C 202.636719 110.195312 183.222656 92.328125 157.996094 83.886719 C 107.542969 67 52.957031 94.210938 36.070312 144.664062 C 19.183594 195.117188 46.394531 249.703125 96.847656 266.589844 C 122.074219 275.03125 148.335938 272.449219 170.398438 261.453125 L 149.066406 218.660156 C 135.472656 227.472656 118.140625 230.238281 101.582031 224.699219 " fill-opacity="1" fill-rule="nonzero"/></g></g></g></g></g><g clip-path="url(#75c28ca607)"><g clip-path="url(#3b96c2bc8b)"><g clip-path="url(#dbb4b41de2)"><path fill="#ffffff" d="M 113.421875 203.785156 C 96.914062 198.261719 88.011719 180.402344 93.539062 163.894531 C 99.0625 147.390625 116.921875 138.488281 133.429688 144.011719 C 138.242188 145.625 142.40625 148.285156 145.757812 151.652344 C 141.652344 145.949219 135.785156 141.4375 128.617188 139.035156 C 110.4375 132.953125 90.769531 142.757812 84.6875 160.933594 C 78.601562 179.113281 88.40625 198.78125 106.585938 204.863281 C 113.753906 207.261719 121.15625 207.191406 127.867188 205.105469 C 123.164062 205.777344 118.234375 205.398438 113.421875 203.785156 " fill-opacity="1" fill-rule="nonzero"/></g></g></g><g fill="#ffffff" fill-opacity="1"><g transform="translate(133.067929, 201.54507)"><g><path d="M 19.898438 -20.417969 L 20.53125 -25.886719 C 18.929688 -26.59375 17.144531 -26.925781 15.285156 -26.925781 C -2.714844 -26.925781 -2.753906 0.0742188 15.285156 0.0742188 C 17.144531 0.0742188 19.488281 -0.371094 21.125 -1.042969 L 20.417969 -6.546875 C 19.414062 -6.023438 17.59375 -5.355469 15.285156 -5.355469 C 4.761719 -5.355469 4.761719 -21.570312 15.285156 -21.570312 C 17.59375 -21.570312 18.894531 -20.9375 19.898438 -20.417969 Z M 19.898438 -20.417969 "/></g></g></g><g fill="#ffffff" fill-opacity="1"><g transform="translate(165.38824, 201.54507)"><g/></g></g><g fill="#ffffff" fill-opacity="1"><g transform="translate(185.879987, 201.54507)"><g/></g></g><g fill="#ffffff" fill-opacity="1"><g transform="translate(206.380424, 201.54507)"><g><path d="M 16.253906 -21.273438 L 16.253906 -26.59375 L 2.976562 -26.59375 L 2.976562 0 L 8.292969 0 L 8.292969 -10.636719 L 15.0625 -10.636719 L 15.0625 -15.957031 L 8.292969 -15.957031 L 8.292969 -21.273438 Z M 16.253906 -21.273438 "/></g></g></g><g fill="#ffffff" fill-opacity="1"><g transform="translate(233.974251, 201.54507)"><g><path d="M 16.253906 -21.273438 L 16.253906 -26.59375 L 2.976562 -26.59375 L 2.976562 0 L 8.292969 0 L 8.292969 -10.636719 L 15.0625 -10.636719 L 15.0625 -15.957031 L 8.292969 -15.957031 L 8.292969 -21.273438 Z M 16.253906 -21.273438 "/></g></g></g><g fill="#ffffff" fill-opacity="1"><g transform="translate(261.568077, 201.54507)"><g><path d="M 16.738281 0 L 16.738281 -5.320312 L 8.292969 -5.320312 L 8.292969 -10.636719 L 15.285156 -10.636719 L 15.285156 -15.957031 L 8.292969 -15.957031 L 8.292969 -21.273438 L 16.289062 -21.273438 L 16.289062 -26.59375 L 2.976562 -26.59375 L 2.976562 0 Z M 16.738281 0 "/></g></g></g><g fill="#ffffff" fill-opacity="1"><g transform="translate(290.240235, 201.54507)"><g><path d="M 16.738281 0 L 16.738281 -5.320312 L 8.292969 -5.320312 L 8.292969 -10.636719 L 15.285156 -10.636719 L 15.285156 -15.957031 L 8.292969 -15.957031 L 8.292969 -21.273438 L 16.289062 -21.273438 L 16.289062 -26.59375 L 2.976562 -26.59375 L 2.976562 0 Z M 16.738281 0 "/></g></g></g><g fill="#ffffff" fill-opacity="1"><g transform="translate(184.220273, 253.295067)"><g><path d="M 2.976562 -26.59375 L 2.976562 0 L 16.738281 0 L 16.738281 -5.320312 L 8.292969 -5.320312 L 8.292969 -26.59375 Z M 2.976562 -26.59375 "/></g></g></g><g fill="#ffffff" fill-opacity="1"><g transform="translate(212.483407, 253.295067)"><g><path d="M 0.59375 0 L 6.621094 0 L 7.660156 -2.863281 L 16.476562 -2.863281 L 17.554688 0 L 23.542969 0 L 12.347656 -27.558594 L 11.789062 -27.558594 Z M 9.59375 -7.847656 L 12.085938 -14.765625 L 14.503906 -7.847656 Z M 9.59375 -7.847656 "/></g></g></g><g fill="#ffffff" fill-opacity="1"><g transform="translate(246.695924, 253.295067)"><g><path d="M 8.292969 -14.46875 L 21.757812 0.558594 L 23.171875 0.558594 L 23.171875 -26.554688 L 17.816406 -26.554688 L 17.816406 -11.53125 L 4.390625 -27.152344 L 2.976562 -27.152344 L 2.976562 0 L 8.292969 0 Z M 8.292969 -14.46875 "/></g></g></g><g fill="#ffffff" fill-opacity="1"><g transform="translate(282.804801, 253.295067)"><g><path d="M 10.898438 -26.59375 L 2.976562 -26.59375 L 2.976562 0 L 10.898438 0 C 28.601562 0 28.601562 -26.59375 10.898438 -26.59375 Z M 10.898438 -21.273438 C 21.238281 -21.273438 21.238281 -5.320312 10.898438 -5.320312 L 8.292969 -5.320312 L 8.292969 -21.273438 Z M 10.898438 -21.273438 "/></g></g></g><g clip-path="url(#23f3b261fa)"><g clip-path="url(#5eb9dc85b1)"><g clip-path="url(#cf690f114a)"><path fill="#ffbd59" d="M 166.492188 207.820312 C 164.671875 205.480469 163.636719 202.15625 163.570312 198.398438 C 163.488281 193.976562 164.671875 189.304688 166.992188 184.882812 C 169.511719 180.078125 173.136719 176.121094 177.191406 173.742188 C 180.085938 172.050781 182.980469 171.261719 185.644531 171.4375 C 183.492188 173.972656 180.863281 178.195312 179.085938 184.863281 C 178.699219 186.320312 178.339844 187.847656 177.992188 189.320312 C 176.984375 193.59375 175.941406 198.011719 174.070312 201.464844 C 172.210938 204.898438 169.792969 206.925781 166.492188 207.820312 " fill-opacity="1" fill-rule="nonzero"/></g></g></g><g clip-path="url(#ba40058056)"><g clip-path="url(#717ced21c8)"><g clip-path="url(#97366aad84)"><path fill="#ffbd59" d="M 179.320312 209.980469 C 183.066406 207.171875 186.949219 201.882812 188.117188 191.917969 C 188.429688 189.265625 189.285156 184.527344 190.664062 179.898438 C 191.898438 175.761719 193.269531 172.648438 194.648438 170.832031 C 197.25 173.0625 198.828125 176.6875 199.109375 181.125 C 199.414062 185.941406 198.164062 191.296875 195.585938 196.210938 C 192.976562 201.179688 189.230469 205.28125 185.035156 207.753906 C 183.132812 208.878906 181.195312 209.628906 179.320312 209.980469 " fill-opacity="1" fill-rule="nonzero"/></g></g></g><g clip-path="url(#71ed2a046d)"><g clip-path="url(#0f3f44c889)"><g clip-path="url(#9be8b0d43e)"><path fill="#ffffff" d="M 178.691406 199.828125 C 176.894531 203.777344 174.324219 206.175781 170.621094 207.335938 C 168.324219 204.96875 166.867188 201.410156 166.496094 197.238281 C 166.089844 192.632812 166.976562 187.679688 169.070312 182.90625 C 171.34375 177.722656 174.828125 173.339844 178.890625 170.558594 C 182.28125 168.238281 185.824219 167.203125 189.035156 167.558594 C 186.738281 170.328125 184.097656 174.957031 182.65625 182.425781 C 182.371094 183.925781 182.113281 185.5 181.863281 187.019531 C 181.136719 191.484375 180.386719 196.097656 178.691406 199.828125 Z M 183.6875 187.316406 C 183.933594 185.808594 184.1875 184.25 184.472656 182.777344 C 186.152344 174.054688 189.585938 169.527344 191.484375 167.605469 L 192.601562 166.472656 L 191.0625 166.0625 C 182.570312 163.8125 172.386719 170.734375 167.378906 182.167969 C 162.867188 192.457031 163.832031 203.511719 169.730469 209.046875 L 170.105469 209.402344 L 170.605469 209.265625 C 175.085938 208.03125 178.28125 205.191406 180.371094 200.59375 C 182.167969 196.636719 182.941406 191.898438 183.6875 187.316406 " fill-opacity="1" fill-rule="nonzero"/></g></g></g><g clip-path="url(#8782a61ac1)"><g clip-path="url(#ba22543811)"><g clip-path="url(#eb098e7647)"><g clip-path="url(#05f9d56e43)"><g clip-path="url(#e9cf008863)"><path fill="#ffffff" d="M 178.796875 210.570312 C 182.894531 208.101562 187.585938 202.75 188.128906 191.171875 C 188.253906 188.527344 188.769531 183.78125 189.8125 179.113281 C 190.855469 174.445312 192.152344 171.035156 193.582031 169.175781 C 200.117188 173.394531 201.660156 184.601562 197.03125 195.164062 C 194.769531 200.324219 191.296875 204.699219 187.257812 207.476562 C 184.453125 209.410156 181.539062 210.460938 178.796875 210.570312 Z M 201.214844 178.859375 C 200.320312 173.453125 197.699219 169.300781 193.832031 167.175781 L 193.210938 166.832031 L 192.722656 167.34375 C 188.492188 171.75 186.558594 185.242188 186.285156 191.085938 C 185.644531 204.722656 178.992188 208.957031 175.082031 210.265625 L 172.109375 211.261719 L 175.148438 212.035156 C 183.609375 214.195312 193.742188 207.261719 198.722656 195.90625 C 201.207031 190.234375 202.09375 184.183594 201.214844 178.859375 " fill-opacity="1" fill-rule="nonzero"/></g></g></g></g></g><g fill="#ffffff" fill-opacity="1"><g transform="translate(47.74219, 304.357802)"><g><path d="M 0.902344 -0.882812 C 2.765625 0.078125 4.476562 0.171875 5.246094 0.117188 C 7.820312 -0.0195312 9.394531 -1.769531 9.394531 -4.054688 C 9.394531 -6.246094 7.550781 -7.476562 5.417969 -8.261719 C 4.628906 -8.53125 3.957031 -8.878906 3.882812 -9.644531 C 3.824219 -10.414062 4.265625 -11.125 5.246094 -11.183594 C 5.667969 -11.203125 6.53125 -11.222656 8.050781 -10.605469 L 8.398438 -13.257812 C 6.628906 -13.875 5.6875 -13.875 4.976562 -13.835938 C 2.691406 -13.71875 1.09375 -11.953125 1.09375 -9.644531 C 1.09375 -7.339844 3.015625 -6.246094 5.167969 -5.457031 C 5.9375 -5.1875 6.53125 -4.84375 6.589844 -4.054688 C 6.667969 -3.304688 5.976562 -2.730469 5.167969 -2.671875 C 4.535156 -2.613281 2.824219 -2.652344 1.25 -3.765625 Z M 0.902344 -0.882812 "/></g></g></g><g fill="#ffffff" fill-opacity="1"><g transform="translate(57.902758, 304.357802)"><g><path d="M 4.285156 0 L 4.285156 -13.738281 L 1.539062 -13.738281 L 1.539062 0 Z M 4.285156 0 "/></g></g></g><g fill="#ffffff" fill-opacity="1"><g transform="translate(63.741727, 304.357802)"><g><path d="M 8.648438 0 L 8.648438 -2.746094 L 4.285156 -2.746094 L 4.285156 -5.496094 L 7.898438 -5.496094 L 7.898438 -8.242188 L 4.285156 -8.242188 L 4.285156 -10.992188 L 8.417969 -10.992188 L 8.417969 -13.738281 L 1.539062 -13.738281 L 1.539062 0 Z M 8.648438 0 "/></g></g></g><g fill="#ffffff" fill-opacity="1"><g transform="translate(73.422112, 304.357802)"><g><path d="M 4.285156 -7.476562 L 11.242188 0.289062 L 11.972656 0.289062 L 11.972656 -13.71875 L 9.203125 -13.71875 L 9.203125 -5.957031 L 2.265625 -14.027344 L 1.539062 -14.027344 L 1.539062 0 L 4.285156 0 Z M 4.285156 -7.476562 "/></g></g></g><g fill="#ffffff" fill-opacity="1"><g transform="translate(86.943924, 304.357802)"><g><path d="M 6.550781 0 L 6.550781 -10.992188 L 9.972656 -10.992188 L 9.972656 -13.71875 L 0.382812 -13.71875 L 0.382812 -10.992188 L 3.804688 -10.992188 L 3.804688 0 Z M 6.550781 0 "/></g></g></g><g fill="#ffffff" fill-opacity="1"><g transform="translate(97.450217, 304.357802)"><g><path d="M 8.648438 0 L 8.648438 -2.746094 L 4.285156 -2.746094 L 4.285156 -5.496094 L 7.898438 -5.496094 L 7.898438 -8.242188 L 4.285156 -8.242188 L 4.285156 -10.992188 L 8.417969 -10.992188 L 8.417969 -13.738281 L 1.539062 -13.738281 L 1.539062 0 Z M 8.648438 0 "/></g></g></g><g fill="#ffffff" fill-opacity="1"><g transform="translate(107.130602, 304.357802)"><g/></g></g><g fill="#ffffff" fill-opacity="1"><g transform="translate(112.585428, 304.357802)"><g><path d="M 4.898438 0 L 7.628906 0 L 7.628906 -6.1875 L 12.433594 -13.738281 L 9.070312 -13.738281 L 6.265625 -9.011719 L 3.457031 -13.738281 L 0.117188 -13.738281 L 4.898438 -6.1875 Z M 4.898438 0 "/></g></g></g><g fill="#ffffff" fill-opacity="1"><g transform="translate(125.050847, 304.357802)"><g/></g></g><g fill="#ffffff" fill-opacity="1"><g transform="translate(130.505673, 304.357802)"><g><path d="M 0.902344 -0.882812 C 2.765625 0.078125 4.476562 0.171875 5.246094 0.117188 C 7.820312 -0.0195312 9.394531 -1.769531 9.394531 -4.054688 C 9.394531 -6.246094 7.550781 -7.476562 5.417969 -8.261719 C 4.628906 -8.53125 3.957031 -8.878906 3.882812 -9.644531 C 3.824219 -10.414062 4.265625 -11.125 5.246094 -11.183594 C 5.667969 -11.203125 6.53125 -11.222656 8.050781 -10.605469 L 8.398438 -13.257812 C 6.628906 -13.875 5.6875 -13.875 4.976562 -13.835938 C 2.691406 -13.71875 1.09375 -11.953125 1.09375 -9.644531 C 1.09375 -7.339844 3.015625 -6.246094 5.167969 -5.457031 C 5.9375 -5.1875 6.53125 -4.84375 6.589844 -4.054688 C 6.667969 -3.304688 5.976562 -2.730469 5.167969 -2.671875 C 4.535156 -2.613281 2.824219 -2.652344 1.25 -3.765625 Z M 0.902344 -0.882812 "/></g></g></g><g fill="#ffffff" fill-opacity="1"><g transform="translate(140.666241, 304.357802)"><g><path d="M 0.308594 0 L 3.421875 0 L 3.957031 -1.480469 L 8.511719 -1.480469 L 9.070312 0 L 12.164062 0 L 6.378906 -14.238281 L 6.089844 -14.238281 Z M 4.957031 -4.054688 L 6.246094 -7.628906 L 7.492188 -4.054688 Z M 4.957031 -4.054688 "/></g></g></g><g fill="#ffffff" fill-opacity="1"><g transform="translate(153.208484, 304.357802)"><g><path d="M 1.539062 0 L 6.976562 0 C 9.203125 0 11.03125 -1.824219 11.03125 -4.132812 C 11.03125 -5.207031 10.511719 -6.265625 9.609375 -6.878906 C 10.472656 -7.476562 10.835938 -8.550781 10.875 -9.589844 C 10.933594 -12.007812 9.414062 -13.757812 6.976562 -13.757812 L 1.539062 -13.757812 Z M 4.304688 -11.011719 L 6.746094 -11.011719 C 7.53125 -11.011719 8.011719 -10.394531 8.011719 -9.625 C 8.011719 -8.878906 7.53125 -8.242188 6.746094 -8.242188 L 4.304688 -8.242188 Z M 4.304688 -5.496094 L 6.746094 -5.496094 C 7.53125 -5.496094 8.128906 -4.898438 8.128906 -4.132812 C 8.128906 -3.363281 7.53125 -2.746094 6.746094 -2.746094 L 4.304688 -2.746094 Z M 4.304688 -5.496094 "/></g></g></g><g fill="#ffffff" fill-opacity="1"><g transform="translate(165.136099, 304.357802)"><g><path d="M 8.148438 0.191406 C 17.601562 0.191406 17.601562 -13.96875 8.148438 -13.96875 C -1.304688 -13.96875 -1.304688 0.191406 8.148438 0.191406 Z M 8.148438 -2.652344 C 2.652344 -2.652344 2.652344 -11.144531 8.148438 -11.144531 C 13.644531 -11.144531 13.644531 -2.652344 8.148438 -2.652344 Z M 8.148438 -2.652344 "/></g></g></g><g fill="#ffffff" fill-opacity="1"><g transform="translate(181.404527, 304.357802)"><g><path d="M 8.378906 0 L 11.492188 0 L 8.300781 -5.667969 C 12.335938 -6.839844 11.855469 -13.738281 6.957031 -13.738281 L 1.539062 -13.738281 L 1.539062 0 L 4.285156 0 L 4.285156 -5.246094 L 5.609375 -5.246094 Z M 4.285156 -7.917969 L 4.285156 -10.992188 L 6.707031 -10.992188 C 8.570312 -10.992188 8.570312 -7.917969 6.707031 -7.917969 Z M 4.285156 -7.917969 "/></g></g></g><g fill="#ffffff" fill-opacity="1"><g transform="translate(193.178494, 304.357802)"><g><path d="M 8.648438 0 L 8.648438 -2.746094 L 4.285156 -2.746094 L 4.285156 -5.496094 L 7.898438 -5.496094 L 7.898438 -8.242188 L 4.285156 -8.242188 L 4.285156 -10.992188 L 8.417969 -10.992188 L 8.417969 -13.738281 L 1.539062 -13.738281 L 1.539062 0 Z M 8.648438 0 "/></g></g></g><g fill="#ffffff" fill-opacity="1"><g transform="translate(202.858879, 304.357802)"><g><path d="M 0.308594 0 L 3.421875 0 L 3.957031 -1.480469 L 8.511719 -1.480469 L 9.070312 0 L 12.164062 0 L 6.378906 -14.238281 L 6.089844 -14.238281 Z M 4.957031 -4.054688 L 6.246094 -7.628906 L 7.492188 -4.054688 Z M 4.957031 -4.054688 "/></g></g></g><g fill="#ffffff" fill-opacity="1"><g transform="translate(215.401122, 304.357802)"><g/></g></g><g fill="#ffffff" fill-opacity="1"><g transform="translate(220.855948, 304.357802)"><g><path d="M 1.539062 -13.738281 L 1.539062 0 L 8.648438 0 L 8.648438 -2.746094 L 4.285156 -2.746094 L 4.285156 -13.738281 Z M 1.539062 -13.738281 "/></g></g></g><g fill="#ffffff" fill-opacity="1"><g transform="translate(230.325052, 304.357802)"><g><path d="M 0.308594 0 L 3.421875 0 L 3.957031 -1.480469 L 8.511719 -1.480469 L 9.070312 0 L 12.164062 0 L 6.378906 -14.238281 L 6.089844 -14.238281 Z M 4.957031 -4.054688 L 6.246094 -7.628906 L 7.492188 -4.054688 Z M 4.957031 -4.054688 "/></g></g></g><g fill="#ffffff" fill-opacity="1"><g transform="translate(242.867284, 304.357802)"><g/></g></g><g fill="#ffffff" fill-opacity="1"><g transform="translate(248.32211, 304.357802)"><g><path d="M 4.285156 0 L 4.285156 -5.246094 L 6.9375 -5.246094 C 12.257812 -5.246094 12.277344 -13.71875 6.9375 -13.71875 L 1.539062 -13.71875 L 1.539062 0 Z M 4.285156 -7.917969 L 4.285156 -10.992188 L 6.707031 -10.992188 C 8.550781 -10.992188 8.550781 -7.917969 6.707031 -7.917969 Z M 4.285156 -7.917969 "/></g></g></g><g fill="#ffffff" fill-opacity="1"><g transform="translate(259.90401, 304.357802)"><g><path d="M 0.308594 0 L 3.421875 0 L 3.957031 -1.480469 L 8.511719 -1.480469 L 9.070312 0 L 12.164062 0 L 6.378906 -14.238281 L 6.089844 -14.238281 Z M 4.957031 -4.054688 L 6.246094 -7.628906 L 7.492188 -4.054688 Z M 4.957031 -4.054688 "/></g></g></g><g fill="#ffffff" fill-opacity="1"><g transform="translate(272.446253, 304.357802)"><g><path d="M 0.902344 -0.882812 C 2.765625 0.078125 4.476562 0.171875 5.246094 0.117188 C 7.820312 -0.0195312 9.394531 -1.769531 9.394531 -4.054688 C 9.394531 -6.246094 7.550781 -7.476562 5.417969 -8.261719 C 4.628906 -8.53125 3.957031 -8.878906 3.882812 -9.644531 C 3.824219 -10.414062 4.265625 -11.125 5.246094 -11.183594 C 5.667969 -11.203125 6.53125 -11.222656 8.050781 -10.605469 L 8.398438 -13.257812 C 6.628906 -13.875 5.6875 -13.875 4.976562 -13.835938 C 2.691406 -13.71875 1.09375 -11.953125 1.09375 -9.644531 C 1.09375 -7.339844 3.015625 -6.246094 5.167969 -5.457031 C 5.9375 -5.1875 6.53125 -4.84375 6.589844 -4.054688 C 6.667969 -3.304688 5.976562 -2.730469 5.167969 -2.671875 C 4.535156 -2.613281 2.824219 -2.652344 1.25 -3.765625 Z M 0.902344 -0.882812 "/></g></g></g><g fill="#ffffff" fill-opacity="1"><g transform="translate(282.606821, 304.357802)"><g><path d="M 4.285156 0 L 4.285156 -13.738281 L 1.539062 -13.738281 L 1.539062 0 Z M 4.285156 0 "/></g></g></g><g fill="#ffffff" fill-opacity="1"><g transform="translate(288.445802, 304.357802)"><g><path d="M 11.472656 -17.832031 L 7.953125 -17.832031 L 6.9375 -15.121094 L 9.53125 -15.121094 Z M 8.148438 0.191406 C 17.601562 0.191406 17.601562 -13.96875 8.148438 -13.96875 C -1.304688 -13.96875 -1.304688 0.191406 8.148438 0.191406 Z M 8.148438 -2.652344 C 2.652344 -2.652344 2.652344 -11.144531 8.148438 -11.144531 C 13.644531 -11.144531 13.644531 -2.652344 8.148438 -2.652344 Z M 8.148438 -2.652344 "/></g></g></g><g fill="#ffffff" fill-opacity="1"><g transform="translate(304.714218, 304.357802)"><g><path d="M 4.285156 -7.476562 L 11.242188 0.289062 L 11.972656 0.289062 L 11.972656 -13.71875 L 9.203125 -13.71875 L 9.203125 -5.957031 L 2.265625 -14.027344 L 1.539062 -14.027344 L 1.539062 0 L 4.285156 0 Z M 4.285156 -7.476562 "/></g></g></g><g clip-path="url(#542b8ae5b5)"><g clip-path="url(#7074ffc600)"><g clip-path="url(#4513c8e5a9)"><path fill="#ffbd59" d="M 49.0625 83.0625 C 48.59375 82.847656 48.574219 82.886719 48.996094 83.167969 C 51.957031 85.179688 56.011719 86.339844 59.371094 86.816406 C 59.425781 86.828125 59.453125 86.800781 59.449219 86.738281 C 58.886719 80.332031 56.582031 74.441406 52.546875 69.292969 C 52.332031 69.027344 52.117188 68.898438 51.894531 68.886719 C 50.996094 68.863281 50.101562 68.875 49.195312 68.921875 C 48.589844 68.953125 48.519531 68.566406 48.347656 68.09375 C 47.839844 66.628906 47.460938 65.378906 47.238281 64.328125 C 47.105469 63.675781 47.636719 63.511719 48.183594 63.429688 C 49.496094 63.230469 50.800781 63.121094 52.132812 63.089844 C 52.863281 63.078125 53.03125 63.59375 53.117188 64.257812 C 53.285156 65.332031 53.417969 66.410156 53.550781 67.488281 C 53.554688 67.550781 53.585938 67.589844 53.628906 67.617188 C 53.960938 67.890625 54.296875 68.148438 54.644531 68.398438 C 59.832031 72.125 65.421875 75.105469 71.417969 77.339844 C 71.449219 77.351562 71.472656 77.371094 71.488281 77.402344 C 71.535156 77.472656 71.519531 77.570312 71.449219 77.617188 C 71.421875 77.636719 71.386719 77.640625 71.347656 77.644531 C 70.902344 77.617188 70.417969 77.527344 69.925781 77.375 C 65.675781 76.042969 61.550781 74.277344 57.554688 72.0625 C 57.382812 71.96875 57.25 71.878906 57.167969 71.785156 L 57.167969 71.78125 C 57.152344 71.777344 57.125 71.773438 57.121094 71.789062 L 57.121094 71.796875 C 57.113281 71.804688 57.109375 71.820312 57.105469 71.84375 C 57.097656 71.851562 57.105469 71.863281 57.109375 71.875 C 60.359375 74.683594 64.644531 76.617188 68.742188 78.058594 C 69.804688 78.429688 70.785156 78.703125 71.675781 78.890625 C 71.734375 78.90625 71.773438 78.882812 71.78125 78.816406 C 72.777344 70.753906 71.253906 62.699219 68.761719 54.765625 C 68.582031 54.207031 68.394531 54.046875 67.835938 53.835938 C 66.445312 53.285156 65.046875 52.75 63.664062 52.210938 C 63.007812 51.957031 63.011719 51.238281 63.226562 50.554688 C 63.75 48.933594 64.289062 47.3125 64.828125 45.699219 C 65.027344 45.128906 65.398438 44.953125 65.964844 45.160156 C 68.726562 46.160156 70.472656 46.839844 71.183594 47.191406 C 72.136719 47.648438 71.792969 48.335938 71.480469 49.234375 C 71.070312 50.449219 70.636719 51.671875 70.210938 52.882812 C 70.105469 53.167969 70.132812 53.4375 70.289062 53.6875 C 74.617188 60.574219 80.375 67.121094 87.359375 71.402344 C 87.425781 71.433594 87.46875 71.421875 87.488281 71.359375 C 89.5 66.941406 90.71875 62.308594 91.160156 57.445312 C 91.210938 56.882812 91.171875 56.242188 91.183594 55.652344 C 91.183594 55.628906 91.175781 55.613281 91.160156 55.605469 C 91.160156 55.605469 91.15625 55.601562 91.148438 55.605469 C 91.132812 55.605469 91.125 55.617188 91.128906 55.628906 C 90.5625 59.09375 89.71875 62.496094 88.589844 65.832031 C 88.113281 67.257812 87.539062 68.984375 86.753906 70.261719 C 86.644531 70.4375 86.542969 70.457031 86.429688 70.355469 C 86.386719 70.316406 86.367188 70.253906 86.394531 70.199219 C 88.523438 63.847656 89.902344 56.992188 90 50.265625 C 89.992188 50.21875 89.984375 50.171875 89.941406 50.140625 C 88.6875 48.886719 87.851562 48.007812 87.4375 47.515625 C 86.90625 46.855469 87.3125 46.425781 87.804688 45.859375 C 88.640625 44.925781 89.527344 44.039062 90.476562 43.214844 C 90.765625 42.96875 91.152344 42.871094 91.40625 43.191406 C 91.894531 43.8125 92.6875 44.925781 93.777344 46.546875 C 93.972656 46.828125 94.070312 47.085938 94.085938 47.328125 C 94.09375 47.375 94.070312 47.429688 94.035156 47.464844 C 93.378906 48.167969 92.761719 48.894531 92.164062 49.640625 C 91.910156 49.960938 91.914062 50.230469 91.992188 50.605469 C 93.285156 56.742188 96.640625 62.457031 101.230469 66.832031 L 101.234375 66.835938 C 101.273438 66.863281 101.332031 66.855469 101.355469 66.820312 L 101.363281 66.8125 C 103.144531 63.519531 104.765625 60.019531 105.050781 56.269531 L 105.046875 56.265625 C 105.054688 56.253906 105.039062 56.25 105.03125 56.253906 C 105.015625 56.253906 105.003906 56.253906 104.980469 56.257812 C 104.96875 56.257812 104.96875 56.261719 104.964844 56.277344 C 104.199219 59.492188 103.074219 62.464844 101.585938 65.199219 C 101.476562 65.398438 101.289062 65.5625 101.015625 65.683594 C 100.960938 65.703125 100.910156 65.671875 100.886719 65.625 L 100.894531 65.613281 C 100.859375 65.488281 100.882812 65.34375 100.949219 65.171875 C 102.625 61.171875 103.851562 57.027344 104.636719 52.753906 C 104.648438 52.679688 104.632812 52.597656 104.601562 52.523438 C 104.144531 51.726562 103.691406 50.902344 103.226562 50.0625 C 102.980469 49.597656 103.039062 49.238281 103.410156 48.980469 C 104.257812 48.394531 105.105469 47.800781 105.953125 47.207031 C 106.640625 46.726562 106.933594 47.03125 107.222656 47.691406 C 107.699219 48.773438 108.175781 49.800781 108.664062 50.773438 C 108.664062 50.769531 108.664062 50.773438 108.664062 50.773438 C 108.785156 51.027344 108.6875 51.328125 108.441406 51.453125 L 108.429688 51.457031 C 107.757812 51.777344 107.097656 52.097656 106.460938 52.40625 C 106.039062 52.613281 106.070312 52.890625 106.078125 53.363281 C 106.09375 59.128906 106.699219 64.828125 107.894531 70.464844 C 107.910156 70.519531 107.878906 70.5625 107.816406 70.570312 C 98.941406 72.199219 90.355469 74.71875 82.035156 78.160156 C 81.898438 78.21875 81.746094 78.160156 81.667969 78.03125 C 80.515625 75.765625 79.296875 73.546875 77.996094 71.375 C 77.894531 71.21875 77.777344 71.078125 77.644531 70.957031 C 77.582031 70.90625 77.550781 70.921875 77.550781 71.003906 C 77.558594 71.234375 77.589844 71.429688 77.640625 71.59375 C 78.53125 73.917969 79.472656 76.214844 80.5 78.480469 C 80.671875 78.867188 80.410156 78.953125 80.085938 79.128906 C 72.472656 83.179688 64.675781 88.546875 58.167969 94.230469 C 58.136719 94.25 58.113281 94.25 58.097656 94.21875 C 54.332031 89.554688 50.109375 85.347656 45.441406 81.589844 C 45.382812 81.550781 45.351562 81.535156 45.320312 81.546875 L 42.851562 82.679688 C 42.617188 82.777344 42.359375 82.683594 42.25 82.457031 L 40.542969 78.96875 C 40.535156 78.960938 40.535156 78.933594 40.53125 78.917969 C 40.40625 78.605469 40.558594 78.238281 40.882812 78.117188 C 40.894531 78.109375 40.914062 78.101562 40.9375 78.097656 L 44.289062 77.167969 C 44.582031 77.085938 44.890625 77.230469 45.023438 77.503906 L 45.042969 77.550781 C 45.371094 78.425781 45.703125 79.261719 46.03125 80.054688 C 46.171875 80.371094 46.222656 80.453125 46.527344 80.617188 C 50.261719 82.628906 54.15625 84.246094 58.21875 85.460938 C 58.382812 85.515625 58.511719 85.59375 58.574219 85.695312 L 58.582031 85.714844 C 58.625 85.808594 58.578125 85.921875 58.488281 85.96875 C 58.457031 85.980469 58.433594 85.988281 58.394531 85.984375 C 57.714844 85.941406 57.050781 85.855469 56.367188 85.671875 C 53.789062 84.972656 51.34375 84.097656 49.0625 83.0625 M 108.878906 74.609375 C 99.371094 77.773438 90.121094 81.902344 81.121094 86.261719 C 74.644531 89.398438 68.347656 92.824219 62.207031 96.558594 C 61.851562 96.773438 61.207031 97.230469 60.679688 97.511719 C 60.628906 97.539062 60.601562 97.527344 60.566406 97.484375 L 58.339844 94.585938 C 58.292969 94.519531 58.292969 94.46875 58.363281 94.421875 C 67.699219 87.40625 77.785156 81.199219 88.429688 76.933594 C 94.410156 74.539062 100.929688 72.507812 107.964844 70.84375 C 108.019531 70.828125 108.054688 70.84375 108.066406 70.902344 L 108.933594 74.511719 C 108.941406 74.554688 108.914062 74.597656 108.878906 74.609375 Z M 108.878906 74.609375 " fill-opacity="1" fill-rule="evenodd"/></g></g></g></svg>