<svg xmlns="http://www.w3.org/2000/svg" xmlns:xlink="http://www.w3.org/1999/xlink" width="500" zoomAndPan="magnify" viewBox="0 0 375 374.999991" height="500" preserveAspectRatio="xMidYMid meet" version="1.0"><defs><g/><clipPath id="e2d7e88221"><path d="M 31 47 L 214 47 L 214 241 L 31 241 Z M 31 47 " clip-rule="nonzero"/></clipPath><clipPath id="ddbcfdfc04"><path d="M 66.664062 21.957031 L 222.421875 74.085938 L 161.246094 256.871094 L 5.488281 204.742188 Z M 66.664062 21.957031 " clip-rule="nonzero"/></clipPath><clipPath id="7604245fce"><path d="M 66.664062 21.957031 L 222.421875 74.085938 L 161.246094 256.871094 L 5.488281 204.742188 Z M 66.664062 21.957031 " clip-rule="nonzero"/></clipPath><clipPath id="285732e622"><path d="M 66.644531 22.015625 L 222.824219 74.285156 L 161.65625 257.058594 L 5.472656 204.785156 Z M 66.644531 22.015625 " clip-rule="nonzero"/></clipPath><clipPath id="007445bf20"><path d="M 66.644531 22.015625 L 222.59375 74.210938 L 161.445312 256.914062 L 5.496094 204.71875 Z M 66.644531 22.015625 " clip-rule="nonzero"/></clipPath><clipPath id="dde75f5efe"><path d="M 82 105 L 146 105 L 146 176 L 82 176 Z M 82 105 " clip-rule="nonzero"/></clipPath><clipPath id="5b0fada161"><path d="M 66.664062 21.957031 L 222.421875 74.085938 L 161.246094 256.871094 L 5.488281 204.742188 Z M 66.664062 21.957031 " clip-rule="nonzero"/></clipPath><clipPath id="379b259cf4"><path d="M 66.664062 21.957031 L 222.421875 74.085938 L 161.246094 256.871094 L 5.488281 204.742188 Z M 66.664062 21.957031 " clip-rule="nonzero"/></clipPath><clipPath id="22092ff8c6"><path d="M 163 140 L 186 140 L 186 177 L 163 177 Z M 163 140 " clip-rule="nonzero"/></clipPath><clipPath id="9dab270426"><path d="M 177.21875 128.421875 L 208.816406 142.273438 L 188.945312 187.609375 L 157.34375 173.757812 Z M 177.21875 128.421875 " clip-rule="nonzero"/></clipPath><clipPath id="559aa4577b"><path d="M 177.21875 128.421875 L 208.816406 142.273438 L 188.945312 187.609375 L 157.34375 173.757812 Z M 177.21875 128.421875 " clip-rule="nonzero"/></clipPath><clipPath id="97393ee4cd"><path d="M 179 139 L 200 139 L 200 179 L 179 179 Z M 179 139 " clip-rule="nonzero"/></clipPath><clipPath id="549989d61c"><path d="M 177.21875 128.421875 L 208.816406 142.273438 L 188.945312 187.609375 L 157.34375 173.757812 Z M 177.21875 128.421875 " clip-rule="nonzero"/></clipPath><clipPath id="08bd614f1c"><path d="M 177.21875 128.421875 L 208.816406 142.273438 L 188.945312 187.609375 L 157.34375 173.757812 Z M 177.21875 128.421875 " clip-rule="nonzero"/></clipPath><clipPath id="872565afc7"><path d="M 164 134 L 193 134 L 193 179 L 164 179 Z M 164 134 " clip-rule="nonzero"/></clipPath><clipPath id="61728bc497"><path d="M 177.21875 128.421875 L 208.816406 142.273438 L 188.945312 187.609375 L 157.34375 173.757812 Z M 177.21875 128.421875 " clip-rule="nonzero"/></clipPath><clipPath id="f8518220c1"><path d="M 177.21875 128.421875 L 208.816406 142.273438 L 188.945312 187.609375 L 157.34375 173.757812 Z M 177.21875 128.421875 " clip-rule="nonzero"/></clipPath><clipPath id="b6ac2cc4bd"><path d="M 172 135 L 202 135 L 202 182 L 172 182 Z M 172 135 " clip-rule="nonzero"/></clipPath><clipPath id="169153032a"><path d="M 177.21875 128.421875 L 208.816406 142.273438 L 188.945312 187.609375 L 157.34375 173.757812 Z M 177.21875 128.421875 " clip-rule="nonzero"/></clipPath><clipPath id="7a6139924f"><path d="M 177.21875 128.421875 L 208.816406 142.273438 L 188.945312 187.609375 L 157.34375 173.757812 Z M 177.21875 128.421875 " clip-rule="nonzero"/></clipPath><clipPath id="36871bfcb7"><path d="M 191.824219 134.835938 L 208.597656 142.1875 L 188.816406 187.316406 L 172.042969 179.964844 Z M 191.824219 134.835938 " clip-rule="nonzero"/></clipPath><clipPath id="4eb2785275"><path d="M 191.824219 134.835938 L 208.558594 142.171875 L 188.785156 187.277344 L 172.054688 179.941406 Z M 191.824219 134.835938 " clip-rule="nonzero"/></clipPath></defs><g clip-path="url(#e2d7e88221)"><g clip-path="url(#ddbcfdfc04)"><g clip-path="url(#7604245fce)"><g clip-path="url(#285732e622)"><g clip-path="url(#007445bf20)"><path fill="#ffffff" d="M 101.582031 193.402344 C 89.8125 189.464844 80.253906 181.933594 73.714844 172.4375 C 80.773438 185.746094 92.738281 196.476562 108.117188 201.625 C 119.3125 205.371094 131.078125 205.785156 142.253906 202.953125 L 152.445312 223.394531 C 135.765625 228.6875 117.902344 228.578125 100.992188 222.917969 C 79.894531 215.855469 62.8125 201.003906 52.890625 181.09375 C 42.964844 161.1875 41.386719 138.605469 48.449219 117.511719 C 55.507812 96.414062 70.359375 79.332031 90.269531 69.410156 C 110.175781 59.484375 132.757812 57.90625 153.855469 64.96875 C 170.765625 70.625 185.097656 81.292969 195.226562 95.558594 L 174.789062 105.746094 C 167.570312 96.757812 157.921875 90.007812 146.726562 86.261719 C 131.351562 81.113281 115.335938 82.480469 101.6875 88.859375 C 112.625 85.210938 124.789062 84.949219 136.5625 88.890625 C 153.117188 94.433594 165.296875 107.074219 170.84375 122.296875 L 213.636719 100.964844 C 202.636719 78.902344 183.222656 61.03125 157.996094 52.589844 C 107.542969 35.703125 52.957031 62.914062 36.070312 113.367188 C 19.183594 163.820312 46.394531 218.40625 96.847656 235.292969 C 122.074219 243.738281 148.335938 241.152344 170.398438 230.15625 L 149.066406 187.363281 C 135.472656 196.179688 118.140625 198.945312 101.582031 193.402344 " fill-opacity="1" fill-rule="nonzero"/></g></g></g></g></g><g clip-path="url(#dde75f5efe)"><g clip-path="url(#5b0fada161)"><g clip-path="url(#379b259cf4)"><path fill="#ffffff" d="M 113.421875 172.492188 C 96.914062 166.964844 88.011719 149.109375 93.539062 132.601562 C 99.0625 116.09375 116.921875 107.191406 133.429688 112.71875 C 138.242188 114.328125 142.40625 116.988281 145.757812 120.359375 C 141.652344 114.65625 135.785156 110.140625 128.617188 107.742188 C 110.4375 101.65625 90.769531 111.460938 84.6875 129.640625 C 78.601562 147.816406 88.40625 167.484375 106.585938 173.566406 C 113.753906 175.96875 121.15625 175.894531 127.867188 173.8125 C 123.164062 174.484375 118.234375 174.101562 113.421875 172.492188 " fill-opacity="1" fill-rule="nonzero"/></g></g></g><g fill="#ffffff" fill-opacity="1"><g transform="translate(133.067929, 170.249989)"><g><path d="M 19.898438 -20.417969 L 20.53125 -25.886719 C 18.929688 -26.59375 17.144531 -26.925781 15.285156 -26.925781 C -2.714844 -26.925781 -2.753906 0.0742188 15.285156 0.0742188 C 17.144531 0.0742188 19.488281 -0.371094 21.125 -1.042969 L 20.417969 -6.546875 C 19.414062 -6.023438 17.59375 -5.355469 15.285156 -5.355469 C 4.761719 -5.355469 4.761719 -21.570312 15.285156 -21.570312 C 17.59375 -21.570312 18.894531 -20.9375 19.898438 -20.417969 Z M 19.898438 -20.417969 "/></g></g></g><g fill="#ffffff" fill-opacity="1"><g transform="translate(165.38824, 170.249989)"><g/></g></g><g fill="#ffffff" fill-opacity="1"><g transform="translate(185.879987, 170.249989)"><g/></g></g><g fill="#ffffff" fill-opacity="1"><g transform="translate(206.380424, 170.249989)"><g><path d="M 16.253906 -21.273438 L 16.253906 -26.59375 L 2.976562 -26.59375 L 2.976562 0 L 8.292969 0 L 8.292969 -10.636719 L 15.0625 -10.636719 L 15.0625 -15.957031 L 8.292969 -15.957031 L 8.292969 -21.273438 Z M 16.253906 -21.273438 "/></g></g></g><g fill="#ffffff" fill-opacity="1"><g transform="translate(233.974251, 170.249989)"><g><path d="M 16.253906 -21.273438 L 16.253906 -26.59375 L 2.976562 -26.59375 L 2.976562 0 L 8.292969 0 L 8.292969 -10.636719 L 15.0625 -10.636719 L 15.0625 -15.957031 L 8.292969 -15.957031 L 8.292969 -21.273438 Z M 16.253906 -21.273438 "/></g></g></g><g fill="#ffffff" fill-opacity="1"><g transform="translate(261.568077, 170.249989)"><g><path d="M 16.738281 0 L 16.738281 -5.320312 L 8.292969 -5.320312 L 8.292969 -10.636719 L 15.285156 -10.636719 L 15.285156 -15.957031 L 8.292969 -15.957031 L 8.292969 -21.273438 L 16.289062 -21.273438 L 16.289062 -26.59375 L 2.976562 -26.59375 L 2.976562 0 Z M 16.738281 0 "/></g></g></g><g fill="#ffffff" fill-opacity="1"><g transform="translate(290.240235, 170.249989)"><g><path d="M 16.738281 0 L 16.738281 -5.320312 L 8.292969 -5.320312 L 8.292969 -10.636719 L 15.285156 -10.636719 L 15.285156 -15.957031 L 8.292969 -15.957031 L 8.292969 -21.273438 L 16.289062 -21.273438 L 16.289062 -26.59375 L 2.976562 -26.59375 L 2.976562 0 Z M 16.738281 0 "/></g></g></g><g fill="#ffffff" fill-opacity="1"><g transform="translate(184.220273, 221.999985)"><g><path d="M 2.976562 -26.59375 L 2.976562 0 L 16.738281 0 L 16.738281 -5.320312 L 8.292969 -5.320312 L 8.292969 -26.59375 Z M 2.976562 -26.59375 "/></g></g></g><g fill="#ffffff" fill-opacity="1"><g transform="translate(212.483407, 221.999985)"><g><path d="M 0.59375 0 L 6.621094 0 L 7.660156 -2.863281 L 16.476562 -2.863281 L 17.554688 0 L 23.542969 0 L 12.347656 -27.558594 L 11.789062 -27.558594 Z M 9.59375 -7.847656 L 12.085938 -14.765625 L 14.503906 -7.847656 Z M 9.59375 -7.847656 "/></g></g></g><g fill="#ffffff" fill-opacity="1"><g transform="translate(246.695924, 221.999985)"><g><path d="M 8.292969 -14.46875 L 21.757812 0.558594 L 23.171875 0.558594 L 23.171875 -26.554688 L 17.816406 -26.554688 L 17.816406 -11.53125 L 4.390625 -27.152344 L 2.976562 -27.152344 L 2.976562 0 L 8.292969 0 Z M 8.292969 -14.46875 "/></g></g></g><g fill="#ffffff" fill-opacity="1"><g transform="translate(282.804801, 221.999985)"><g><path d="M 10.898438 -26.59375 L 2.976562 -26.59375 L 2.976562 0 L 10.898438 0 C 28.601562 0 28.601562 -26.59375 10.898438 -26.59375 Z M 10.898438 -21.273438 C 21.238281 -21.273438 21.238281 -5.320312 10.898438 -5.320312 L 8.292969 -5.320312 L 8.292969 -21.273438 Z M 10.898438 -21.273438 "/></g></g></g><g clip-path="url(#22092ff8c6)"><g clip-path="url(#9dab270426)"><g clip-path="url(#559aa4577b)"><path fill="#ffbd59" d="M 166.492188 176.523438 C 164.671875 174.1875 163.636719 170.859375 163.570312 167.101562 C 163.488281 162.683594 164.671875 158.007812 166.992188 153.585938 C 169.511719 148.78125 173.136719 144.828125 177.191406 142.449219 C 180.085938 140.753906 182.980469 139.96875 185.644531 140.140625 C 183.492188 142.679688 180.863281 146.902344 179.085938 153.570312 C 178.699219 155.027344 178.339844 156.550781 177.992188 158.027344 C 176.984375 162.296875 175.941406 166.714844 174.070312 170.167969 C 172.210938 173.601562 169.792969 175.632812 166.492188 176.523438 " fill-opacity="1" fill-rule="nonzero"/></g></g></g><g clip-path="url(#97393ee4cd)"><g clip-path="url(#549989d61c)"><g clip-path="url(#08bd614f1c)"><path fill="#ffbd59" d="M 179.320312 178.683594 C 183.066406 175.878906 186.949219 170.585938 188.117188 160.621094 C 188.429688 157.96875 189.285156 153.230469 190.664062 148.605469 C 191.898438 144.464844 193.269531 141.351562 194.648438 139.535156 C 197.25 141.769531 198.828125 145.394531 199.109375 149.828125 C 199.414062 154.644531 198.164062 160.003906 195.585938 164.914062 C 192.976562 169.886719 189.230469 173.988281 185.035156 176.460938 C 183.132812 177.582031 181.195312 178.332031 179.320312 178.683594 " fill-opacity="1" fill-rule="nonzero"/></g></g></g><g clip-path="url(#872565afc7)"><g clip-path="url(#61728bc497)"><g clip-path="url(#f8518220c1)"><path fill="#ffffff" d="M 178.691406 168.53125 C 176.894531 172.484375 174.324219 174.882812 170.621094 176.042969 C 168.324219 173.675781 166.867188 170.113281 166.496094 165.945312 C 166.089844 161.339844 166.976562 156.382812 169.070312 151.613281 C 171.34375 146.429688 174.828125 142.042969 178.890625 139.265625 C 182.28125 136.945312 185.824219 135.90625 189.035156 136.265625 C 186.738281 139.03125 184.097656 143.660156 182.65625 151.132812 C 182.371094 152.628906 182.113281 154.203125 181.863281 155.726562 C 181.136719 160.1875 180.386719 164.804688 178.691406 168.53125 Z M 183.6875 156.023438 C 183.933594 154.511719 184.1875 152.953125 184.472656 151.480469 C 186.152344 142.761719 189.585938 138.234375 191.484375 136.308594 L 192.601562 135.175781 L 191.0625 134.769531 C 182.570312 132.519531 172.386719 139.441406 167.378906 150.871094 C 162.867188 161.164062 163.832031 172.21875 169.730469 177.753906 L 170.105469 178.109375 L 170.605469 177.96875 C 175.085938 176.734375 178.28125 173.898438 180.371094 169.296875 C 182.167969 165.34375 182.941406 160.605469 183.6875 156.023438 " fill-opacity="1" fill-rule="nonzero"/></g></g></g><g clip-path="url(#b6ac2cc4bd)"><g clip-path="url(#169153032a)"><g clip-path="url(#7a6139924f)"><g clip-path="url(#36871bfcb7)"><g clip-path="url(#4eb2785275)"><path fill="#ffffff" d="M 178.796875 179.277344 C 182.894531 176.804688 187.585938 171.457031 188.128906 159.878906 C 188.253906 157.230469 188.769531 152.484375 189.8125 147.820312 C 190.855469 143.148438 192.152344 139.738281 193.582031 137.878906 C 200.117188 142.101562 201.660156 153.304688 197.03125 163.867188 C 194.769531 169.027344 191.296875 173.402344 187.257812 176.183594 C 184.453125 178.113281 181.539062 179.167969 178.796875 179.277344 Z M 201.214844 147.566406 C 200.320312 142.15625 197.699219 138.003906 193.832031 135.878906 L 193.210938 135.539062 L 192.722656 136.046875 C 188.492188 140.453125 186.558594 153.945312 186.285156 159.789062 C 185.644531 173.429688 178.992188 177.660156 175.082031 178.96875 L 172.109375 179.964844 L 175.148438 180.742188 C 183.609375 182.902344 193.742188 175.964844 198.722656 164.609375 C 201.207031 158.941406 202.09375 152.886719 201.214844 147.566406 " fill-opacity="1" fill-rule="nonzero"/></g></g></g></g></g><g fill="#ffffff" fill-opacity="1"><g transform="translate(47.74219, 273.062706)"><g><path d="M 0.902344 -0.882812 C 2.765625 0.078125 4.476562 0.171875 5.246094 0.117188 C 7.820312 -0.0195312 9.394531 -1.769531 9.394531 -4.054688 C 9.394531 -6.246094 7.550781 -7.476562 5.417969 -8.261719 C 4.628906 -8.53125 3.957031 -8.878906 3.882812 -9.644531 C 3.824219 -10.414062 4.265625 -11.125 5.246094 -11.183594 C 5.667969 -11.203125 6.53125 -11.222656 8.050781 -10.605469 L 8.398438 -13.257812 C 6.628906 -13.875 5.6875 -13.875 4.976562 -13.835938 C 2.691406 -13.71875 1.09375 -11.953125 1.09375 -9.644531 C 1.09375 -7.339844 3.015625 -6.246094 5.167969 -5.457031 C 5.9375 -5.1875 6.53125 -4.84375 6.589844 -4.054688 C 6.667969 -3.304688 5.976562 -2.730469 5.167969 -2.671875 C 4.535156 -2.613281 2.824219 -2.652344 1.25 -3.765625 Z M 0.902344 -0.882812 "/></g></g></g><g fill="#ffffff" fill-opacity="1"><g transform="translate(57.902758, 273.062706)"><g><path d="M 4.285156 0 L 4.285156 -13.738281 L 1.539062 -13.738281 L 1.539062 0 Z M 4.285156 0 "/></g></g></g><g fill="#ffffff" fill-opacity="1"><g transform="translate(63.741727, 273.062706)"><g><path d="M 8.648438 0 L 8.648438 -2.746094 L 4.285156 -2.746094 L 4.285156 -5.496094 L 7.898438 -5.496094 L 7.898438 -8.242188 L 4.285156 -8.242188 L 4.285156 -10.992188 L 8.417969 -10.992188 L 8.417969 -13.738281 L 1.539062 -13.738281 L 1.539062 0 Z M 8.648438 0 "/></g></g></g><g fill="#ffffff" fill-opacity="1"><g transform="translate(73.422112, 273.062706)"><g><path d="M 4.285156 -7.476562 L 11.242188 0.289062 L 11.972656 0.289062 L 11.972656 -13.71875 L 9.203125 -13.71875 L 9.203125 -5.957031 L 2.265625 -14.027344 L 1.539062 -14.027344 L 1.539062 0 L 4.285156 0 Z M 4.285156 -7.476562 "/></g></g></g><g fill="#ffffff" fill-opacity="1"><g transform="translate(86.943924, 273.062706)"><g><path d="M 6.550781 0 L 6.550781 -10.992188 L 9.972656 -10.992188 L 9.972656 -13.71875 L 0.382812 -13.71875 L 0.382812 -10.992188 L 3.804688 -10.992188 L 3.804688 0 Z M 6.550781 0 "/></g></g></g><g fill="#ffffff" fill-opacity="1"><g transform="translate(97.450217, 273.062706)"><g><path d="M 8.648438 0 L 8.648438 -2.746094 L 4.285156 -2.746094 L 4.285156 -5.496094 L 7.898438 -5.496094 L 7.898438 -8.242188 L 4.285156 -8.242188 L 4.285156 -10.992188 L 8.417969 -10.992188 L 8.417969 -13.738281 L 1.539062 -13.738281 L 1.539062 0 Z M 8.648438 0 "/></g></g></g><g fill="#ffffff" fill-opacity="1"><g transform="translate(107.130602, 273.062706)"><g/></g></g><g fill="#ffffff" fill-opacity="1"><g transform="translate(112.585428, 273.062706)"><g><path d="M 4.898438 0 L 7.628906 0 L 7.628906 -6.1875 L 12.433594 -13.738281 L 9.070312 -13.738281 L 6.265625 -9.011719 L 3.457031 -13.738281 L 0.117188 -13.738281 L 4.898438 -6.1875 Z M 4.898438 0 "/></g></g></g><g fill="#ffffff" fill-opacity="1"><g transform="translate(125.050847, 273.062706)"><g/></g></g><g fill="#ffffff" fill-opacity="1"><g transform="translate(130.505673, 273.062706)"><g><path d="M 0.902344 -0.882812 C 2.765625 0.078125 4.476562 0.171875 5.246094 0.117188 C 7.820312 -0.0195312 9.394531 -1.769531 9.394531 -4.054688 C 9.394531 -6.246094 7.550781 -7.476562 5.417969 -8.261719 C 4.628906 -8.53125 3.957031 -8.878906 3.882812 -9.644531 C 3.824219 -10.414062 4.265625 -11.125 5.246094 -11.183594 C 5.667969 -11.203125 6.53125 -11.222656 8.050781 -10.605469 L 8.398438 -13.257812 C 6.628906 -13.875 5.6875 -13.875 4.976562 -13.835938 C 2.691406 -13.71875 1.09375 -11.953125 1.09375 -9.644531 C 1.09375 -7.339844 3.015625 -6.246094 5.167969 -5.457031 C 5.9375 -5.1875 6.53125 -4.84375 6.589844 -4.054688 C 6.667969 -3.304688 5.976562 -2.730469 5.167969 -2.671875 C 4.535156 -2.613281 2.824219 -2.652344 1.25 -3.765625 Z M 0.902344 -0.882812 "/></g></g></g><g fill="#ffffff" fill-opacity="1"><g transform="translate(140.666241, 273.062706)"><g><path d="M 0.308594 0 L 3.421875 0 L 3.957031 -1.480469 L 8.511719 -1.480469 L 9.070312 0 L 12.164062 0 L 6.378906 -14.238281 L 6.089844 -14.238281 Z M 4.957031 -4.054688 L 6.246094 -7.628906 L 7.492188 -4.054688 Z M 4.957031 -4.054688 "/></g></g></g><g fill="#ffffff" fill-opacity="1"><g transform="translate(153.208484, 273.062706)"><g><path d="M 1.539062 0 L 6.976562 0 C 9.203125 0 11.03125 -1.824219 11.03125 -4.132812 C 11.03125 -5.207031 10.511719 -6.265625 9.609375 -6.878906 C 10.472656 -7.476562 10.835938 -8.550781 10.875 -9.589844 C 10.933594 -12.007812 9.414062 -13.757812 6.976562 -13.757812 L 1.539062 -13.757812 Z M 4.304688 -11.011719 L 6.746094 -11.011719 C 7.53125 -11.011719 8.011719 -10.394531 8.011719 -9.625 C 8.011719 -8.878906 7.53125 -8.242188 6.746094 -8.242188 L 4.304688 -8.242188 Z M 4.304688 -5.496094 L 6.746094 -5.496094 C 7.53125 -5.496094 8.128906 -4.898438 8.128906 -4.132812 C 8.128906 -3.363281 7.53125 -2.746094 6.746094 -2.746094 L 4.304688 -2.746094 Z M 4.304688 -5.496094 "/></g></g></g><g fill="#ffffff" fill-opacity="1"><g transform="translate(165.136099, 273.062706)"><g><path d="M 8.148438 0.191406 C 17.601562 0.191406 17.601562 -13.96875 8.148438 -13.96875 C -1.304688 -13.96875 -1.304688 0.191406 8.148438 0.191406 Z M 8.148438 -2.652344 C 2.652344 -2.652344 2.652344 -11.144531 8.148438 -11.144531 C 13.644531 -11.144531 13.644531 -2.652344 8.148438 -2.652344 Z M 8.148438 -2.652344 "/></g></g></g><g fill="#ffffff" fill-opacity="1"><g transform="translate(181.404527, 273.062706)"><g><path d="M 8.378906 0 L 11.492188 0 L 8.300781 -5.667969 C 12.335938 -6.839844 11.855469 -13.738281 6.957031 -13.738281 L 1.539062 -13.738281 L 1.539062 0 L 4.285156 0 L 4.285156 -5.246094 L 5.609375 -5.246094 Z M 4.285156 -7.917969 L 4.285156 -10.992188 L 6.707031 -10.992188 C 8.570312 -10.992188 8.570312 -7.917969 6.707031 -7.917969 Z M 4.285156 -7.917969 "/></g></g></g><g fill="#ffffff" fill-opacity="1"><g transform="translate(193.178494, 273.062706)"><g><path d="M 8.648438 0 L 8.648438 -2.746094 L 4.285156 -2.746094 L 4.285156 -5.496094 L 7.898438 -5.496094 L 7.898438 -8.242188 L 4.285156 -8.242188 L 4.285156 -10.992188 L 8.417969 -10.992188 L 8.417969 -13.738281 L 1.539062 -13.738281 L 1.539062 0 Z M 8.648438 0 "/></g></g></g><g fill="#ffffff" fill-opacity="1"><g transform="translate(202.858879, 273.062706)"><g><path d="M 0.308594 0 L 3.421875 0 L 3.957031 -1.480469 L 8.511719 -1.480469 L 9.070312 0 L 12.164062 0 L 6.378906 -14.238281 L 6.089844 -14.238281 Z M 4.957031 -4.054688 L 6.246094 -7.628906 L 7.492188 -4.054688 Z M 4.957031 -4.054688 "/></g></g></g><g fill="#ffffff" fill-opacity="1"><g transform="translate(215.401122, 273.062706)"><g/></g></g><g fill="#ffffff" fill-opacity="1"><g transform="translate(220.855948, 273.062706)"><g><path d="M 1.539062 -13.738281 L 1.539062 0 L 8.648438 0 L 8.648438 -2.746094 L 4.285156 -2.746094 L 4.285156 -13.738281 Z M 1.539062 -13.738281 "/></g></g></g><g fill="#ffffff" fill-opacity="1"><g transform="translate(230.325052, 273.062706)"><g><path d="M 0.308594 0 L 3.421875 0 L 3.957031 -1.480469 L 8.511719 -1.480469 L 9.070312 0 L 12.164062 0 L 6.378906 -14.238281 L 6.089844 -14.238281 Z M 4.957031 -4.054688 L 6.246094 -7.628906 L 7.492188 -4.054688 Z M 4.957031 -4.054688 "/></g></g></g><g fill="#ffffff" fill-opacity="1"><g transform="translate(242.867284, 273.062706)"><g/></g></g><g fill="#ffffff" fill-opacity="1"><g transform="translate(248.32211, 273.062706)"><g><path d="M 4.285156 0 L 4.285156 -5.246094 L 6.9375 -5.246094 C 12.257812 -5.246094 12.277344 -13.71875 6.9375 -13.71875 L 1.539062 -13.71875 L 1.539062 0 Z M 4.285156 -7.917969 L 4.285156 -10.992188 L 6.707031 -10.992188 C 8.550781 -10.992188 8.550781 -7.917969 6.707031 -7.917969 Z M 4.285156 -7.917969 "/></g></g></g><g fill="#ffffff" fill-opacity="1"><g transform="translate(259.90401, 273.062706)"><g><path d="M 0.308594 0 L 3.421875 0 L 3.957031 -1.480469 L 8.511719 -1.480469 L 9.070312 0 L 12.164062 0 L 6.378906 -14.238281 L 6.089844 -14.238281 Z M 4.957031 -4.054688 L 6.246094 -7.628906 L 7.492188 -4.054688 Z M 4.957031 -4.054688 "/></g></g></g><g fill="#ffffff" fill-opacity="1"><g transform="translate(272.446253, 273.062706)"><g><path d="M 0.902344 -0.882812 C 2.765625 0.078125 4.476562 0.171875 5.246094 0.117188 C 7.820312 -0.0195312 9.394531 -1.769531 9.394531 -4.054688 C 9.394531 -6.246094 7.550781 -7.476562 5.417969 -8.261719 C 4.628906 -8.53125 3.957031 -8.878906 3.882812 -9.644531 C 3.824219 -10.414062 4.265625 -11.125 5.246094 -11.183594 C 5.667969 -11.203125 6.53125 -11.222656 8.050781 -10.605469 L 8.398438 -13.257812 C 6.628906 -13.875 5.6875 -13.875 4.976562 -13.835938 C 2.691406 -13.71875 1.09375 -11.953125 1.09375 -9.644531 C 1.09375 -7.339844 3.015625 -6.246094 5.167969 -5.457031 C 5.9375 -5.1875 6.53125 -4.84375 6.589844 -4.054688 C 6.667969 -3.304688 5.976562 -2.730469 5.167969 -2.671875 C 4.535156 -2.613281 2.824219 -2.652344 1.25 -3.765625 Z M 0.902344 -0.882812 "/></g></g></g><g fill="#ffffff" fill-opacity="1"><g transform="translate(282.606821, 273.062706)"><g><path d="M 4.285156 0 L 4.285156 -13.738281 L 1.539062 -13.738281 L 1.539062 0 Z M 4.285156 0 "/></g></g></g><g fill="#ffffff" fill-opacity="1"><g transform="translate(288.445802, 273.062706)"><g><path d="M 11.472656 -17.832031 L 7.953125 -17.832031 L 6.9375 -15.121094 L 9.53125 -15.121094 Z M 8.148438 0.191406 C 17.601562 0.191406 17.601562 -13.96875 8.148438 -13.96875 C -1.304688 -13.96875 -1.304688 0.191406 8.148438 0.191406 Z M 8.148438 -2.652344 C 2.652344 -2.652344 2.652344 -11.144531 8.148438 -11.144531 C 13.644531 -11.144531 13.644531 -2.652344 8.148438 -2.652344 Z M 8.148438 -2.652344 "/></g></g></g><g fill="#ffffff" fill-opacity="1"><g transform="translate(304.714218, 273.062706)"><g><path d="M 4.285156 -7.476562 L 11.242188 0.289062 L 11.972656 0.289062 L 11.972656 -13.71875 L 9.203125 -13.71875 L 9.203125 -5.957031 L 2.265625 -14.027344 L 1.539062 -14.027344 L 1.539062 0 L 4.285156 0 Z M 4.285156 -7.476562 "/></g></g></g></svg>