<svg xmlns="http://www.w3.org/2000/svg" xmlns:xlink="http://www.w3.org/1999/xlink" width="500" zoomAndPan="magnify" viewBox="0 0 375 374.999991" height="500" preserveAspectRatio="xMidYMid meet" version="1.0"><defs><filter x="0%" y="0%" width="100%" height="100%" id="426c76a97a"><feColorMatrix values="0 0 0 0 1 0 0 0 0 1 0 0 0 0 1 0 0 0 1 0" color-interpolation-filters="sRGB"/></filter><g/><clipPath id="1f6e86ed38"><path d="M 31 78 L 214 78 L 214 272 L 31 272 Z M 31 78 " clip-rule="nonzero"/></clipPath><clipPath id="32ea9ab504"><path d="M 66.664062 53.25 L 222.421875 105.382812 L 161.246094 288.164062 L 5.488281 236.035156 Z M 66.664062 53.25 " clip-rule="nonzero"/></clipPath><clipPath id="3ec884b9ad"><path d="M 66.664062 53.25 L 222.421875 105.382812 L 161.246094 288.164062 L 5.488281 236.035156 Z M 66.664062 53.25 " clip-rule="nonzero"/></clipPath><clipPath id="852ce062be"><path d="M 66.644531 53.3125 L 222.824219 105.582031 L 161.65625 288.351562 L 5.472656 236.082031 Z M 66.644531 53.3125 " clip-rule="nonzero"/></clipPath><clipPath id="688e21068d"><path d="M 66.644531 53.3125 L 222.59375 105.503906 L 161.445312 288.207031 L 5.496094 236.015625 Z M 66.644531 53.3125 " clip-rule="nonzero"/></clipPath><clipPath id="7f40ee2b76"><path d="M 82 137 L 146 137 L 146 207 L 82 207 Z M 82 137 " clip-rule="nonzero"/></clipPath><clipPath id="0dff32b3ac"><path d="M 66.664062 53.25 L 222.421875 105.382812 L 161.246094 288.164062 L 5.488281 236.035156 Z M 66.664062 53.25 " clip-rule="nonzero"/></clipPath><clipPath id="393912051e"><path d="M 66.664062 53.25 L 222.421875 105.382812 L 161.246094 288.164062 L 5.488281 236.035156 Z M 66.664062 53.25 " clip-rule="nonzero"/></clipPath><mask id="771f63b15b"><g filter="url(#426c76a97a)"><rect x="-37.5" width="450" fill="#000000" y="-37.499999" height="449.999989" fill-opacity="0.7"/></g></mask><clipPath id="58228f8140"><path d="M 6 12 L 29 12 L 29 49 L 6 49 Z M 6 12 " clip-rule="nonzero"/></clipPath><clipPath id="10f07d9c88"><path d="M 20.21875 0.71875 L 51.816406 14.570312 L 31.945312 59.90625 L 0.34375 46.054688 Z M 20.21875 0.71875 " clip-rule="nonzero"/></clipPath><clipPath id="e099d9ef0b"><path d="M 20.21875 0.71875 L 51.816406 14.570312 L 31.945312 59.90625 L 0.34375 46.054688 Z M 20.21875 0.71875 " clip-rule="nonzero"/></clipPath><clipPath id="9f28ff2019"><path d="M 22 11 L 43 11 L 43 51 L 22 51 Z M 22 11 " clip-rule="nonzero"/></clipPath><clipPath id="d98c320c4e"><path d="M 20.21875 0.71875 L 51.816406 14.570312 L 31.945312 59.90625 L 0.34375 46.054688 Z M 20.21875 0.71875 " clip-rule="nonzero"/></clipPath><clipPath id="ada1b2a89a"><path d="M 20.21875 0.71875 L 51.816406 14.570312 L 31.945312 59.90625 L 0.34375 46.054688 Z M 20.21875 0.71875 " clip-rule="nonzero"/></clipPath><clipPath id="747e2244c1"><path d="M 7 6 L 36 6 L 36 51 L 7 51 Z M 7 6 " clip-rule="nonzero"/></clipPath><clipPath id="2f26f1ca8f"><path d="M 20.21875 0.71875 L 51.816406 14.570312 L 31.945312 59.90625 L 0.34375 46.054688 Z M 20.21875 0.71875 " clip-rule="nonzero"/></clipPath><clipPath id="af36fabfd4"><path d="M 20.21875 0.71875 L 51.816406 14.570312 L 31.945312 59.90625 L 0.34375 46.054688 Z M 20.21875 0.71875 " clip-rule="nonzero"/></clipPath><clipPath id="155caf0665"><path d="M 15 7 L 45 7 L 45 54 L 15 54 Z M 15 7 " clip-rule="nonzero"/></clipPath><clipPath id="9635787b41"><path d="M 20.21875 0.71875 L 51.816406 14.570312 L 31.945312 59.90625 L 0.34375 46.054688 Z M 20.21875 0.71875 " clip-rule="nonzero"/></clipPath><clipPath id="03e9e9e967"><path d="M 20.21875 0.71875 L 51.816406 14.570312 L 31.945312 59.90625 L 0.34375 46.054688 Z M 20.21875 0.71875 " clip-rule="nonzero"/></clipPath><clipPath id="f6fe76e720"><path d="M 34.824219 7.132812 L 51.597656 14.484375 L 31.816406 59.613281 L 15.042969 52.261719 Z M 34.824219 7.132812 " clip-rule="nonzero"/></clipPath><clipPath id="de79a8a513"><path d="M 34.824219 7.132812 L 51.558594 14.464844 L 31.785156 59.570312 L 15.054688 52.238281 Z M 34.824219 7.132812 " clip-rule="nonzero"/></clipPath><clipPath id="532b978dfb"><rect x="0" width="52" y="0" height="60"/></clipPath><mask id="baea1c25a7"><g filter="url(#426c76a97a)"><rect x="-37.5" width="450" fill="#000000" y="-37.499999" height="449.999989" fill-opacity="0.71"/></g></mask><clipPath id="f1378f5413"><path d="M 9 13 L 78 13 L 78 69 L 9 69 Z M 9 13 " clip-rule="nonzero"/></clipPath><clipPath id="e50638a436"><path d="M 0.917969 31.898438 L 67.289062 0.324219 L 86.945312 41.636719 L 20.574219 73.210938 Z M 0.917969 31.898438 " clip-rule="nonzero"/></clipPath><clipPath id="340e40f422"><path d="M 0.910156 31.886719 L 67.28125 0.308594 L 86.9375 41.621094 L 20.566406 73.199219 Z M 0.910156 31.886719 " clip-rule="nonzero"/></clipPath><clipPath id="2951feb802"><rect x="0" width="88" y="0" height="73"/></clipPath></defs><g clip-path="url(#1f6e86ed38)"><g clip-path="url(#32ea9ab504)"><g clip-path="url(#3ec884b9ad)"><g clip-path="url(#852ce062be)"><g clip-path="url(#688e21068d)"><path fill="#ffffff" d="M 101.582031 224.699219 C 89.8125 220.757812 80.253906 213.226562 73.714844 203.730469 C 80.773438 217.039062 92.738281 227.773438 108.117188 232.917969 C 119.3125 236.664062 131.078125 237.082031 142.253906 234.25 L 152.445312 254.6875 C 135.765625 259.980469 117.902344 259.871094 100.992188 254.210938 C 79.894531 247.152344 62.8125 232.296875 52.890625 212.390625 C 42.964844 192.480469 41.386719 169.898438 48.449219 148.804688 C 55.507812 127.710938 70.359375 110.628906 90.269531 100.703125 C 110.175781 90.78125 132.757812 89.203125 153.855469 96.261719 C 170.765625 101.921875 185.097656 112.585938 195.226562 126.851562 L 174.789062 137.042969 C 167.570312 128.054688 157.921875 121.300781 146.726562 117.554688 C 131.351562 112.410156 115.335938 113.777344 101.6875 120.152344 C 112.625 116.507812 124.789062 116.246094 136.5625 120.1875 C 153.117188 125.726562 165.296875 138.371094 170.84375 153.589844 L 213.636719 132.261719 C 202.636719 110.195312 183.222656 92.328125 157.996094 83.886719 C 107.542969 67 52.957031 94.210938 36.070312 144.664062 C 19.183594 195.117188 46.394531 249.703125 96.847656 266.589844 C 122.074219 275.03125 148.335938 272.449219 170.398438 261.453125 L 149.066406 218.660156 C 135.472656 227.472656 118.140625 230.238281 101.582031 224.699219 " fill-opacity="1" fill-rule="nonzero"/></g></g></g></g></g><g clip-path="url(#7f40ee2b76)"><g clip-path="url(#0dff32b3ac)"><g clip-path="url(#393912051e)"><path fill="#ffffff" d="M 113.421875 203.785156 C 96.914062 198.261719 88.011719 180.402344 93.539062 163.894531 C 99.0625 147.390625 116.921875 138.488281 133.429688 144.011719 C 138.242188 145.625 142.40625 148.285156 145.757812 151.652344 C 141.652344 145.949219 135.785156 141.4375 128.617188 139.035156 C 110.4375 132.953125 90.769531 142.757812 84.6875 160.933594 C 78.601562 179.113281 88.40625 198.78125 106.585938 204.863281 C 113.753906 207.261719 121.15625 207.191406 127.867188 205.105469 C 123.164062 205.777344 118.234375 205.398438 113.421875 203.785156 " fill-opacity="1" fill-rule="nonzero"/></g></g></g><g fill="#ffffff" fill-opacity="1"><g transform="translate(133.067929, 201.54507)"><g><path d="M 19.898438 -20.417969 L 20.53125 -25.886719 C 18.929688 -26.59375 17.144531 -26.925781 15.285156 -26.925781 C -2.714844 -26.925781 -2.753906 0.0742188 15.285156 0.0742188 C 17.144531 0.0742188 19.488281 -0.371094 21.125 -1.042969 L 20.417969 -6.546875 C 19.414062 -6.023438 17.59375 -5.355469 15.285156 -5.355469 C 4.761719 -5.355469 4.761719 -21.570312 15.285156 -21.570312 C 17.59375 -21.570312 18.894531 -20.9375 19.898438 -20.417969 Z M 19.898438 -20.417969 "/></g></g></g><g fill="#ffffff" fill-opacity="1"><g transform="translate(165.38824, 201.54507)"><g/></g></g><g fill="#ffffff" fill-opacity="1"><g transform="translate(185.879987, 201.54507)"><g/></g></g><g fill="#ffffff" fill-opacity="1"><g transform="translate(206.380424, 201.54507)"><g><path d="M 16.253906 -21.273438 L 16.253906 -26.59375 L 2.976562 -26.59375 L 2.976562 0 L 8.292969 0 L 8.292969 -10.636719 L 15.0625 -10.636719 L 15.0625 -15.957031 L 8.292969 -15.957031 L 8.292969 -21.273438 Z M 16.253906 -21.273438 "/></g></g></g><g fill="#ffffff" fill-opacity="1"><g transform="translate(233.974251, 201.54507)"><g><path d="M 16.253906 -21.273438 L 16.253906 -26.59375 L 2.976562 -26.59375 L 2.976562 0 L 8.292969 0 L 8.292969 -10.636719 L 15.0625 -10.636719 L 15.0625 -15.957031 L 8.292969 -15.957031 L 8.292969 -21.273438 Z M 16.253906 -21.273438 "/></g></g></g><g fill="#ffffff" fill-opacity="1"><g transform="translate(261.568077, 201.54507)"><g><path d="M 16.738281 0 L 16.738281 -5.320312 L 8.292969 -5.320312 L 8.292969 -10.636719 L 15.285156 -10.636719 L 15.285156 -15.957031 L 8.292969 -15.957031 L 8.292969 -21.273438 L 16.289062 -21.273438 L 16.289062 -26.59375 L 2.976562 -26.59375 L 2.976562 0 Z M 16.738281 0 "/></g></g></g><g fill="#ffffff" fill-opacity="1"><g transform="translate(290.240235, 201.54507)"><g><path d="M 16.738281 0 L 16.738281 -5.320312 L 8.292969 -5.320312 L 8.292969 -10.636719 L 15.285156 -10.636719 L 15.285156 -15.957031 L 8.292969 -15.957031 L 8.292969 -21.273438 L 16.289062 -21.273438 L 16.289062 -26.59375 L 2.976562 -26.59375 L 2.976562 0 Z M 16.738281 0 "/></g></g></g><g fill="#ffffff" fill-opacity="1"><g transform="translate(184.220273, 253.295067)"><g><path d="M 2.976562 -26.59375 L 2.976562 0 L 16.738281 0 L 16.738281 -5.320312 L 8.292969 -5.320312 L 8.292969 -26.59375 Z M 2.976562 -26.59375 "/></g></g></g><g fill="#ffffff" fill-opacity="1"><g transform="translate(212.483407, 253.295067)"><g><path d="M 0.59375 0 L 6.621094 0 L 7.660156 -2.863281 L 16.476562 -2.863281 L 17.554688 0 L 23.542969 0 L 12.347656 -27.558594 L 11.789062 -27.558594 Z M 9.59375 -7.847656 L 12.085938 -14.765625 L 14.503906 -7.847656 Z M 9.59375 -7.847656 "/></g></g></g><g fill="#ffffff" fill-opacity="1"><g transform="translate(246.695924, 253.295067)"><g><path d="M 8.292969 -14.46875 L 21.757812 0.558594 L 23.171875 0.558594 L 23.171875 -26.554688 L 17.816406 -26.554688 L 17.816406 -11.53125 L 4.390625 -27.152344 L 2.976562 -27.152344 L 2.976562 0 L 8.292969 0 Z M 8.292969 -14.46875 "/></g></g></g><g fill="#ffffff" fill-opacity="1"><g transform="translate(282.804801, 253.295067)"><g><path d="M 10.898438 -26.59375 L 2.976562 -26.59375 L 2.976562 0 L 10.898438 0 C 28.601562 0 28.601562 -26.59375 10.898438 -26.59375 Z M 10.898438 -21.273438 C 21.238281 -21.273438 21.238281 -5.320312 10.898438 -5.320312 L 8.292969 -5.320312 L 8.292969 -21.273438 Z M 10.898438 -21.273438 "/></g></g></g><g mask="url(#771f63b15b)"><g transform="matrix(1, 0, 0, 1, 157, 159)"><g clip-path="url(#532b978dfb)"><g clip-path="url(#58228f8140)"><g clip-path="url(#10f07d9c88)"><g clip-path="url(#e099d9ef0b)"><path fill="#ffbd59" d="M 9.492188 48.820312 C 7.671875 46.480469 6.636719 43.15625 6.570312 39.398438 C 6.488281 34.976562 7.671875 30.304688 9.992188 25.882812 C 12.511719 21.078125 16.136719 17.121094 20.191406 14.742188 C 23.085938 13.050781 25.980469 12.261719 28.644531 12.4375 C 26.492188 14.972656 23.863281 19.195312 22.085938 25.863281 C 21.699219 27.320312 21.339844 28.847656 20.992188 30.320312 C 19.984375 34.59375 18.941406 39.011719 17.070312 42.464844 C 15.210938 45.898438 12.792969 47.925781 9.492188 48.820312 " fill-opacity="1" fill-rule="nonzero"/></g></g></g><g clip-path="url(#9f28ff2019)"><g clip-path="url(#d98c320c4e)"><g clip-path="url(#ada1b2a89a)"><path fill="#ffbd59" d="M 22.320312 50.980469 C 26.066406 48.171875 29.949219 42.882812 31.117188 32.917969 C 31.429688 30.265625 32.285156 25.527344 33.664062 20.898438 C 34.898438 16.761719 36.269531 13.648438 37.648438 11.832031 C 40.25 14.0625 41.828125 17.6875 42.109375 22.125 C 42.414062 26.941406 41.164062 32.296875 38.585938 37.210938 C 35.976562 42.179688 32.230469 46.28125 28.035156 48.753906 C 26.132812 49.878906 24.195312 50.628906 22.320312 50.980469 " fill-opacity="1" fill-rule="nonzero"/></g></g></g><g clip-path="url(#747e2244c1)"><g clip-path="url(#2f26f1ca8f)"><g clip-path="url(#af36fabfd4)"><path fill="#ffffff" d="M 21.691406 40.828125 C 19.894531 44.777344 17.324219 47.175781 13.621094 48.335938 C 11.324219 45.96875 9.867188 42.410156 9.496094 38.238281 C 9.089844 33.632812 9.976562 28.679688 12.070312 23.90625 C 14.34375 18.722656 17.828125 14.339844 21.890625 11.558594 C 25.28125 9.238281 28.824219 8.203125 32.035156 8.558594 C 29.738281 11.328125 27.097656 15.957031 25.65625 23.425781 C 25.371094 24.925781 25.113281 26.5 24.863281 28.019531 C 24.136719 32.484375 23.386719 37.097656 21.691406 40.828125 Z M 26.6875 28.316406 C 26.933594 26.808594 27.1875 25.25 27.472656 23.777344 C 29.152344 15.054688 32.585938 10.527344 34.484375 8.605469 L 35.601562 7.472656 L 34.0625 7.0625 C 25.570312 4.8125 15.386719 11.734375 10.378906 23.167969 C 5.867188 33.457031 6.832031 44.511719 12.730469 50.046875 L 13.105469 50.402344 L 13.605469 50.265625 C 18.085938 49.03125 21.28125 46.191406 23.371094 41.59375 C 25.167969 37.636719 25.941406 32.898438 26.6875 28.316406 " fill-opacity="1" fill-rule="nonzero"/></g></g></g><g clip-path="url(#155caf0665)"><g clip-path="url(#9635787b41)"><g clip-path="url(#03e9e9e967)"><g clip-path="url(#f6fe76e720)"><g clip-path="url(#de79a8a513)"><path fill="#ffffff" d="M 21.796875 51.570312 C 25.894531 49.101562 30.585938 43.75 31.128906 32.171875 C 31.253906 29.527344 31.769531 24.78125 32.8125 20.113281 C 33.855469 15.445312 35.152344 12.035156 36.582031 10.175781 C 43.117188 14.394531 44.660156 25.601562 40.03125 36.164062 C 37.769531 41.324219 34.296875 45.699219 30.257812 48.476562 C 27.453125 50.410156 24.539062 51.460938 21.796875 51.570312 Z M 44.214844 19.859375 C 43.320312 14.453125 40.699219 10.300781 36.832031 8.175781 L 36.210938 7.832031 L 35.722656 8.34375 C 31.492188 12.75 29.558594 26.242188 29.285156 32.085938 C 28.644531 45.722656 21.992188 49.957031 18.082031 51.265625 L 15.109375 52.261719 L 18.148438 53.035156 C 26.609375 55.195312 36.742188 48.261719 41.722656 36.90625 C 44.207031 31.234375 45.09375 25.183594 44.214844 19.859375 " fill-opacity="1" fill-rule="nonzero"/></g></g></g></g></g></g></g></g><g fill="#ffffff" fill-opacity="1"><g transform="translate(47.74219, 304.357802)"><g><path d="M 0.902344 -0.882812 C 2.765625 0.078125 4.476562 0.171875 5.246094 0.117188 C 7.820312 -0.0195312 9.394531 -1.769531 9.394531 -4.054688 C 9.394531 -6.246094 7.550781 -7.476562 5.417969 -8.261719 C 4.628906 -8.53125 3.957031 -8.878906 3.882812 -9.644531 C 3.824219 -10.414062 4.265625 -11.125 5.246094 -11.183594 C 5.667969 -11.203125 6.53125 -11.222656 8.050781 -10.605469 L 8.398438 -13.257812 C 6.628906 -13.875 5.6875 -13.875 4.976562 -13.835938 C 2.691406 -13.71875 1.09375 -11.953125 1.09375 -9.644531 C 1.09375 -7.339844 3.015625 -6.246094 5.167969 -5.457031 C 5.9375 -5.1875 6.53125 -4.84375 6.589844 -4.054688 C 6.667969 -3.304688 5.976562 -2.730469 5.167969 -2.671875 C 4.535156 -2.613281 2.824219 -2.652344 1.25 -3.765625 Z M 0.902344 -0.882812 "/></g></g></g><g fill="#ffffff" fill-opacity="1"><g transform="translate(57.902758, 304.357802)"><g><path d="M 4.285156 0 L 4.285156 -13.738281 L 1.539062 -13.738281 L 1.539062 0 Z M 4.285156 0 "/></g></g></g><g fill="#ffffff" fill-opacity="1"><g transform="translate(63.741727, 304.357802)"><g><path d="M 8.648438 0 L 8.648438 -2.746094 L 4.285156 -2.746094 L 4.285156 -5.496094 L 7.898438 -5.496094 L 7.898438 -8.242188 L 4.285156 -8.242188 L 4.285156 -10.992188 L 8.417969 -10.992188 L 8.417969 -13.738281 L 1.539062 -13.738281 L 1.539062 0 Z M 8.648438 0 "/></g></g></g><g fill="#ffffff" fill-opacity="1"><g transform="translate(73.422112, 304.357802)"><g><path d="M 4.285156 -7.476562 L 11.242188 0.289062 L 11.972656 0.289062 L 11.972656 -13.71875 L 9.203125 -13.71875 L 9.203125 -5.957031 L 2.265625 -14.027344 L 1.539062 -14.027344 L 1.539062 0 L 4.285156 0 Z M 4.285156 -7.476562 "/></g></g></g><g fill="#ffffff" fill-opacity="1"><g transform="translate(86.943924, 304.357802)"><g><path d="M 6.550781 0 L 6.550781 -10.992188 L 9.972656 -10.992188 L 9.972656 -13.71875 L 0.382812 -13.71875 L 0.382812 -10.992188 L 3.804688 -10.992188 L 3.804688 0 Z M 6.550781 0 "/></g></g></g><g fill="#ffffff" fill-opacity="1"><g transform="translate(97.450217, 304.357802)"><g><path d="M 8.648438 0 L 8.648438 -2.746094 L 4.285156 -2.746094 L 4.285156 -5.496094 L 7.898438 -5.496094 L 7.898438 -8.242188 L 4.285156 -8.242188 L 4.285156 -10.992188 L 8.417969 -10.992188 L 8.417969 -13.738281 L 1.539062 -13.738281 L 1.539062 0 Z M 8.648438 0 "/></g></g></g><g fill="#ffffff" fill-opacity="1"><g transform="translate(107.130602, 304.357802)"><g/></g></g><g fill="#ffffff" fill-opacity="1"><g transform="translate(112.585428, 304.357802)"><g><path d="M 4.898438 0 L 7.628906 0 L 7.628906 -6.1875 L 12.433594 -13.738281 L 9.070312 -13.738281 L 6.265625 -9.011719 L 3.457031 -13.738281 L 0.117188 -13.738281 L 4.898438 -6.1875 Z M 4.898438 0 "/></g></g></g><g fill="#ffffff" fill-opacity="1"><g transform="translate(125.050847, 304.357802)"><g/></g></g><g fill="#ffffff" fill-opacity="1"><g transform="translate(130.505673, 304.357802)"><g><path d="M 0.902344 -0.882812 C 2.765625 0.078125 4.476562 0.171875 5.246094 0.117188 C 7.820312 -0.0195312 9.394531 -1.769531 9.394531 -4.054688 C 9.394531 -6.246094 7.550781 -7.476562 5.417969 -8.261719 C 4.628906 -8.53125 3.957031 -8.878906 3.882812 -9.644531 C 3.824219 -10.414062 4.265625 -11.125 5.246094 -11.183594 C 5.667969 -11.203125 6.53125 -11.222656 8.050781 -10.605469 L 8.398438 -13.257812 C 6.628906 -13.875 5.6875 -13.875 4.976562 -13.835938 C 2.691406 -13.71875 1.09375 -11.953125 1.09375 -9.644531 C 1.09375 -7.339844 3.015625 -6.246094 5.167969 -5.457031 C 5.9375 -5.1875 6.53125 -4.84375 6.589844 -4.054688 C 6.667969 -3.304688 5.976562 -2.730469 5.167969 -2.671875 C 4.535156 -2.613281 2.824219 -2.652344 1.25 -3.765625 Z M 0.902344 -0.882812 "/></g></g></g><g fill="#ffffff" fill-opacity="1"><g transform="translate(140.666241, 304.357802)"><g><path d="M 0.308594 0 L 3.421875 0 L 3.957031 -1.480469 L 8.511719 -1.480469 L 9.070312 0 L 12.164062 0 L 6.378906 -14.238281 L 6.089844 -14.238281 Z M 4.957031 -4.054688 L 6.246094 -7.628906 L 7.492188 -4.054688 Z M 4.957031 -4.054688 "/></g></g></g><g fill="#ffffff" fill-opacity="1"><g transform="translate(153.208484, 304.357802)"><g><path d="M 1.539062 0 L 6.976562 0 C 9.203125 0 11.03125 -1.824219 11.03125 -4.132812 C 11.03125 -5.207031 10.511719 -6.265625 9.609375 -6.878906 C 10.472656 -7.476562 10.835938 -8.550781 10.875 -9.589844 C 10.933594 -12.007812 9.414062 -13.757812 6.976562 -13.757812 L 1.539062 -13.757812 Z M 4.304688 -11.011719 L 6.746094 -11.011719 C 7.53125 -11.011719 8.011719 -10.394531 8.011719 -9.625 C 8.011719 -8.878906 7.53125 -8.242188 6.746094 -8.242188 L 4.304688 -8.242188 Z M 4.304688 -5.496094 L 6.746094 -5.496094 C 7.53125 -5.496094 8.128906 -4.898438 8.128906 -4.132812 C 8.128906 -3.363281 7.53125 -2.746094 6.746094 -2.746094 L 4.304688 -2.746094 Z M 4.304688 -5.496094 "/></g></g></g><g fill="#ffffff" fill-opacity="1"><g transform="translate(165.136099, 304.357802)"><g><path d="M 8.148438 0.191406 C 17.601562 0.191406 17.601562 -13.96875 8.148438 -13.96875 C -1.304688 -13.96875 -1.304688 0.191406 8.148438 0.191406 Z M 8.148438 -2.652344 C 2.652344 -2.652344 2.652344 -11.144531 8.148438 -11.144531 C 13.644531 -11.144531 13.644531 -2.652344 8.148438 -2.652344 Z M 8.148438 -2.652344 "/></g></g></g><g fill="#ffffff" fill-opacity="1"><g transform="translate(181.404527, 304.357802)"><g><path d="M 8.378906 0 L 11.492188 0 L 8.300781 -5.667969 C 12.335938 -6.839844 11.855469 -13.738281 6.957031 -13.738281 L 1.539062 -13.738281 L 1.539062 0 L 4.285156 0 L 4.285156 -5.246094 L 5.609375 -5.246094 Z M 4.285156 -7.917969 L 4.285156 -10.992188 L 6.707031 -10.992188 C 8.570312 -10.992188 8.570312 -7.917969 6.707031 -7.917969 Z M 4.285156 -7.917969 "/></g></g></g><g fill="#ffffff" fill-opacity="1"><g transform="translate(193.178494, 304.357802)"><g><path d="M 8.648438 0 L 8.648438 -2.746094 L 4.285156 -2.746094 L 4.285156 -5.496094 L 7.898438 -5.496094 L 7.898438 -8.242188 L 4.285156 -8.242188 L 4.285156 -10.992188 L 8.417969 -10.992188 L 8.417969 -13.738281 L 1.539062 -13.738281 L 1.539062 0 Z M 8.648438 0 "/></g></g></g><g fill="#ffffff" fill-opacity="1"><g transform="translate(202.858879, 304.357802)"><g><path d="M 0.308594 0 L 3.421875 0 L 3.957031 -1.480469 L 8.511719 -1.480469 L 9.070312 0 L 12.164062 0 L 6.378906 -14.238281 L 6.089844 -14.238281 Z M 4.957031 -4.054688 L 6.246094 -7.628906 L 7.492188 -4.054688 Z M 4.957031 -4.054688 "/></g></g></g><g fill="#ffffff" fill-opacity="1"><g transform="translate(215.401122, 304.357802)"><g/></g></g><g fill="#ffffff" fill-opacity="1"><g transform="translate(220.855948, 304.357802)"><g><path d="M 1.539062 -13.738281 L 1.539062 0 L 8.648438 0 L 8.648438 -2.746094 L 4.285156 -2.746094 L 4.285156 -13.738281 Z M 1.539062 -13.738281 "/></g></g></g><g fill="#ffffff" fill-opacity="1"><g transform="translate(230.325052, 304.357802)"><g><path d="M 0.308594 0 L 3.421875 0 L 3.957031 -1.480469 L 8.511719 -1.480469 L 9.070312 0 L 12.164062 0 L 6.378906 -14.238281 L 6.089844 -14.238281 Z M 4.957031 -4.054688 L 6.246094 -7.628906 L 7.492188 -4.054688 Z M 4.957031 -4.054688 "/></g></g></g><g fill="#ffffff" fill-opacity="1"><g transform="translate(242.867284, 304.357802)"><g/></g></g><g fill="#ffffff" fill-opacity="1"><g transform="translate(248.32211, 304.357802)"><g><path d="M 4.285156 0 L 4.285156 -5.246094 L 6.9375 -5.246094 C 12.257812 -5.246094 12.277344 -13.71875 6.9375 -13.71875 L 1.539062 -13.71875 L 1.539062 0 Z M 4.285156 -7.917969 L 4.285156 -10.992188 L 6.707031 -10.992188 C 8.550781 -10.992188 8.550781 -7.917969 6.707031 -7.917969 Z M 4.285156 -7.917969 "/></g></g></g><g fill="#ffffff" fill-opacity="1"><g transform="translate(259.90401, 304.357802)"><g><path d="M 0.308594 0 L 3.421875 0 L 3.957031 -1.480469 L 8.511719 -1.480469 L 9.070312 0 L 12.164062 0 L 6.378906 -14.238281 L 6.089844 -14.238281 Z M 4.957031 -4.054688 L 6.246094 -7.628906 L 7.492188 -4.054688 Z M 4.957031 -4.054688 "/></g></g></g><g fill="#ffffff" fill-opacity="1"><g transform="translate(272.446253, 304.357802)"><g><path d="M 0.902344 -0.882812 C 2.765625 0.078125 4.476562 0.171875 5.246094 0.117188 C 7.820312 -0.0195312 9.394531 -1.769531 9.394531 -4.054688 C 9.394531 -6.246094 7.550781 -7.476562 5.417969 -8.261719 C 4.628906 -8.53125 3.957031 -8.878906 3.882812 -9.644531 C 3.824219 -10.414062 4.265625 -11.125 5.246094 -11.183594 C 5.667969 -11.203125 6.53125 -11.222656 8.050781 -10.605469 L 8.398438 -13.257812 C 6.628906 -13.875 5.6875 -13.875 4.976562 -13.835938 C 2.691406 -13.71875 1.09375 -11.953125 1.09375 -9.644531 C 1.09375 -7.339844 3.015625 -6.246094 5.167969 -5.457031 C 5.9375 -5.1875 6.53125 -4.84375 6.589844 -4.054688 C 6.667969 -3.304688 5.976562 -2.730469 5.167969 -2.671875 C 4.535156 -2.613281 2.824219 -2.652344 1.25 -3.765625 Z M 0.902344 -0.882812 "/></g></g></g><g fill="#ffffff" fill-opacity="1"><g transform="translate(282.606821, 304.357802)"><g><path d="M 4.285156 0 L 4.285156 -13.738281 L 1.539062 -13.738281 L 1.539062 0 Z M 4.285156 0 "/></g></g></g><g fill="#ffffff" fill-opacity="1"><g transform="translate(288.445802, 304.357802)"><g><path d="M 11.472656 -17.832031 L 7.953125 -17.832031 L 6.9375 -15.121094 L 9.53125 -15.121094 Z M 8.148438 0.191406 C 17.601562 0.191406 17.601562 -13.96875 8.148438 -13.96875 C -1.304688 -13.96875 -1.304688 0.191406 8.148438 0.191406 Z M 8.148438 -2.652344 C 2.652344 -2.652344 2.652344 -11.144531 8.148438 -11.144531 C 13.644531 -11.144531 13.644531 -2.652344 8.148438 -2.652344 Z M 8.148438 -2.652344 "/></g></g></g><g fill="#ffffff" fill-opacity="1"><g transform="translate(304.714218, 304.357802)"><g><path d="M 4.285156 -7.476562 L 11.242188 0.289062 L 11.972656 0.289062 L 11.972656 -13.71875 L 9.203125 -13.71875 L 9.203125 -5.957031 L 2.265625 -14.027344 L 1.539062 -14.027344 L 1.539062 0 L 4.285156 0 Z M 4.285156 -7.476562 "/></g></g></g><g mask="url(#baea1c25a7)"><g transform="matrix(1, 0, 0, 1, 31, 29)"><g clip-path="url(#2951feb802)"><g clip-path="url(#f1378f5413)"><g clip-path="url(#e50638a436)"><g clip-path="url(#340e40f422)"><path fill="#ffbd59" d="M 18.0625 54.0625 C 17.59375 53.847656 17.574219 53.886719 17.996094 54.167969 C 20.957031 56.179688 25.011719 57.339844 28.371094 57.816406 C 28.425781 57.828125 28.453125 57.800781 28.449219 57.738281 C 27.886719 51.332031 25.582031 45.441406 21.546875 40.292969 C 21.332031 40.027344 21.117188 39.898438 20.894531 39.886719 C 19.996094 39.863281 19.101562 39.875 18.195312 39.921875 C 17.589844 39.953125 17.519531 39.566406 17.347656 39.09375 C 16.839844 37.628906 16.460938 36.378906 16.238281 35.328125 C 16.105469 34.675781 16.636719 34.511719 17.183594 34.429688 C 18.496094 34.230469 19.800781 34.121094 21.132812 34.089844 C 21.863281 34.078125 22.03125 34.59375 22.117188 35.257812 C 22.285156 36.332031 22.417969 37.410156 22.550781 38.488281 C 22.554688 38.550781 22.585938 38.589844 22.628906 38.617188 C 22.960938 38.890625 23.296875 39.148438 23.644531 39.398438 C 28.832031 43.125 34.421875 46.105469 40.417969 48.339844 C 40.449219 48.351562 40.472656 48.371094 40.488281 48.402344 C 40.535156 48.472656 40.519531 48.570312 40.449219 48.617188 C 40.421875 48.636719 40.386719 48.640625 40.347656 48.644531 C 39.902344 48.617188 39.417969 48.527344 38.925781 48.375 C 34.675781 47.042969 30.550781 45.277344 26.554688 43.0625 C 26.382812 42.96875 26.25 42.878906 26.167969 42.785156 L 26.167969 42.78125 C 26.152344 42.777344 26.125 42.773438 26.121094 42.789062 L 26.121094 42.796875 C 26.113281 42.804688 26.109375 42.820312 26.105469 42.84375 C 26.097656 42.851562 26.105469 42.863281 26.109375 42.875 C 29.359375 45.683594 33.644531 47.617188 37.742188 49.058594 C 38.804688 49.429688 39.785156 49.703125 40.675781 49.890625 C 40.734375 49.90625 40.773438 49.882812 40.78125 49.816406 C 41.777344 41.753906 40.253906 33.699219 37.761719 25.765625 C 37.582031 25.207031 37.394531 25.046875 36.835938 24.835938 C 35.445312 24.285156 34.046875 23.75 32.664062 23.210938 C 32.007812 22.957031 32.011719 22.238281 32.226562 21.554688 C 32.75 19.933594 33.289062 18.3125 33.828125 16.699219 C 34.027344 16.128906 34.398438 15.953125 34.964844 16.160156 C 37.726562 17.160156 39.472656 17.839844 40.183594 18.191406 C 41.136719 18.648438 40.792969 19.335938 40.480469 20.234375 C 40.070312 21.449219 39.636719 22.671875 39.210938 23.882812 C 39.105469 24.167969 39.132812 24.4375 39.289062 24.6875 C 43.617188 31.574219 49.375 38.121094 56.359375 42.402344 C 56.425781 42.433594 56.46875 42.421875 56.488281 42.359375 C 58.5 37.941406 59.71875 33.308594 60.160156 28.445312 C 60.210938 27.882812 60.171875 27.242188 60.183594 26.652344 C 60.183594 26.628906 60.175781 26.613281 60.160156 26.605469 C 60.160156 26.605469 60.15625 26.601562 60.148438 26.605469 C 60.132812 26.605469 60.125 26.617188 60.128906 26.628906 C 59.5625 30.09375 58.71875 33.496094 57.589844 36.832031 C 57.113281 38.257812 56.539062 39.984375 55.753906 41.261719 C 55.644531 41.4375 55.542969 41.457031 55.429688 41.355469 C 55.386719 41.316406 55.367188 41.253906 55.394531 41.199219 C 57.523438 34.847656 58.902344 27.992188 59 21.265625 C 58.992188 21.21875 58.984375 21.171875 58.941406 21.140625 C 57.6875 19.886719 56.851562 19.007812 56.4375 18.515625 C 55.90625 17.855469 56.3125 17.425781 56.804688 16.859375 C 57.640625 15.925781 58.527344 15.039062 59.476562 14.214844 C 59.765625 13.96875 60.152344 13.871094 60.40625 14.191406 C 60.894531 14.8125 61.6875 15.925781 62.777344 17.546875 C 62.972656 17.828125 63.070312 18.085938 63.085938 18.328125 C 63.09375 18.375 63.070312 18.429688 63.035156 18.464844 C 62.378906 19.167969 61.761719 19.894531 61.164062 20.640625 C 60.910156 20.960938 60.914062 21.230469 60.992188 21.605469 C 62.285156 27.742188 65.640625 33.457031 70.230469 37.832031 L 70.234375 37.835938 C 70.273438 37.863281 70.332031 37.855469 70.355469 37.820312 L 70.363281 37.8125 C 72.144531 34.519531 73.765625 31.019531 74.050781 27.269531 L 74.046875 27.265625 C 74.054688 27.253906 74.039062 27.25 74.03125 27.253906 C 74.015625 27.253906 74.003906 27.253906 73.980469 27.257812 C 73.96875 27.257812 73.96875 27.261719 73.964844 27.277344 C 73.199219 30.492188 72.074219 33.464844 70.585938 36.199219 C 70.476562 36.398438 70.289062 36.5625 70.015625 36.683594 C 69.960938 36.703125 69.910156 36.671875 69.886719 36.625 L 69.894531 36.613281 C 69.859375 36.488281 69.882812 36.34375 69.949219 36.171875 C 71.625 32.171875 72.851562 28.027344 73.636719 23.753906 C 73.648438 23.679688 73.632812 23.597656 73.601562 23.523438 C 73.144531 22.726562 72.691406 21.902344 72.226562 21.0625 C 71.980469 20.597656 72.039062 20.238281 72.410156 19.980469 C 73.257812 19.394531 74.105469 18.800781 74.953125 18.207031 C 75.640625 17.726562 75.933594 18.03125 76.222656 18.691406 C 76.699219 19.773438 77.175781 20.800781 77.664062 21.773438 C 77.664062 21.769531 77.664062 21.773438 77.664062 21.773438 C 77.785156 22.027344 77.6875 22.328125 77.441406 22.453125 L 77.429688 22.457031 C 76.757812 22.777344 76.097656 23.097656 75.460938 23.40625 C 75.039062 23.613281 75.070312 23.890625 75.078125 24.363281 C 75.09375 30.128906 75.699219 35.828125 76.894531 41.464844 C 76.910156 41.519531 76.878906 41.5625 76.816406 41.570312 C 67.941406 43.199219 59.355469 45.71875 51.035156 49.160156 C 50.898438 49.21875 50.746094 49.160156 50.667969 49.03125 C 49.515625 46.765625 48.296875 44.546875 46.996094 42.375 C 46.894531 42.21875 46.777344 42.078125 46.644531 41.957031 C 46.582031 41.90625 46.550781 41.921875 46.550781 42.003906 C 46.558594 42.234375 46.589844 42.429688 46.640625 42.59375 C 47.53125 44.917969 48.472656 47.214844 49.5 49.480469 C 49.671875 49.867188 49.410156 49.953125 49.085938 50.128906 C 41.472656 54.179688 33.675781 59.546875 27.167969 65.230469 C 27.136719 65.25 27.113281 65.25 27.097656 65.21875 C 23.332031 60.554688 19.109375 56.347656 14.441406 52.589844 C 14.382812 52.550781 14.351562 52.535156 14.320312 52.546875 L 11.851562 53.679688 C 11.617188 53.777344 11.359375 53.683594 11.25 53.457031 L 9.542969 49.96875 C 9.535156 49.960938 9.535156 49.933594 9.53125 49.917969 C 9.40625 49.605469 9.558594 49.238281 9.882812 49.117188 C 9.894531 49.109375 9.914062 49.101562 9.9375 49.097656 L 13.289062 48.167969 C 13.582031 48.085938 13.890625 48.230469 14.023438 48.503906 L 14.042969 48.550781 C 14.371094 49.425781 14.703125 50.261719 15.03125 51.054688 C 15.171875 51.371094 15.222656 51.453125 15.527344 51.617188 C 19.261719 53.628906 23.15625 55.246094 27.21875 56.460938 C 27.382812 56.515625 27.511719 56.59375 27.574219 56.695312 L 27.582031 56.714844 C 27.625 56.808594 27.578125 56.921875 27.488281 56.96875 C 27.457031 56.980469 27.433594 56.988281 27.394531 56.984375 C 26.714844 56.941406 26.050781 56.855469 25.367188 56.671875 C 22.789062 55.972656 20.34375 55.097656 18.0625 54.0625 M 77.878906 45.609375 C 68.371094 48.773438 59.121094 52.902344 50.121094 57.261719 C 43.644531 60.398438 37.347656 63.824219 31.207031 67.558594 C 30.851562 67.773438 30.207031 68.230469 29.679688 68.511719 C 29.628906 68.539062 29.601562 68.527344 29.566406 68.484375 L 27.339844 65.585938 C 27.292969 65.519531 27.292969 65.46875 27.363281 65.421875 C 36.699219 58.40625 46.785156 52.199219 57.429688 47.933594 C 63.410156 45.539062 69.929688 43.507812 76.964844 41.84375 C 77.019531 41.828125 77.054688 41.84375 77.066406 41.902344 L 77.933594 45.511719 C 77.941406 45.554688 77.914062 45.597656 77.878906 45.609375 Z M 77.878906 45.609375 " fill-opacity="1" fill-rule="evenodd"/></g></g></g></g></g></g></svg>